{
.appVersion = "1035";
DisplayStrings = (
"o\U00B7/quotedblbase ,nn/Placeholder o/Placeholder o\012OHII/Placeholder III"
);
classes = (
{
automatic = 1;
code = "A AE B C D E F G Germandbls H I J K L M N O P Q R S T U V W X Y Z Aacute Abreve Abreveacute Abrevedotbelow Abrevegrave Abrevehookabove Abrevetilde Acircumflex Acircumflexacute Acircumflexdotbelow Acircumflexgrave Acircumflexhookabove Acircumflextilde Adblgrave Adieresis Adotbelow Agrave Ahookabove Ainvertedbreve Amacron Aogonek Aring Aringacute Atilde AEacute Cacute Ccaron Ccedilla Ccircumflex Cdotaccent DZcaron Eth Dcaron Dcroat Dzcaron Eacute Ebreve Ecaron Ecircumflex Ecircumflexacute Ecircumflexdotbelow Ecircumflexgrave Ecircumflexhookabove Ecircumflextilde Edblgrave Edieresis Edotaccent Edotbelow Egrave Ehookabove Einvertedbreve Emacron Eogonek Etilde Gbreve Gcaron Gcircumflex Gcommaaccent Gdotaccent Hbar Hcircumflex IJ Iacute Ibreve Icircumflex Idblgrave Idieresis Idotaccent Idotbelow Igrave Ihookabove Iinvertedbreve Imacron Iogonek Itilde Jcircumflex Kcommaaccent LJ Lacute Lcaron Lcommaaccent Ldot Lj Lslash NJ Nacute Ncaron Ncommaaccent Eng Nj Ntilde Oacute Obreve Ocircumflex Ocircumflexacute Ocircumflexdotbelow Ocircumflexgrave Ocircumflexhookabove Ocircumflextilde Odblgrave Odieresis Odieresismacron Odotaccentmacron Odotbelow Ograve Ohookabove Ohorn Ohornacute Ohorndotbelow Ohorngrave Ohornhookabove Ohorntilde Ohungarumlaut Oinvertedbreve Omacron Oogonek Oslash Oslashacute Otilde Otildemacron OE Thorn Racute Rcaron Rcommaaccent Rdblgrave Rinvertedbreve Sacute Scaron Scedilla Scircumflex Scommaaccent Schwa Tbar Tcaron Tcedilla Tcommaaccent Uacute Ubreve Ucircumflex Udblgrave Udieresis Udotbelow Ugrave Uhookabove Uhorn Uhornacute Uhorndotbelow Uhorngrave Uhornhookabove Uhorntilde Uhungarumlaut Uinvertedbreve Umacron Uogonek Uring Utilde Wacute Wcircumflex Wdieresis Wgrave Yacute Ycircumflex Ydieresis Ydotbelow Ygrave Yhookabove Ymacron Ytilde Zacute Zcaron Zdotaccent IJ.ss01 Q.ss01 IJ.ss02";

glyphs = (
{
color = 3;
glyphname = A;
layers = (
{
anchors = (
{
name = bottom;
position = "{777, 0}";
},
{
name = ogonek;
position = "{1523, 0}";
},
{
name = top;
position = "{777, 1592}";
}
);
background = {
paths = (
{
closed = 1;
nodes = (
"729 0 LINE",
"729 352 LINE",
"537 352 LINE",
"583 523 LINE",
"944 523 LINE",
"986 352 LINE",
"857 352 LINE",
"857 0 LINE",
"1753 0 LINE",
"1753 352 LINE",
"1594 352 LINE",
"1241 1592 LINE",
"249 1592 LINE",
"249 1240 LINE",
"458 1240 LINE",
"184 352 LINE",
"25 352 LINE",
"25 0 LINE"
);
},
{
closed = 1;
nodes = (
"779 1251 LINE",
"896 763 LINE",
"635 763 LINE"
);
}
);
};
guideLines = (
{
angle = 90;
position = "{777, 874}";
}
);
layerId = "BC722C43-F174-4026-9892-4620CE50CA16";
paths = (
{
closed = 1;
nodes = (
"673 0 LINE",
"673 345 LINE",
"508 345 LINE",
"820 1395 LINE",
"742 1395 LINE",
"1018 345 LINE",
"853 345 LINE",
"853 0 LINE",
"1750 0 LINE",
"1750 345 LINE",
"1605 345 LINE",
"1231 1592 LINE",
"243 1592 LINE",
"243 1247 LINE",
"458 1247 LINE",
"159 345 LINE",
"14 345 LINE",
"14 0 LINE"
);
},
{
closed = 1;
nodes = (
"1010 520 LINE",
"952 770 LINE",
"589 770 LINE",
"527 520 LINE"
);
}
);
width = 1771;
}
);
unicode = 0041;
userData = {
com.typemytype.robofont.layerData = {
};
};
},
{
color = 3;
glyphname = AE;
layers = (
{
anchors = (
{
name = bottom;
position = "{1275, 0}";
},
{
name = top;
position = "{1275, 1592}";
}
);
background = {
paths = (
{
closed = 1;
nodes = (
"755 -1 LINE",
"755 375 LINE",
"681 375 LINE SMOOTH",
"657 375 OFFCURVE",
"646 417 OFFCURVE",
"646 458 CURVE SMOOTH",
"646 500 OFFCURVE",
"658 538 OFFCURVE",
"688 538 CURVE SMOOTH",
"963 538 LINE SMOOTH",
"994 538 OFFCURVE",
"1009 512 OFFCURVE",
"1009 460 CURVE SMOOTH",
"1009 436 OFFCURVE",
"1005 408 OFFCURVE",
"999 374 CURVE",
"879 374 LINE",
"880 -2 LINE",
"2109 -2 LINE",
"2109 685 LINE",
"1836 685 LINE",
"1760 348 LINE",
"1541 348 LINE",
"1541 634 LINE",
"1746 634 LINE",
"1746 986 LINE",
"1541 986 LINE",
"1541 1269 LINE",
"1754 1269 LINE",
"1832 969 LINE",
"2100 970 LINE",
"2100 1623 LINE",
"530 1623 LINE",
"459 1274 LINE",
"671 1274 LINE",
"349 608 LINE SMOOTH",
"272 450 OFFCURVE",
"216 353 OFFCURVE",
"74 353 CURVE",
"74 -2 LINE"
);
},
{
closed = 1;
nodes = (
"992 1290 LINE",
"991 769 LINE",
"752 769 LINE"
);
}
);
};
layerId = "BC722C43-F174-4026-9892-4620CE50CA16";
paths = (
{
closed = 1;
nodes = (
"681 0 LINE",
"681 345 LINE",
"516 345 LINE",
"1129 1473 LINE",
"1021 1473 LINE",
"1021 345 LINE",
"861 345 LINE",
"861 0 LINE",
"2277 0 LINE",
"2277 677 LINE",
"1947 677 LINE",
"1912 340 LINE",
"1529 340 LINE",
"1529 642 LINE",
"1799 642 LINE",
"1799 982 LINE",
"1529 982 LINE",
"1529 1252 LINE",
"1912 1252 LINE",
"1947 959 LINE",
"2277 959 LINE",
"2277 1592 LINE",
"444 1592 LINE",
"444 1247 LINE",
"659 1247 LINE",
"145 345 LINE",
"0 345 LINE",
"0 0 LINE"
);
},
{
closed = 1;
nodes = (
"1118 520 LINE",
"1060 770 LINE",
"597 770 LINE",
"535 520 LINE"
);
}
);
width = 2399;
}
);
rightMetricsKey = E;
unicode = 00C6;
},
{
color = 4;
glyphname = B;
layers = (
{
background = {
paths = (
{
closed = 1;
nodes = (
"983 0 LINE SMOOTH",
"1380 0 OFFCURVE",
"1601 162 OFFCURVE",
"1601 454 CURVE SMOOTH",
"1601 625 OFFCURVE",
"1530 732 OFFCURVE",
"1354 810 CURVE",
"1493 875 OFFCURVE",
"1574 1003 OFFCURVE",
"1574 1154 CURVE SMOOTH",
"1574 1445 OFFCURVE",
"1353 1592 OFFCURVE",
"927 1592 CURVE SMOOTH",
"64 1592 LINE",
"64 1247 LINE",
"224 1247 LINE",
"224 345 LINE",
"64 345 LINE",
"64 0 LINE"
);
},
{
closed = 1;
nodes = (
"732 673 LINE",
"887 673 LINE SMOOTH",
"1011 673 OFFCURVE",
"1079 619 OFFCURVE",
"1079 509 CURVE SMOOTH",
"1079 399 OFFCURVE",
"1011 345 OFFCURVE",
"887 345 CURVE SMOOTH",
"732 345 LINE"
);
},
{
closed = 1;
nodes = (
"732 1247 LINE",
"866 1247 LINE SMOOTH",
"986 1247 OFFCURVE",
"1052 1198 OFFCURVE",
"1052 1099 CURVE SMOOTH",
"1052 1000 OFFCURVE",
"986 951 OFFCURVE",
"866 951 CURVE SMOOTH",
"732 951 LINE"
);
}
);
};
layerId = "BC722C43-F174-4026-9892-4620CE50CA16";
paths = (
{
closed = 1;
nodes = (
"983 0 LINE SMOOTH",
"1380 0 OFFCURVE",
"1601 162 OFFCURVE",
"1601 454 CURVE SMOOTH",
"1601 625 OFFCURVE",
"1530 732 OFFCURVE",
"1354 810 CURVE",
"1493 875 OFFCURVE",
"1574 1003 OFFCURVE",
"1574 1154 CURVE SMOOTH",
"1574 1445 OFFCURVE",
"1353 1592 OFFCURVE",
"927 1592 CURVE SMOOTH",
"64 1592 LINE",
"64 1247 LINE",
"224 1247 LINE",
"224 345 LINE",
"64 345 LINE",
"64 0 LINE"
);
},
{
closed = 1;
nodes = (
"732 673 LINE",
"887 673 LINE SMOOTH",
"1011 673 OFFCURVE",
"1079 619 OFFCURVE",
"1079 504 CURVE SMOOTH",
"1079 389 OFFCURVE",
"1011 335 OFFCURVE",
"887 335 CURVE SMOOTH",
"732 335 LINE"
);
},
{
closed = 1;
nodes = (
"732 1257 LINE",
"866 1257 LINE SMOOTH",
"986 1257 OFFCURVE",
"1052 1208 OFFCURVE",
"1052 1104 CURVE SMOOTH",
"1052 1000 OFFCURVE",
"986 951 OFFCURVE",
"866 951 CURVE SMOOTH",
"732 951 LINE"
);
}
);
width = 1671;
}
);
unicode = 0042;
userData = {
com.typemytype.robofont.layerData = {
};
};
},
{
color = 3;
glyphname = C;
layers = (
{
anchors = (
{
name = bottom;
position = "{767, 0}";
},
{
name = cedilla;
position = "{903, 0}";
},
{
name = top;
position = "{863, 1592}";
}
);
background = {
paths = (
{
closed = 1;
nodes = (
"1154 -29 OFFCURVE",
"1381 22 OFFCURVE",
"1536 135 CURVE",
"1536 557 LINE",
"1509 569 LINE",
"1378 458 OFFCURVE",
"1222 406 OFFCURVE",
"1064 406 CURVE SMOOTH",
"794 406 OFFCURVE",
"639 561 OFFCURVE",
"639 847 CURVE SMOOTH",
"639 1137 OFFCURVE",
"783 1268 OFFCURVE",
"943 1268 CURVE SMOOTH",
"1088 1268 OFFCURVE",
"1184 1186 OFFCURVE",
"1195 930 CURVE",
"1560 930 LINE",
"1560 1592 LINE",
"1285 1592 LINE",
"1234 1433 LINE",
"1138 1555 OFFCURVE",
"991 1621 OFFCURVE",
"788 1621 CURVE SMOOTH",
"401 1621 OFFCURVE",
"73 1340 OFFCURVE",
"73 831 CURVE SMOOTH",
"73 298 OFFCURVE",
"415 -29 OFFCURVE",
"957 -29 CURVE SMOOTH"
);
}
);
};
layerId = "BC722C43-F174-4026-9892-4620CE50CA16";
paths = (
{
closed = 1;
nodes = (
"1154 -29 OFFCURVE",
"1381 22 OFFCURVE",
"1536 135 CURVE",
"1536 557 LINE",
"1509 569 LINE",
"1378 458 OFFCURVE",
"1222 406 OFFCURVE",
"1064 406 CURVE SMOOTH",
"794 406 OFFCURVE",
"639 561 OFFCURVE",
"639 847 CURVE SMOOTH",
"639 1137 OFFCURVE",
"783 1268 OFFCURVE",
"943 1268 CURVE SMOOTH",
"1088 1268 OFFCURVE",
"1184 1186 OFFCURVE",
"1195 930 CURVE",
"1560 930 LINE",
"1560 1592 LINE",
"1285 1592 LINE",
"1234 1433 LINE",
"1138 1555 OFFCURVE",
"991 1621 OFFCURVE",
"788 1621 CURVE SMOOTH",
"401 1621 OFFCURVE",
"73 1340 OFFCURVE",
"73 831 CURVE SMOOTH",
"73 298 OFFCURVE",
"415 -29 OFFCURVE",
"957 -29 CURVE SMOOTH"
);
}
);
width = 1652;
}
);
leftMetricsKey = O;
unicode = 0043;
userData = {
com.typemytype.robofont.layerData = {
};
};
},
{
color = 4;
glyphname = D;
layers = (
{
anchors = (
{
name = center;
position = "{474, 796}";
},
{
name = top;
position = "{813, 1592}";
}
);
background = {
paths = (
{
closed = 1;
nodes = (
"779 0 LINE SMOOTH",
"1383 0 OFFCURVE",
"1685 283 OFFCURVE",
"1685 794 CURVE SMOOTH",
"1685 1304 OFFCURVE",
"1383 1592 OFFCURVE",
"780 1592 CURVE SMOOTH",
"54 1592 LINE",
"54 1247 LINE",
"214 1247 LINE",
"214 345 LINE",
"54 345 LINE",
"54 0 LINE"
);
},
{
closed = 1;
nodes = (
"734 1247 LINE",
"789 1247 LINE SMOOTH",
"1035 1247 OFFCURVE",
"1119 1106 OFFCURVE",
"1119 797 CURVE SMOOTH",
"1119 488 OFFCURVE",
"1035 345 OFFCURVE",
"789 345 CURVE SMOOTH",
"734 345 LINE"
);
}
);
};
layerId = "BC722C43-F174-4026-9892-4620CE50CA16";
paths = (
{
closed = 1;
nodes = (
"779 0 LINE SMOOTH",
"1373 0 OFFCURVE",
"1685 274 OFFCURVE",
"1685 794 CURVE SMOOTH",
"1685 1315 OFFCURVE",
"1371 1592 OFFCURVE",
"780 1592 CURVE SMOOTH",
"54 1592 LINE",
"54 1247 LINE",
"214 1247 LINE",
"214 345 LINE",
"54 345 LINE",
"54 0 LINE"
);
},
{
closed = 1;
nodes = (
"734 1257 LINE",
"789 1257 LINE SMOOTH",
"1026 1257 OFFCURVE",
"1119 1128 OFFCURVE",
"1119 797 CURVE SMOOTH",
"1119 465 OFFCURVE",
"1026 335 OFFCURVE",
"789 335 CURVE SMOOTH",
"734 335 LINE"
);
}
);
width = 1758;
}
);
leftMetricsKey = I;
rightMetricsKey = O;
unicode = 0044;
userData = {
com.typemytype.robofont.layerData = {
};
};
},
{
color = 4;
glyphname = E;
layers = (
{
anchors = (
{
name = bottom;
position = "{772, 0}";
},
{
name = ogonek;
position = "{1380, 1}";
},
{
name = top;
position = "{772, 1592}";
}
);
background = {
paths = (
{
closed = 1;
nodes = (
"1480 0 LINE",
"1480 677 LINE",
"1150 677 LINE",
"1115 345 LINE",
"732 345 LINE",
"732 642 LINE",
"1002 642 LINE",
"1002 982 LINE",
"732 982 LINE",
"732 1247 LINE",
"1115 1247 LINE",
"1150 959 LINE",
"1480 959 LINE",
"1480 1592 LINE",
"64 1592 LINE",
"64 1247 LINE",
"224 1247 LINE",
"224 345 LINE",
"64 345 LINE",
"64 0 LINE"
);
}
);
};
layerId = "BC722C43-F174-4026-9892-4620CE50CA16";
paths = (
{
closed = 1;
nodes = (
"1480 0 LINE",
"1480 677 LINE",
"1150 677 LINE",
"1115 340 LINE",
"732 340 LINE",
"732 642 LINE",
"1002 642 LINE",
"1002 982 LINE",
"732 982 LINE",
"732 1252 LINE",
"1115 1252 LINE",
"1150 959 LINE",
"1480 959 LINE",
"1480 1592 LINE",
"64 1592 LINE",
"64 1247 LINE",
"224 1247 LINE",
"224 345 LINE",
"64 345 LINE",
"64 0 LINE"
);
}
);
width = 1602;
}
);
unicode = 0045;
userData = {
com.typemytype.robofont.layerData = {
};
};
},
{
color = 4;
glyphname = F;
layers = (
{
background = {
paths = (
{
closed = 1;
nodes = (
"1022 345 LINE",
"732 345 LINE",
"732 642 LINE",
"992 642 LINE",
"992 982 LINE",
"732 982 LINE",
"732 1247 LINE",
"1095 1247 LINE",
"1130 930 LINE",
"1460 930 LINE",
"1460 1592 LINE",
"64 1592 LINE",
"64 1247 LINE",
"224 1247 LINE",
"224 345 LINE",
"64 345 LINE",
"64 0 LINE",
"1022 0 LINE"
);
}
);
};
layerId = "BC722C43-F174-4026-9892-4620CE50CA16";
paths = (
{
closed = 1;
nodes = (
"1022 0 LINE",
"1022 345 LINE",
"732 345 LINE",
"732 642 LINE",
"992 642 LINE",
"992 982 LINE",
"732 982 LINE",
"732 1252 LINE",
"1095 1252 LINE",
"1130 930 LINE",
"1460 930 LINE",
"1460 1592 LINE",
"64 1592 LINE",
"64 1247 LINE",
"224 1247 LINE",
"224 345 LINE",
"64 345 LINE",
"64 0 LINE"
);
}
);
width = 1495;
}
);
unicode = 0046;
userData = {
com.typemytype.robofont.layerData = {
};
};
},
{
color = 4;
glyphname = G;
layers = (
{
anchors = (
{
name = bottom;
position = "{900, 0}";
},
{
name = top;
position = "{900, 1592}";
}
);
background = {
paths = (
{
closed = 1;
nodes = (
"1242 -29 OFFCURVE",
"1491 29 OFFCURVE",
"1644 112 CURVE",
"1644 856 LINE",
"1004 856 LINE",
"1004 556 LINE",
"1194 556 LINE",
"1194 399 LINE",
"1152 385 OFFCURVE",
"1100 378 OFFCURVE",
"1049 378 CURVE SMOOTH",
"786 378 OFFCURVE",
"639 539 OFFCURVE",
"639 832 CURVE SMOOTH",
"639 1132 OFFCURVE",
"791 1268 OFFCURVE",
"978 1268 CURVE SMOOTH",
"1134 1268 OFFCURVE",
"1214 1192 OFFCURVE",
"1240 1013 CURVE",
"1610 1013 LINE",
"1610 1592 LINE",
"1335 1592 LINE",
"1284 1435 LINE",
"1186 1558 OFFCURVE",
"1036 1621 OFFCURVE",
"813 1621 CURVE SMOOTH",
"368 1621 OFFCURVE",
"73 1304 OFFCURVE",
"73 831 CURVE SMOOTH",
"73 303 OFFCURVE",
"435 -29 OFFCURVE",
"1017 -29 CURVE SMOOTH"
);
}
);
};
layerId = "BC722C43-F174-4026-9892-4620CE50CA16";
paths = (
{
closed = 1;
nodes = (
"1242 -29 OFFCURVE",
"1491 29 OFFCURVE",
"1644 112 CURVE",
"1644 856 LINE",
"1004 856 LINE",
"1004 556 LINE",
"1194 556 LINE",
"1194 394 LINE",
"1152 380 OFFCURVE",
"1100 373 OFFCURVE",
"1049 373 CURVE SMOOTH",
"786 373 OFFCURVE",
"639 534 OFFCURVE",
"639 832 CURVE SMOOTH",
"639 1132 OFFCURVE",
"791 1268 OFFCURVE",
"978 1268 CURVE SMOOTH",
"1134 1268 OFFCURVE",
"1214 1192 OFFCURVE",
"1240 1013 CURVE",
"1610 1013 LINE",
"1610 1592 LINE",
"1335 1592 LINE",
"1284 1435 LINE",
"1186 1558 OFFCURVE",
"1036 1621 OFFCURVE",
"813 1621 CURVE SMOOTH",
"368 1621 OFFCURVE",
"73 1304 OFFCURVE",
"73 831 CURVE SMOOTH",
"73 303 OFFCURVE",
"435 -29 OFFCURVE",
"1017 -29 CURVE SMOOTH"
);
}
);
width = 1754;
}
);
leftMetricsKey = O;
unicode = 0047;
userData = {
com.typemytype.robofont.layerData = {
};
};
},
{
color = 3;
glyphname = Germandbls;
layers = (
{
background = {
paths = (
{
closed = 1;
nodes = (
"1455 0 OFFCURVE",
"1676 162 OFFCURVE",
"1676 474 CURVE SMOOTH",
"1676 788 OFFCURVE",
"1428 944 OFFCURVE",
"1050 942 CURVE",
"1076 744 LINE",
"1471 1180 LINE",
"1471 1466 LINE",
"1323 1567 OFFCURVE",
"1095 1623 OFFCURVE",
"863 1623 CURVE SMOOTH",
"451 1623 OFFCURVE",
"208 1448 OFFCURVE",
"208 1072 CURVE SMOOTH",
"208 345 LINE",
"48 345 LINE",
"48 0 LINE",
"851 0 LINE",
"851 335 LINE",
"716 335 LINE",
"716 1051 LINE SMOOTH",
"716 1208 OFFCURVE",
"804 1274 OFFCURVE",
"932 1274 CURVE SMOOTH",
"1010 1274 OFFCURVE",
"1068 1264 OFFCURVE",
"1125 1239 CURVE",
"816 899 LINE",
"816 673 LINE",
"931 673 LINE SMOOTH",
"1086 673 OFFCURVE",
"1154 609 OFFCURVE",
"1154 504 CURVE SMOOTH",
"1154 403 OFFCURVE",
"1097 335 OFFCURVE",
"998 335 CURVE SMOOTH",
"991 335 LINE",
"991 0 LINE",
"1031 0 LINE SMOOTH"
);
}
);
};
layerId = "BC722C43-F174-4026-9892-4620CE50CA16";
paths = (
{
closed = 1;
nodes = (
"851 0 LINE",
"851 345 LINE",
"716 345 LINE",
"716 1031 LINE SMOOTH",
"716 1188 OFFCURVE",
"824 1274 OFFCURVE",
"972 1274 CURVE SMOOTH",
"1050 1274 OFFCURVE",
"1108 1264 OFFCURVE",
"1165 1239 CURVE",
"856 899 LINE",
"856 673 LINE",
"971 673 LINE SMOOTH",
"1126 673 OFFCURVE",
"1194 609 OFFCURVE",
"1194 509 CURVE SMOOTH",
"1194 413 OFFCURVE",
"1137 345 OFFCURVE",
"1038 345 CURVE SMOOTH",
"991 345 LINE",
"991 0 LINE",
"1071 0 LINE SMOOTH",
"1495 0 OFFCURVE",
"1716 162 OFFCURVE",
"1716 474 CURVE SMOOTH",
"1716 788 OFFCURVE",
"1468 944 OFFCURVE",
"1090 942 CURVE",
"1116 744 LINE",
"1511 1180 LINE",
"1511 1466 LINE",
"1363 1567 OFFCURVE",
"1135 1623 OFFCURVE",
"913 1623 CURVE SMOOTH",
"451 1623 OFFCURVE",
"208 1388 OFFCURVE",
"208 972 CURVE SMOOTH",
"208 345 LINE",
"48 345 LINE",
"48 0 LINE"
);
}
);
width = 1771;
}
);
unicode = 1E9E;
},
{
color = 4;
glyphname = H;
layers = (
{
anchors = (
{
name = bottom;
position = "{942, 0}";
},
{
name = center;
position = "{942, 1110}";
},
{
name = top;
position = "{942, 1592}";
}
);
background = {
paths = (
{
closed = 1;
nodes = (
"867 0 LINE",
"867 345 LINE",
"732 345 LINE",
"732 642 LINE",
"1146 642 LINE",
"1146 345 LINE",
"1011 345 LINE",
"1011 0 LINE",
"1814 0 LINE",
"1814 345 LINE",
"1654 345 LINE",
"1654 1247 LINE",
"1814 1247 LINE",
"1814 1592 LINE",
"1011 1592 LINE",
"1011 1247 LINE",
"1146 1247 LINE",
"1146 982 LINE",
"732 982 LINE",
"732 1247 LINE",
"867 1247 LINE",
"867 1592 LINE",
"64 1592 LINE",
"64 1247 LINE",
"224 1247 LINE",
"224 345 LINE",
"64 345 LINE",
"64 0 LINE"
);
}
);
};
layerId = "BC722C43-F174-4026-9892-4620CE50CA16";
paths = (
{
closed = 1;
nodes = (
"867 0 LINE",
"867 345 LINE",
"732 345 LINE",
"732 639 LINE",
"1152 639 LINE",
"1152 345 LINE",
"1017 345 LINE",
"1017 0 LINE",
"1820 0 LINE",
"1820 345 LINE",
"1660 345 LINE",
"1660 1247 LINE",
"1820 1247 LINE",
"1820 1592 LINE",
"1017 1592 LINE",
"1017 1247 LINE",
"1152 1247 LINE",
"1152 967 LINE",
"732 967 LINE",
"732 1247 LINE",
"867 1247 LINE",
"867 1592 LINE",
"64 1592 LINE",
"64 1247 LINE",
"224 1247 LINE",
"224 345 LINE",
"64 345 LINE",
"64 0 LINE"
);
}
);
width = 1884;
}
);
rightMetricsKey = "=|";
unicode = 0048;
userData = {
com.typemytype.robofont.guides = (
);
com.typemytype.robofont.layerData = {
};
};
},
{
color = 3;
glyphname = I;
layers = (
{
anchors = (
{
name = bottom;
position = "{484, 0}";
},
{
name = ogonek;
position = "{744, 0}";
},
{
name = top;
position = "{484, 1592}";
}
);
background = {
paths = (
{
closed = 1;
nodes = (
"904 0 LINE",
"904 345 LINE",
"744 345 LINE",
"744 1247 LINE",
"904 1247 LINE",
"904 1592 LINE",
"64 1592 LINE",
"64 1247 LINE",
"224 1247 LINE",
"224 345 LINE",
"64 345 LINE",
"64 0 LINE"
);
}
);
};
layerId = "BC722C43-F174-4026-9892-4620CE50CA16";
paths = (
{
closed = 1;
nodes = (
"914 0 LINE",
"914 345 LINE",
"744 345 LINE",
"744 1247 LINE",
"914 1247 LINE",
"914 1592 LINE",
"54 1592 LINE",
"54 1247 LINE",
"224 1247 LINE",
"224 345 LINE",
"54 345 LINE",
"54 0 LINE"
);
}
);
width = 968;
}
);
rightMetricsKey = "=|";
unicode = 0049;
userData = {
com.typemytype.robofont.guides = (
);
com.typemytype.robofont.layerData = {
};
};
},
{
color = 3;
glyphname = J;
layers = (
{
anchors = (
{
name = top;
position = "{850, 1592}";
}
);
background = {
paths = (
{
closed = 1;
nodes = (
"923 -30 OFFCURVE",
"1110 167 OFFCURVE",
"1110 475 CURVE SMOOTH",
"1110 1240 LINE",
"1270 1240 LINE",
"1270 1593 LINE",
"406 1593 LINE",
"406 1240 LINE",
"598 1240 LINE",
"598 572 LINE SMOOTH",
"598 458 OFFCURVE",
"541 352 OFFCURVE",
"446 352 CURVE SMOOTH",
"328 352 OFFCURVE",
"310 458 OFFCURVE",
"310 633 CURVE",
"22 633 LINE",
"22 -13 LINE",
"289 -13 LINE",
"326 99 LINE",
"385 26 OFFCURVE",
"481 -30 OFFCURVE",
"614 -30 CURVE SMOOTH"
);
}
);
};
layerId = "BC722C43-F174-4026-9892-4620CE50CA16";
paths = (
{
closed = 1;
nodes = (
"960 -30 OFFCURVE",
"1110 164 OFFCURVE",
"1110 475 CURVE SMOOTH",
"1110 1247 LINE",
"1270 1247 LINE",
"1270 1592 LINE",
"280 1592 LINE",
"280 1247 LINE",
"590 1247 LINE",
"590 565 LINE SMOOTH",
"590 384 OFFCURVE",
"535 324 OFFCURVE",
"454 324 CURVE SMOOTH",
"378 324 OFFCURVE",
"310 384 OFFCURVE",
"310 585 CURVE SMOOTH",
"310 662 LINE",
"20 662 LINE",
"20 0 LINE",
"295 0 LINE",
"335 133 LINE",
"402 27 OFFCURVE",
"536 -30 OFFCURVE",
"684 -30 CURVE SMOOTH"
);
}
);
width = 1323;
}
);
unicode = 004A;
userData = {
com.typemytype.robofont.layerData = {
};
};
},
{
color = 4;
glyphname = K;
layers = (
{
anchors = (
{
name = bottom;
position = "{873, 0}";
},
{
name = top;
position = "{873, 1592}";
}
);
background = {
paths = (
{
closed = 1;
nodes = (
"666 642 LINE",
"859 642 LINE SMOOTH",
"959 642 OFFCURVE",
"1009 592 OFFCURVE",
"1009 482 CURVE SMOOTH",
"1009 348 LINE SMOOTH",
"1009 120 OFFCURVE",
"1130 0 OFFCURVE",
"1375 0 CURVE SMOOTH",
"1723 0 LINE",
"1723 345 LINE",
"1627 345 LINE SMOOTH",
"1558 345 OFFCURVE",
"1530 380 OFFCURVE",
"1530 451 CURVE SMOOTH",
"1530 534 LINE SMOOTH",
"1530 762 OFFCURVE",
"1409 882 OFFCURVE",
"1164 882 CURVE SMOOTH",
"1016 882 LINE",
"988 746 LINE",
"1526 1247 LINE",
"1661 1247 LINE",
"1661 1592 LINE",
"999 1592 LINE",
"999 1247 LINE",
"1124 1247 LINE",
"666 809 LINE"
);
},
{
closed = 1;
nodes = (
"732 1247 LINE",
"857 1247 LINE",
"857 1592 LINE",
"64 1592 LINE",
"64 1247 LINE",
"224 1247 LINE",
"224 345 LINE",
"64 345 LINE",
"64 0 LINE",
"867 0 LINE",
"867 345 LINE",
"732 345 LINE"
);
}
);
};
layerId = "BC722C43-F174-4026-9892-4620CE50CA16";
paths = (
{
closed = 1;
nodes = (
"1737 0 LINE",
"1737 345 LINE",
"1631 345 LINE SMOOTH",
"1562 345 OFFCURVE",
"1534 380 OFFCURVE",
"1534 451 CURVE SMOOTH",
"1534 534 LINE SMOOTH",
"1534 762 OFFCURVE",
"1413 882 OFFCURVE",
"1168 882 CURVE SMOOTH",
"1020 882 LINE",
"992 755 LINE",
"1526 1247 LINE",
"1661 1247 LINE",
"1661 1592 LINE",
"1003 1592 LINE",
"1003 1247 LINE",
"1124 1247 LINE",
"670 814 LINE",
"670 641 LINE",
"863 641 LINE SMOOTH",
"963 641 OFFCURVE",
"1013 591 OFFCURVE",
"1013 481 CURVE SMOOTH",
"1013 348 LINE SMOOTH",
"1013 120 OFFCURVE",
"1134 0 OFFCURVE",
"1379 0 CURVE SMOOTH"
);
},
{
closed = 1;
nodes = (
"867 0 LINE",
"867 345 LINE",
"732 345 LINE",
"732 1247 LINE",
"853 1247 LINE",
"853 1592 LINE",
"64 1592 LINE",
"64 1247 LINE",
"224 1247 LINE",
"224 345 LINE",
"64 345 LINE",
"64 0 LINE"
);
}
);
width = 1752;
}
);
unicode = 004B;
userData = {
com.typemytype.robofont.layerData = {
};
};
},
{
color = 4;
glyphname = L;
layers = (
{
anchors = (
{
name = bottom;
position = "{752, 0}";
},
{
name = center;
position = "{484, 790}";
},
{
name = top;
position = "{484, 1592}";
},
{
name = topright;
position = "{1064, 1592}";
}
);
background = {
paths = (
{
closed = 1;
nodes = (
"64 1592 LINE",
"64 1247 LINE",
"224 1247 LINE",
"224 345 LINE",
"64 345 LINE",
"64 0 LINE",
"1440 0 LINE",
"1440 713 LINE",
"1110 713 LINE",
"1070 345 LINE",
"744 345 LINE",
"744 1247 LINE",
"904 1247 LINE",
"904 1592 LINE"
);
}
);
};
layerId = "BC722C43-F174-4026-9892-4620CE50CA16";
paths = (
{
closed = 1;
nodes = (
"1440 0 LINE",
"1440 713 LINE",
"1110 713 LINE",
"1070 340 LINE",
"744 340 LINE",
"744 1247 LINE",
"964 1247 LINE",
"964 1592 LINE",
"64 1592 LINE",
"64 1247 LINE",
"224 1247 LINE",
"224 345 LINE",
"64 345 LINE",
"64 0 LINE"
);
}
);
width = 1485;
}
);
unicode = 004C;
userData = {
com.typemytype.robofont.layerData = {
};
};
},
{
color = 4;
glyphname = M;
layers = (
{
anchors = (
{
name = bottom;
position = "{1183, 0}";
},
{
name = top;
position = "{1183, 1592}";
}
);
background = {
paths = (
{
closed = 1;
nodes = (
"690 0 LINE",
"690 345 LINE",
"550 345 LINE",
"550 1180 LINE",
"512 1103 LINE",
"948 0 LINE",
"1236 0 LINE",
"1672 1103 LINE",
"1634 1180 LINE",
"1634 345 LINE",
"1494 345 LINE",
"1494 0 LINE",
"2312 0 LINE",
"2312 345 LINE",
"2142 345 LINE",
"2142 1247 LINE",
"2312 1247 LINE",
"2312 1592 LINE",
"1564 1592 LINE",
"1123 489 LINE",
"1331 489 LINE",
"890 1592 LINE",
"54 1592 LINE",
"54 1247 LINE",
"224 1247 LINE",
"224 345 LINE",
"54 345 LINE",
"54 0 LINE"
);
}
);
};
guideLines = (
{
position = "{883, 1014}";
}
);
layerId = "BC722C43-F174-4026-9892-4620CE50CA16";
paths = (
{
closed = 1;
nodes = (
"690 0 LINE",
"690 345 LINE",
"550 345 LINE",
"550 1180 LINE",
"512 1103 LINE",
"948 0 LINE",
"1232 0 LINE",
"1668 1103 LINE",
"1630 1180 LINE",
"1630 345 LINE",
"1490 345 LINE",
"1490 0 LINE",
"2293 0 LINE",
"2293 345 LINE",
"2133 345 LINE",
"2133 1247 LINE",
"2293 1247 LINE",
"2293 1592 LINE",
"1560 1592 LINE",
"1119 489 LINE",
"1302 489 LINE",
"875 1592 LINE",
"64 1592 LINE",
"64 1247 LINE",
"224 1247 LINE",
"224 345 LINE",
"64 345 LINE",
"64 0 LINE"
);
}
);
width = 2357;
}
);
unicode = 004D;
userData = {
com.typemytype.robofont.layerData = {
};
};
},
{
color = 4;
glyphname = N;
layers = (
{
anchors = (
{
name = bottom;
position = "{939, 0}";
},
{
name = top;
position = "{939, 1592}";
}
);
background = {
paths = (
{
closed = 1;
nodes = (
"3198 0 LINE",
"3198 359 LINE",
"3040 359 LINE",
"3040 878 LINE",
"3513 0 LINE",
"4119 0 LINE",
"4119 1240 LINE",
"4277 1240 LINE",
"4277 1592 LINE",
"3640 1592 LINE",
"3640 1240 LINE",
"3798 1240 LINE",
"3798 647 LINE",
"3302 1593 LINE",
"2567 1593 LINE",
"2567 1242 LINE",
"2724 1242 LINE",
"2724 359 LINE",
"2561 359 LINE",
"2561 0 LINE"
);
},
{
closed = 1;
nodes = (
"867 0 LINE",
"867 345 LINE",
"732 345 LINE",
"732 642 LINE",
"1146 642 LINE",
"1146 345 LINE",
"1011 345 LINE",
"1011 0 LINE",
"1814 0 LINE",
"1814 345 LINE",
"1654 345 LINE",
"1654 1247 LINE",
"1814 1247 LINE",
"1814 1592 LINE",
"1011 1592 LINE",
"1011 1247 LINE",
"1146 1247 LINE",
"1146 982 LINE",
"732 982 LINE",
"732 1247 LINE",
"867 1247 LINE",
"867 1592 LINE",
"64 1592 LINE",
"64 1247 LINE",
"224 1247 LINE",
"224 345 LINE",
"64 345 LINE",
"64 0 LINE"
);
}
);
};
layerId = "BC722C43-F174-4026-9892-4620CE50CA16";
paths = (
{
closed = 1;
nodes = (
"1654 0 LINE",
"1654 1247 LINE",
"1814 1247 LINE",
"1814 1592 LINE",
"1168 1592 LINE",
"1168 1247 LINE",
"1328 1247 LINE",
"1328 412 LINE",
"1397 567 LINE",
"779 1592 LINE",
"64 1592 LINE",
"64 1247 LINE",
"224 1247 LINE",
"224 345 LINE",
"64 345 LINE",
"64 0 LINE",
"710 0 LINE",
"710 345 LINE",
"550 345 LINE",
"550 1180 LINE",
"481 1025 LINE",
"1097 -1 LINE"
);
}
);
width = 1878;
}
);
unicode = 004E;
},
{
color = 3;
glyphname = O;
layers = (
{
anchors = (
{
name = bottom;
position = "{873, 0}";
},
{
name = center;
position = "{873, 796}";
},
{
name = ogonek;
position = "{994, 0}";
},
{
name = top;
position = "{873, 1592}";
},
{
name = topleft;
position = "{20, 1592}";
},
{
name = topright;
position = "{1726, 1592}";
}
);
background = {
paths = (
{
closed = 1;
nodes = (
"1368 -29 OFFCURVE",
"1673 285 OFFCURVE",
"1673 794 CURVE SMOOTH",
"1673 1306 OFFCURVE",
"1368 1621 OFFCURVE",
"873 1621 CURVE SMOOTH",
"378 1621 OFFCURVE",
"73 1306 OFFCURVE",
"73 794 CURVE SMOOTH",
"73 285 OFFCURVE",
"378 -29 OFFCURVE",
"873 -29 CURVE SMOOTH"
);
},
{
closed = 1;
nodes = (
"724 326 OFFCURVE",
"639 488 OFFCURVE",
"639 797 CURVE SMOOTH",
"639 1106 OFFCURVE",
"724 1268 OFFCURVE",
"873 1268 CURVE SMOOTH",
"1022 1268 OFFCURVE",
"1107 1106 OFFCURVE",
"1107 797 CURVE SMOOTH",
"1107 488 OFFCURVE",
"1022 326 OFFCURVE",
"873 326 CURVE SMOOTH"
);
}
);
};
layerId = "BC722C43-F174-4026-9892-4620CE50CA16";
paths = (
{
closed = 1;
nodes = (
"1368 -29 OFFCURVE",
"1673 285 OFFCURVE",
"1673 794 CURVE SMOOTH",
"1673 1306 OFFCURVE",
"1368 1621 OFFCURVE",
"873 1621 CURVE SMOOTH",
"378 1621 OFFCURVE",
"73 1306 OFFCURVE",
"73 794 CURVE SMOOTH",
"73 285 OFFCURVE",
"378 -29 OFFCURVE",
"873 -29 CURVE SMOOTH"
);
},
{
closed = 1;
nodes = (
"724 316 OFFCURVE",
"641 481 OFFCURVE",
"641 797 CURVE SMOOTH",
"641 1113 OFFCURVE",
"724 1278 OFFCURVE",
"873 1278 CURVE SMOOTH",
"1022 1278 OFFCURVE",
"1105 1113 OFFCURVE",
"1105 797 CURVE SMOOTH",
"1105 481 OFFCURVE",
"1022 316 OFFCURVE",
"873 316 CURVE SMOOTH"
);
}
);
width = 1746;
}
);
rightMetricsKey = "=|";
unicode = 004F;
userData = {
com.typemytype.robofont.layerData = {
};
};
},
{
color = 4;
glyphname = P;
layers = (
{
background = {
paths = (
{
closed = 1;
nodes = (
"1022 0 LINE",
"1022 345 LINE",
"732 345 LINE",
"732 592 LINE",
"933 592 LINE SMOOTH",
"1357 592 OFFCURVE",
"1581 761 OFFCURVE",
"1581 1087 CURVE SMOOTH",
"1581 1423 OFFCURVE",
"1357 1592 OFFCURVE",
"923 1592 CURVE SMOOTH",
"64 1592 LINE",
"64 1247 LINE",
"224 1247 LINE",
"224 345 LINE",
"64 345 LINE",
"64 0 LINE"
);
},
{
closed = 1;
nodes = (
"865 1247 LINE SMOOTH",
"991 1247 OFFCURVE",
"1059 1193 OFFCURVE",
"1059 1077 CURVE SMOOTH",
"1059 961 OFFCURVE",
"991 907 OFFCURVE",
"855 907 CURVE SMOOTH",
"732 907 LINE",
"732 1247 LINE"
);
}
);
};
layerId = "BC722C43-F174-4026-9892-4620CE50CA16";
paths = (
{
closed = 1;
nodes = (
"1022 0 LINE",
"1022 345 LINE",
"732 345 LINE",
"732 592 LINE",
"933 592 LINE SMOOTH",
"1357 592 OFFCURVE",
"1581 761 OFFCURVE",
"1581 1087 CURVE SMOOTH",
"1581 1423 OFFCURVE",
"1357 1592 OFFCURVE",
"923 1592 CURVE SMOOTH",
"64 1592 LINE",
"64 1247 LINE",
"224 1247 LINE",
"224 345 LINE",
"64 345 LINE",
"64 0 LINE"
);
},
{
closed = 1;
nodes = (
"732 1257 LINE",
"865 1257 LINE SMOOTH",
"991 1257 OFFCURVE",
"1059 1203 OFFCURVE",
"1059 1077 CURVE SMOOTH",
"1059 951 OFFCURVE",
"991 897 OFFCURVE",
"855 897 CURVE SMOOTH",
"732 897 LINE"
);
}
);
width = 1625;
}
);
unicode = 0050;
},
{
color = 3;
glyphname = Q;
layers = (
{
background = {
paths = (
{
closed = 1;
nodes = (
"3068 -29 OFFCURVE",
"3373 285 OFFCURVE",
"3373 794 CURVE SMOOTH",
"3373 1306 OFFCURVE",
"3068 1621 OFFCURVE",
"2573 1621 CURVE SMOOTH",
"2078 1621 OFFCURVE",
"1773 1306 OFFCURVE",
"1773 794 CURVE SMOOTH",
"1773 285 OFFCURVE",
"2078 -29 OFFCURVE",
"2573 -29 CURVE SMOOTH"
);
},
{
closed = 1;
nodes = (
"2424 306 OFFCURVE",
"2339 488 OFFCURVE",
"2339 797 CURVE SMOOTH",
"2339 1106 OFFCURVE",
"2424 1268 OFFCURVE",
"2573 1268 CURVE SMOOTH",
"2722 1268 OFFCURVE",
"2807 1106 OFFCURVE",
"2807 797 CURVE SMOOTH",
"2807 488 OFFCURVE",
"2722 306 OFFCURVE",
"2573 306 CURVE SMOOTH"
);
},
{
closed = 1;
nodes = (
"2608 622 OFFCURVE",
"2649 583 OFFCURVE",
"2672 482 CURVE SMOOTH",
"2702 348 LINE SMOOTH",
"2756 109 OFFCURVE",
"2890 0 OFFCURVE",
"3128 0 CURVE SMOOTH",
"3466 0 LINE",
"3466 345 LINE",
"3130 345 LINE SMOOTH",
"3045 345 OFFCURVE",
"2998 379 OFFCURVE",
"2983 451 CURVE SMOOTH",
"2958 571 LINE SMOOTH",
"2919 760 OFFCURVE",
"2816 842 OFFCURVE",
"2637 842 CURVE SMOOTH",
"2509 842 OFFCURVE",
"2404 791 OFFCURVE",
"2342 704 CURVE",
"2340 733 OFFCURVE",
"2339 765 OFFCURVE",
"2339 797 CURVE SMOOTH",
"2339 1106 OFFCURVE",
"2424 1268 OFFCURVE",
"2573 1268 CURVE SMOOTH",
"2722 1268 OFFCURVE",
"2807 1106 OFFCURVE",
"2807 797 CURVE SMOOTH",
"2807 488 OFFCURVE",
"2722 306 OFFCURVE",
"2573 306 CURVE SMOOTH",
"2498 306 OFFCURVE",
"2438 353 OFFCURVE",
"2399 439 CURVE",
"2389 537 OFFCURVE",
"2448 622 OFFCURVE",
"2542 622 CURVE SMOOTH"
);
},
{
closed = 1;
nodes = (
"1368 -29 OFFCURVE",
"1673 285 OFFCURVE",
"1673 794 CURVE SMOOTH",
"1673 1306 OFFCURVE",
"1368 1621 OFFCURVE",
"873 1621 CURVE SMOOTH",
"378 1621 OFFCURVE",
"73 1306 OFFCURVE",
"73 794 CURVE SMOOTH",
"73 285 OFFCURVE",
"378 -29 OFFCURVE",
"873 -29 CURVE SMOOTH"
);
},
{
closed = 1;
nodes = (
"724 316 OFFCURVE",
"641 481 OFFCURVE",
"641 797 CURVE SMOOTH",
"641 1113 OFFCURVE",
"724 1278 OFFCURVE",
"873 1278 CURVE SMOOTH",
"1022 1278 OFFCURVE",
"1105 1113 OFFCURVE",
"1105 797 CURVE SMOOTH",
"1105 481 OFFCURVE",
"1022 316 OFFCURVE",
"873 316 CURVE SMOOTH"
);
}
);
};
layerId = "BC722C43-F174-4026-9892-4620CE50CA16";
paths = (
{
closed = 1;
nodes = (
"1328 -29 OFFCURVE",
"1673 305 OFFCURVE",
"1673 794 CURVE SMOOTH",
"1673 1306 OFFCURVE",
"1368 1621 OFFCURVE",
"873 1621 CURVE SMOOTH",
"378 1621 OFFCURVE",
"73 1306 OFFCURVE",
"73 794 CURVE SMOOTH",
"73 285 OFFCURVE",
"378 -29 OFFCURVE",
"863 -29 CURVE SMOOTH"
);
},
{
closed = 1;
nodes = (
"1766 0 LINE",
"1766 345 LINE",
"1430 345 LINE SMOOTH",
"1329 345 OFFCURVE",
"1279 376 OFFCURVE",
"1263 451 CURVE SMOOTH",
"1238 571 LINE SMOOTH",
"1200 753 OFFCURVE",
"1099 852 OFFCURVE",
"930 852 CURVE SMOOTH",
"739 852 OFFCURVE",
"603 720 OFFCURVE",
"603 541 CURVE",
"657 573 LINE",
"644 644 OFFCURVE",
"638 717 OFFCURVE",
"638 797 CURVE SMOOTH",
"638 1113 OFFCURVE",
"722 1278 OFFCURVE",
"873 1278 CURVE SMOOTH",
"1024 1278 OFFCURVE",
"1110 1113 OFFCURVE",
"1110 797 CURVE SMOOTH",
"1110 466 OFFCURVE",
"1044 311 OFFCURVE",
"876 311 CURVE SMOOTH",
"774 311 OFFCURVE",
"700 372 OFFCURVE",
"700 466 CURVE SMOOTH",
"700 561 OFFCURVE",
"757 622 OFFCURVE",
"839 622 CURVE SMOOTH",
"909 622 OFFCURVE",
"948 580 OFFCURVE",
"974 473 CURVE SMOOTH",
"1005 348 LINE SMOOTH",
"1064 109 OFFCURVE",
"1230 0 OFFCURVE",
"1508 0 CURVE SMOOTH"
);
}
);
width = 1786;
}
);
leftMetricsKey = O;
unicode = 0051;
},
{
color = 4;
glyphname = R;
layers = (
{
anchors = (
{
name = bottom;
position = "{879, 0}";
},
{
name = top;
position = "{879, 1592}";
}
);
background = {
paths = (
{
closed = 1;
nodes = (
"732 1247 LINE",
"887 1247 LINE SMOOTH",
"1011 1247 OFFCURVE",
"1079 1193 OFFCURVE",
"1079 1083 CURVE SMOOTH",
"1079 973 OFFCURVE",
"1011 919 OFFCURVE",
"887 919 CURVE SMOOTH",
"670 919 LINE",
"670 641 LINE",
"863 641 LINE SMOOTH",
"963 641 OFFCURVE",
"1013 591 OFFCURVE",
"1013 481 CURVE SMOOTH",
"1013 348 LINE SMOOTH",
"1013 120 OFFCURVE",
"1134 0 OFFCURVE",
"1379 0 CURVE SMOOTH",
"1737 0 LINE",
"1737 345 LINE",
"1631 345 LINE SMOOTH",
"1562 345 OFFCURVE",
"1534 380 OFFCURVE",
"1534 451 CURVE SMOOTH",
"1534 534 LINE SMOOTH",
"1534 712 OFFCURVE",
"1413 818 OFFCURVE",
"1158 818 CURVE",
"1158 764 LINE",
"1420 764 OFFCURVE",
"1601 902 OFFCURVE",
"1601 1154 CURVE SMOOTH",
"1601 1440 OFFCURVE",
"1380 1592 OFFCURVE",
"983 1592 CURVE SMOOTH",
"64 1592 LINE",
"64 1247 LINE",
"224 1247 LINE",
"224 345 LINE",
"64 345 LINE",
"64 0 LINE",
"867 0 LINE",
"867 345 LINE",
"732 345 LINE"
);
}
);
};
layerId = "BC722C43-F174-4026-9892-4620CE50CA16";
paths = (
{
closed = 1;
nodes = (
"867 0 LINE",
"867 345 LINE",
"732 345 LINE",
"732 1257 LINE",
"887 1257 LINE SMOOTH",
"1011 1257 OFFCURVE",
"1079 1203 OFFCURVE",
"1079 1088 CURVE SMOOTH",
"1079 973 OFFCURVE",
"1011 919 OFFCURVE",
"887 919 CURVE SMOOTH",
"670 919 LINE",
"670 641 LINE",
"863 641 LINE SMOOTH",
"963 641 OFFCURVE",
"1013 591 OFFCURVE",
"1013 481 CURVE SMOOTH",
"1013 348 LINE SMOOTH",
"1013 120 OFFCURVE",
"1134 0 OFFCURVE",
"1379 0 CURVE SMOOTH",
"1737 0 LINE",
"1737 345 LINE",
"1631 345 LINE SMOOTH",
"1562 345 OFFCURVE",
"1534 380 OFFCURVE",
"1534 451 CURVE SMOOTH",
"1534 534 LINE SMOOTH",
"1534 712 OFFCURVE",
"1413 818 OFFCURVE",
"1158 818 CURVE",
"1158 764 LINE",
"1420 764 OFFCURVE",
"1601 902 OFFCURVE",
"1601 1154 CURVE SMOOTH",
"1601 1440 OFFCURVE",
"1380 1592 OFFCURVE",
"983 1592 CURVE SMOOTH",
"64 1592 LINE",
"64 1247 LINE",
"224 1247 LINE",
"224 345 LINE",
"64 345 LINE",
"64 0 LINE"
);
}
);
width = 1752;
}
);
unicode = 0052;
userData = {
com.typemytype.robofont.layerData = {
};
};
},
{
color = 3;
glyphname = S;
layers = (
{
anchors = (
{
name = bottom;
position = "{870, 0}";
},
{
name = cedilla;
position = "{836, 0}";
},
{
name = top;
position = "{820, 1592}";
}
);
background = {
paths = (
{
closed = 1;
nodes = (
"2914 -29 OFFCURVE",
"3113 203 OFFCURVE",
"3113 501 CURVE SMOOTH",
"3113 873 OFFCURVE",
"2849 990 OFFCURVE",
"2537 1062 CURVE SMOOTH",
"2437 1085 OFFCURVE",
"2327 1112 OFFCURVE",
"2327 1183 CURVE SMOOTH",
"2327 1242 OFFCURVE",
"2380 1275 OFFCURVE",
"2473 1275 CURVE SMOOTH",
"2592 1275 OFFCURVE",
"2654 1238 OFFCURVE",
"2710 1117 CURVE",
"3017 1117 LINE",
"3017 1593 LINE",
"2732 1593 LINE",
"2681 1500 LINE",
"2609 1576 OFFCURVE",
"2507 1623 OFFCURVE",
"2375 1623 CURVE SMOOTH",
"2055 1623 OFFCURVE",
"1859 1423 OFFCURVE",
"1859 1133 CURVE SMOOTH",
"1859 735 OFFCURVE",
"2128 626 OFFCURVE",
"2451 538 CURVE SMOOTH",
"2524 518 OFFCURVE",
"2611 494 OFFCURVE",
"2611 420 CURVE SMOOTH",
"2611 364 OFFCURVE",
"2544 334 OFFCURVE",
"2472 334 CURVE SMOOTH",
"2354 334 OFFCURVE",
"2261 368 OFFCURVE",
"2218 488 CURVE",
"1896 488 LINE",
"1896 0 LINE",
"2219 0 LINE",
"2255 92 LINE",
"2357 11 OFFCURVE",
"2433 -29 OFFCURVE",
"2606 -29 CURVE SMOOTH"
);
},
{
closed = 1;
nodes = (
"1265 -29 OFFCURVE",
"1489 162 OFFCURVE",
"1489 469 CURVE SMOOTH",
"1489 1053 OFFCURVE",
"569 983 OFFCURVE",
"569 1211 CURVE SMOOTH",
"569 1286 OFFCURVE",
"637 1323 OFFCURVE",
"746 1323 CURVE SMOOTH",
"909 1323 OFFCURVE",
"1031 1236 OFFCURVE",
"1070 1085 CURVE",
"1455 1085 LINE",
"1455 1592 LINE",
"1180 1592 LINE",
"1129 1425 LINE",
"1033 1555 OFFCURVE",
"886 1621 OFFCURVE",
"687 1623 CURVE SMOOTH",
"289 1626 OFFCURVE",
"77 1431 OFFCURVE",
"77 1142 CURVE SMOOTH",
"77 541 OFFCURVE",
"967 648 OFFCURVE",
"967 383 CURVE SMOOTH",
"967 307 OFFCURVE",
"914 271 OFFCURVE",
"810 271 CURVE SMOOTH",
"602 271 OFFCURVE",
"465 383 OFFCURVE",
"440 558 CURVE",
"67 558 LINE",
"67 0 LINE",
"342 0 LINE",
"393 167 LINE",
"492 32 OFFCURVE",
"654 -29 OFFCURVE",
"900 -29 CURVE SMOOTH"
);
}
);
};
layerId = "BC722C43-F174-4026-9892-4620CE50CA16";
paths = (
{
closed = 1;
nodes = (
"1276 -29 OFFCURVE",
"1499 163 OFFCURVE",
"1499 481 CURVE SMOOTH",
"1499 1191 OFFCURVE",
"591 948 OFFCURVE",
"591 1203 CURVE SMOOTH",
"591 1281 OFFCURVE",
"660 1323 OFFCURVE",
"768 1323 CURVE SMOOTH",
"920 1323 OFFCURVE",
"1045 1235 OFFCURVE",
"1084 1076 CURVE",
"1465 1076 LINE",
"1465 1592 LINE",
"1190 1592 LINE",
"1139 1435 LINE",
"1043 1555 OFFCURVE",
"896 1621 OFFCURVE",
"669 1623 CURVE SMOOTH",
"289 1626 OFFCURVE",
"62 1421 OFFCURVE",
"62 1120 CURVE SMOOTH",
"62 391 OFFCURVE",
"970 683 OFFCURVE",
"970 393 CURVE SMOOTH",
"970 317 OFFCURVE",
"909 271 OFFCURVE",
"801 271 CURVE SMOOTH",
"603 271 OFFCURVE",
"465 381 OFFCURVE",
"440 536 CURVE",
"67 536 LINE",
"67 0 LINE",
"342 0 LINE",
"393 157 LINE",
"491 43 OFFCURVE",
"652 -29 OFFCURVE",
"905 -29 CURVE SMOOTH"
);
}
);
width = 1561;
}
);
rightMetricsKey = "=|";
unicode = 0053;
},
{
color = 4;
glyphname = T;
layers = (
{
anchors = (
{
name = bottom;
position = "{855, 0}";
},
{
name = cedilla;
position = "{865, 0}";
},
{
name = center;
position = "{855, 776}";
},
{
name = top;
position = "{855, 1592}";
}
);
background = {
paths = (
{
closed = 1;
nodes = (
"46 1592 LINE",
"46 930 LINE",
"376 930 LINE",
"416 1247 LINE",
"595 1247 LINE",
"595 345 LINE",
"305 345 LINE",
"305 0 LINE",
"1405 0 LINE",
"1405 345 LINE",
"1115 345 LINE",
"1115 1247 LINE",
"1294 1247 LINE",
"1334 930 LINE",
"1664 930 LINE",
"1664 1592 LINE"
);
}
);
};
layerId = "BC722C43-F174-4026-9892-4620CE50CA16";
paths = (
{
closed = 1;
nodes = (
"1405 0 LINE",
"1405 345 LINE",
"1115 345 LINE",
"1115 1267 LINE",
"1294 1267 LINE",
"1334 930 LINE",
"1664 930 LINE",
"1664 1592 LINE",
"46 1592 LINE",
"46 930 LINE",
"376 930 LINE",
"416 1267 LINE",
"595 1267 LINE",
"595 345 LINE",
"305 345 LINE",
"305 0 LINE"
);
}
);
width = 1710;
}
);
rightMetricsKey = "=|";
unicode = 0054;
},
{
color = 3;
glyphname = U;
layers = (
{
anchors = (
{
name = bottom;
position = "{915, 0}";
},
{
name = ogonek;
position = "{1164, 0}";
},
{
name = top;
position = "{915, 1592}";
}
);
background = {
paths = (
{
closed = 1;
nodes = (
"3327 -29 OFFCURVE",
"3590 151 OFFCURVE",
"3590 550 CURVE SMOOTH",
"3590 1240 LINE",
"3744 1240 LINE",
"3744 1592 LINE",
"3090 1592 LINE",
"3090 1240 LINE",
"3254 1240 LINE",
"3254 536 LINE SMOOTH",
"3254 417 OFFCURVE",
"3182 346 OFFCURVE",
"3068 346 CURVE SMOOTH",
"2922 346 OFFCURVE",
"2869 448 OFFCURVE",
"2869 570 CURVE SMOOTH",
"2869 1240 LINE",
"3017 1240 LINE",
"3017 1592 LINE",
"2148 1592 LINE",
"2148 1240 LINE",
"2309 1240 LINE",
"2309 704 LINE SMOOTH",
"2309 245 OFFCURVE",
"2488 -29 OFFCURVE",
"2979 -29 CURVE SMOOTH"
);
},
{
closed = 1;
nodes = (
"863 0 LINE",
"863 345 LINE",
"728 345 LINE",
"728 642 LINE",
"1142 642 LINE",
"1142 345 LINE",
"1007 345 LINE",
"1007 0 LINE",
"1810 0 LINE",
"1810 345 LINE",
"1650 345 LINE",
"1650 1247 LINE",
"1810 1247 LINE",
"1810 1592 LINE",
"1007 1592 LINE",
"1007 1247 LINE",
"1142 1247 LINE",
"1142 962 LINE",
"728 962 LINE",
"728 1247 LINE",
"863 1247 LINE",
"863 1592 LINE",
"60 1592 LINE",
"60 1247 LINE",
"220 1247 LINE",
"220 345 LINE",
"60 345 LINE",
"60 0 LINE"
);
}
);
};
layerId = "BC722C43-F174-4026-9892-4620CE50CA16";
paths = (
{
closed = 1;
nodes = (
"1354 -29 OFFCURVE",
"1572 198 OFFCURVE",
"1572 645 CURVE SMOOTH",
"1572 1247 LINE",
"1732 1247 LINE",
"1732 1592 LINE",
"1073 1592 LINE",
"1073 1247 LINE",
"1238 1247 LINE",
"1238 684 LINE SMOOTH",
"1238 481 OFFCURVE",
"1157 368 OFFCURVE",
"990 368 CURVE SMOOTH",
"812 368 OFFCURVE",
"728 477 OFFCURVE",
"728 684 CURVE SMOOTH",
"728 1247 LINE",
"893 1247 LINE",
"893 1592 LINE",
"48 1592 LINE",
"48 1247 LINE",
"208 1247 LINE",
"208 685 LINE SMOOTH",
"208 186 OFFCURVE",
"466 -29 OFFCURVE",
"916 -29 CURVE SMOOTH"
);
}
);
width = 1780;
}
);
rightMetricsKey = "=|";
unicode = 0055;
},
{
color = 3;
glyphname = V;
layers = (
{
background = {
paths = (
{
closed = 1;
nodes = (
"1144 0 LINE",
"1543 1240 LINE",
"1723 1240 LINE",
"1723 1592 LINE",
"1029 1592 LINE",
"1029 1239 LINE",
"1159 1239 LINE",
"984 517 LINE",
"782 1240 LINE",
"898 1240 LINE",
"898 1592 LINE",
"33 1592 LINE",
"33 1240 LINE",
"199 1240 LINE",
"560 0 LINE"
);
}
);
};
layerId = "BC722C43-F174-4026-9892-4620CE50CA16";
paths = (
{
closed = 1;
nodes = (
"1220 0 LINE",
"1613 1247 LINE",
"1758 1247 LINE",
"1758 1592 LINE",
"1093 1592 LINE",
"1093 1247 LINE",
"1258 1247 LINE",
"964 217 LINE",
"1042 217 LINE",
"748 1247 LINE",
"913 1247 LINE",
"913 1592 LINE",
"14 1592 LINE",
"14 1247 LINE",
"159 1247 LINE",
"553 0 LINE"
);
}
);
width = 1772;
}
);
rightMetricsKey = "=|";
unicode = 0056;
},
{
color = 3;
glyphname = W;
layers = (
{
anchors = (
{
name = top;
position = "{1464, 1592}";
}
);
background = {
paths = (
{
closed = 1;
nodes = (
"2011 1247 LINE",
"2177 1247 LINE",
"1892 217 LINE",
"2042 217 LINE",
"1660 1589 LINE",
"1661 1592 LINE",
"1267 1592 LINE",
"868 217 LINE",
"1026 217 LINE",
"748 1247 LINE",
"913 1247 LINE",
"913 1592 LINE",
"19 1592 LINE",
"19 1247 LINE",
"164 1247 LINE",
"542 0 LINE",
"1126 0 LINE",
"1407 929 LINE",
"1299 929 LINE",
"1574 0 LINE",
"2150 0 LINE",
"2528 1247 LINE",
"2673 1247 LINE",
"2673 1592 LINE",
"2011 1592 LINE"
);
}
);
};
layerId = "BC722C43-F174-4026-9892-4620CE50CA16";
paths = (
{
closed = 1;
nodes = (
"1126 0 LINE",
"1407 929 LINE",
"1299 929 LINE",
"1576 0 LINE",
"2150 0 LINE",
"2528 1247 LINE",
"2673 1247 LINE",
"2673 1592 LINE",
"2011 1592 LINE",
"2011 1247 LINE",
"2177 1247 LINE",
"1892 207 LINE",
"2042 207 LINE",
"1660 1592 LINE",
"1267 1592 LINE",
"868 207 LINE",
"1026 207 LINE",
"748 1247 LINE",
"913 1247 LINE",
"913 1592 LINE",
"19 1592 LINE",
"19 1247 LINE",
"164 1247 LINE",
"542 0 LINE"
);
}
);
width = 2692;
}
);
rightMetricsKey = "=|";
unicode = 0057;
},
{
color = 3;
glyphname = X;
layers = (
{
background = {
paths = (
{
closed = 1;
nodes = (
"1187 697 LINE",
"1612 1248 LINE",
"1757 1248 LINE",
"1757 1593 LINE",
"1109 1593 LINE",
"1109 1248 LINE",
"1212 1248 LINE",
"787 697 LINE"
);
},
{
closed = 1;
nodes = (
"584 896 LINE",
"159 345 LINE",
"14 345 LINE",
"14 0 LINE",
"724 0 LINE",
"724 345 LINE",
"559 345 LINE",
"983 896 LINE"
);
},
{
closed = 1;
nodes = (
"866 1248 LINE",
"969 1248 LINE",
"969 1593 LINE",
"56 1593 LINE",
"56 1248 LINE",
"201 1248 LINE",
"1029 345 LINE",
"864 345 LINE",
"864 0 LINE",
"1839 0 LINE",
"1839 345 LINE",
"1694 345 LINE"
);
}
);
};
layerId = "BC722C43-F174-4026-9892-4620CE50CA16";
paths = (
{
closed = 1;
nodes = (
"1839 0 LINE",
"1839 345 LINE",
"1694 345 LINE",
"866 1248 LINE",
"967 1248 LINE",
"967 1593 LINE",
"56 1593 LINE",
"56 1248 LINE",
"201 1248 LINE",
"1029 345 LINE",
"866 345 LINE",
"866 0 LINE"
);
},
{
closed = 1;
nodes = (
"722 0 LINE",
"722 345 LINE",
"554 345 LINE",
"958 896 LINE",
"584 896 LINE",
"159 345 LINE",
"14 345 LINE",
"14 0 LINE"
);
},
{
closed = 1;
nodes = (
"1187 697 LINE",
"1612 1248 LINE",
"1757 1248 LINE",
"1757 1593 LINE",
"1111 1593 LINE",
"1111 1248 LINE",
"1217 1248 LINE",
"812 697 LINE"
);
}
);
width = 1853;
}
);
unicode = 0058;
},
{
color = 3;
glyphname = Y;
layers = (
{
anchors = (
{
name = bottom;
position = "{864, 0}";
},
{
name = top;
position = "{864, 1592}";
},
{
name = topleft;
position = "{-64, 1592}";
}
);
background = {
paths = (
{
closed = 1;
nodes = (
"3252 0 LINE",
"3252 359 LINE",
"3095 359 LINE",
"3095 704 LINE",
"3404 1240 LINE",
"3583 1240 LINE",
"3583 1592 LINE",
"2946 1592 LINE",
"2946 1240 LINE",
"3093 1240 LINE",
"2949 973 LINE",
"2766 1240 LINE",
"2857 1240 LINE",
"2857 1592 LINE",
"2005 1592 LINE",
"2005 1240 LINE",
"2117 1240 LINE",
"2538 652 LINE",
"2538 359 LINE",
"2383 359 LINE",
"2383 0 LINE"
);
},
{
closed = 1;
nodes = (
"1406 0 LINE",
"1406 345 LINE",
"1116 345 LINE",
"1116 1002 LINE",
"1063 604 LINE",
"1559 1248 LINE",
"1704 1248 LINE",
"1704 1593 LINE",
"1058 1593 LINE",
"1058 1248 LINE",
"1164 1248 LINE",
"1007 1034 LINE",
"813 1248 LINE",
"914 1248 LINE",
"914 1593 LINE",
"3 1593 LINE",
"3 1248 LINE",
"148 1248 LINE",
"841 491 LINE",
"608 877 LINE",
"608 345 LINE",
"318 345 LINE",
"318 0 LINE"
);
}
);
};
layerId = "BC722C43-F174-4026-9892-4620CE50CA16";
paths = (
{
closed = 1;
nodes = (
"1408 0 LINE",
"1408 345 LINE",
"1118 345 LINE",
"1118 1002 LINE",
"1051 594 LINE",
"1538 1248 LINE",
"1683 1248 LINE",
"1683 1593 LINE",
"1049 1593 LINE",
"1049 1248 LINE",
"1159 1248 LINE",
"931 927 LINE",
"1068 917 LINE",
"795 1248 LINE",
"905 1248 LINE",
"905 1593 LINE",
"1 1593 LINE",
"1 1248 LINE",
"146 1248 LINE",
"819 461 LINE",
"610 877 LINE",
"610 345 LINE",
"320 345 LINE",
"320 0 LINE"
);
}
);
width = 1728;
}
);
unicode = 0059;
},
{
color = 3;
glyphname = Z;
layers = (
{
anchors = (
{
name = bottom;
position = "{780, 0}";
},
{
name = top;
position = "{780, 1592}";
}
);
background = {
paths = (
{
closed = 1;
nodes = (
"1490 0 LINE",
"1490 662 LINE",
"1160 662 LINE",
"1120 325 LINE",
"755 325 LINE",
"1480 1272 LINE",
"1480 1592 LINE",
"80 1592 LINE",
"80 930 LINE",
"410 930 LINE",
"450 1267 LINE",
"795 1267 LINE",
"70 320 LINE",
"70 0 LINE"
);
}
);
};
layerId = "BC722C43-F174-4026-9892-4620CE50CA16";
paths = (
{
closed = 1;
nodes = (
"1490 0 LINE",
"1490 662 LINE",
"1160 662 LINE",
"1120 325 LINE",
"740 325 LINE",
"1480 1272 LINE",
"1480 1592 LINE",
"80 1592 LINE",
"80 930 LINE",
"410 930 LINE",
"450 1267 LINE",
"810 1267 LINE",
"70 320 LINE",
"70 0 LINE"
);
}
);
width = 1560;
}
);
rightMetricsKey = "=|";
unicode = 005A;
},
{
color = 3;
glyphname = a;
layers = (
{
anchors = (
{
name = bottom;
position = "{749, 0}";
},
{
name = ogonek;
position = "{1346, 0}";
},
{
name = top;
position = "{684, 1072}";
}
);
background = {
paths = (
{
closed = 1;
nodes = (
"1976 -18 OFFCURVE",
"2114 47 OFFCURVE",
"2173 164 CURVE",
"2220 0 LINE",
"2732 0 LINE",
"2732 301 LINE",
"2636 301 LINE",
"2636 750 LINE SMOOTH",
"2636 1032 OFFCURVE",
"2325 1091 OFFCURVE",
"2028 1091 CURVE SMOOTH",
"1904 1091 OFFCURVE",
"1722 1074 OFFCURVE",
"1548 1012 CURVE",
"1548 721 LINE",
"1575 709 LINE",
"1663 762 OFFCURVE",
"1810 801 OFFCURVE",
"1905 801 CURVE SMOOTH",
"2053 801 OFFCURVE",
"2156 748 OFFCURVE",
"2156 637 CURVE SMOOTH",
"2156 592 LINE",
"2080 617 OFFCURVE",
"2004 630 OFFCURVE",
"1903 630 CURVE SMOOTH",
"1691 630 OFFCURVE",
"1484 529 OFFCURVE",
"1484 308 CURVE SMOOTH",
"1484 104 OFFCURVE",
"1655 -18 OFFCURVE",
"1852 -18 CURVE SMOOTH"
);
},
{
closed = 1;
nodes = (
"1974 237 OFFCURVE",
"1932 288 OFFCURVE",
"1932 340 CURVE SMOOTH",
"1932 414 OFFCURVE",
"1977 461 OFFCURVE",
"2050 461 CURVE SMOOTH",
"2086 461 OFFCURVE",
"2131 445 OFFCURVE",
"2156 440 CURVE",
"2156 273 LINE",
"2139 256 OFFCURVE",
"2085 237 OFFCURVE",
"2041 237 CURVE SMOOTH"
);
},
{
closed = 1;
nodes = (
"586 -18 OFFCURVE",
"708 47 OFFCURVE",
"771 157 CURVE",
"820 0 LINE",
"1336 0 LINE",
"1336 300 LINE",
"1236 300 LINE",
"1236 669 LINE SMOOTH",
"1236 964 OFFCURVE",
"1060 1090 OFFCURVE",
"648 1090 CURVE SMOOTH",
"475 1090 OFFCURVE",
"288 1061 OFFCURVE",
"148 1007 CURVE",
"148 715 LINE",
"175 703 LINE",
"273 758 OFFCURVE",
"400 790 OFFCURVE",
"520 790 CURVE SMOOTH",
"685 790 OFFCURVE",
"756 738 OFFCURVE",
"756 617 CURVE SMOOTH",
"756 592 LINE",
"673 618 OFFCURVE",
"596 630 OFFCURVE",
"505 630 CURVE SMOOTH",
"249 630 OFFCURVE",
"84 503 OFFCURVE",
"84 306 CURVE SMOOTH",
"84 116 OFFCURVE",
"232 -18 OFFCURVE",
"442 -18 CURVE SMOOTH"
);
},
{
closed = 1;
nodes = (
"579 235 OFFCURVE",
"532 279 OFFCURVE",
"532 347 CURVE SMOOTH",
"532 413 OFFCURVE",
"580 459 OFFCURVE",
"652 459 CURVE SMOOTH",
"683 459 OFFCURVE",
"721 452 OFFCURVE",
"756 438 CURVE",
"756 271 LINE",
"735 250 OFFCURVE",
"690 235 OFFCURVE",
"652 235 CURVE SMOOTH"
);
}
);
};
layerId = "BC722C43-F174-4026-9892-4620CE50CA16";
paths = (
{
closed = 1;
nodes = (
"586 -18 OFFCURVE",
"708 47 OFFCURVE",
"771 157 CURVE",
"820 0 LINE",
"1366 0 LINE",
"1366 300 LINE",
"1236 300 LINE",
"1236 669 LINE SMOOTH",
"1236 964 OFFCURVE",
"1060 1090 OFFCURVE",
"661 1090 CURVE SMOOTH",
"481 1090 OFFCURVE",
"294 1061 OFFCURVE",
"154 1007 CURVE",
"154 715 LINE",
"181 703 LINE",
"279 758 OFFCURVE",
"406 790 OFFCURVE",
"523 790 CURVE SMOOTH",
"685 790 OFFCURVE",
"756 738 OFFCURVE",
"756 617 CURVE SMOOTH",
"756 595 LINE",
"673 620 OFFCURVE",
"596 630 OFFCURVE",
"508 630 CURVE SMOOTH",
"255 630 OFFCURVE",
"90 503 OFFCURVE",
"90 306 CURVE SMOOTH",
"90 116 OFFCURVE",
"238 -18 OFFCURVE",
"445 -18 CURVE SMOOTH"
);
},
{
closed = 1;
nodes = (
"585 238 OFFCURVE",
"538 281 OFFCURVE",
"538 349 CURVE SMOOTH",
"538 415 OFFCURVE",
"590 459 OFFCURVE",
"658 459 CURVE SMOOTH",
"687 459 OFFCURVE",
"722 454 OFFCURVE",
"756 440 CURVE",
"756 273 LINE",
"735 252 OFFCURVE",
"690 238 OFFCURVE",
"654 238 CURVE SMOOTH"
);
}
);
width = 1419;
}
);
unicode = 0061;
userData = {
com.typemytype.robofont.layerData = {
};
};
},
{
color = 3;
glyphname = ae;
layers = (
{
anchors = (
{
name = bottom;
position = "{1000, 0}";
},
{
name = top;
position = "{1000, 1072}";
}
);
background = {
paths = (
{
closed = 1;
nodes = (
"586 -18 OFFCURVE",
"708 47 OFFCURVE",
"771 157 CURVE",
"1236 300 LINE",
"1236 669 LINE SMOOTH",
"1236 964 OFFCURVE",
"1060 1090 OFFCURVE",
"661 1090 CURVE SMOOTH",
"481 1090 OFFCURVE",
"294 1061 OFFCURVE",
"154 1007 CURVE",
"154 715 LINE",
"181 703 LINE",
"279 758 OFFCURVE",
"406 790 OFFCURVE",
"523 790 CURVE SMOOTH",
"685 790 OFFCURVE",
"756 738 OFFCURVE",
"756 617 CURVE SMOOTH",
"756 595 LINE",
"673 620 OFFCURVE",
"596 630 OFFCURVE",
"508 630 CURVE SMOOTH",
"255 630 OFFCURVE",
"90 503 OFFCURVE",
"90 306 CURVE SMOOTH",
"90 116 OFFCURVE",
"238 -18 OFFCURVE",
"445 -18 CURVE SMOOTH"
);
},
{
closed = 1;
nodes = (
"585 238 OFFCURVE",
"538 281 OFFCURVE",
"538 349 CURVE SMOOTH",
"538 415 OFFCURVE",
"590 459 OFFCURVE",
"658 459 CURVE SMOOTH",
"687 459 OFFCURVE",
"722 454 OFFCURVE",
"756 440 CURVE",
"756 273 LINE",
"735 252 OFFCURVE",
"690 238 OFFCURVE",
"654 238 CURVE SMOOTH"
);
},
{
closed = 1;
nodes = (
"1236 647 LINE",
"1241 771 OFFCURVE",
"1285 844 OFFCURVE",
"1375 844 CURVE SMOOTH",
"1465 844 OFFCURVE",
"1509 771 OFFCURVE",
"1514 647 CURVE",
"1205 647 LINE",
"1205 473 LINE",
"1883 473 LINE",
"1888 507 OFFCURVE",
"1893 550 OFFCURVE",
"1893 596 CURVE SMOOTH",
"1893 888 OFFCURVE",
"1691 1090 OFFCURVE",
"1349 1090 CURVE SMOOTH",
"999 1090 OFFCURVE",
"763 880 OFFCURVE",
"763 546 CURVE SMOOTH",
"763 193 OFFCURVE",
"1001 -18 OFFCURVE",
"1397 -18 CURVE SMOOTH",
"1570 -18 OFFCURVE",
"1764 30 OFFCURVE",
"1861 97 CURVE",
"1861 384 LINE",
"1834 396 LINE",
"1756 331 OFFCURVE",
"1639 282 OFFCURVE",
"1517 282 CURVE SMOOTH",
"1353 282 OFFCURVE",
"1236 352 OFFCURVE",
"1236 527 CURVE"
);
}
);
};
guideLines = (
{
angle = 90;
position = "{1036, 555}";
}
);
layerId = "BC722C43-F174-4026-9892-4620CE50CA16";
paths = (
{
closed = 1;
nodes = (
"953 -18 OFFCURVE",
"1156 146 OFFCURVE",
"1156 400 CURVE SMOOTH",
"1156 669 LINE SMOOTH",
"1156 964 OFFCURVE",
"950 1090 OFFCURVE",
"621 1090 CURVE SMOOTH",
"461 1090 OFFCURVE",
"294 1061 OFFCURVE",
"154 1007 CURVE",
"154 715 LINE",
"181 703 LINE",
"279 758 OFFCURVE",
"406 790 OFFCURVE",
"523 790 CURVE SMOOTH",
"685 790 OFFCURVE",
"756 738 OFFCURVE",
"756 617 CURVE SMOOTH",
"756 595 LINE",
"673 620 OFFCURVE",
"596 630 OFFCURVE",
"508 630 CURVE SMOOTH",
"255 630 OFFCURVE",
"90 503 OFFCURVE",
"90 314 CURVE SMOOTH",
"90 116 OFFCURVE",
"258 -18 OFFCURVE",
"575 -18 CURVE SMOOTH"
);
},
{
closed = 1;
nodes = (
"585 228 OFFCURVE",
"538 271 OFFCURVE",
"538 344 CURVE SMOOTH",
"538 415 OFFCURVE",
"590 459 OFFCURVE",
"658 459 CURVE SMOOTH",
"687 459 OFFCURVE",
"722 454 OFFCURVE",
"756 440 CURVE",
"756 259 LINE",
"735 240 OFFCURVE",
"690 228 OFFCURVE",
"654 228 CURVE SMOOTH"
);
},
{
closed = 1;
nodes = (
"1580 -18 OFFCURVE",
"1754 30 OFFCURVE",
"1851 97 CURVE",
"1851 384 LINE",
"1824 396 LINE",
"1746 331 OFFCURVE",
"1629 282 OFFCURVE",
"1507 282 CURVE SMOOTH",
"1343 282 OFFCURVE",
"1226 352 OFFCURVE",
"1226 527 CURVE",
"1226 647 LINE",
"1231 771 OFFCURVE",
"1275 844 OFFCURVE",
"1365 844 CURVE SMOOTH",
"1455 844 OFFCURVE",
"1499 771 OFFCURVE",
"1504 647 CURVE",
"1195 647 LINE",
"1195 473 LINE",
"1873 473 LINE",
"1878 507 OFFCURVE",
"1883 550 OFFCURVE",
"1883 596 CURVE SMOOTH",
"1883 888 OFFCURVE",
"1681 1090 OFFCURVE",
"1359 1090 CURVE SMOOTH",
"1069 1090 OFFCURVE",
"833 880 OFFCURVE",
"833 546 CURVE SMOOTH",
"833 203 OFFCURVE",
"1081 -18 OFFCURVE",
"1427 -18 CURVE SMOOTH"
);
}
);
width = 1933;
}
);
leftMetricsKey = a;
rightMetricsKey = e;
unicode = 00E6;
},
{
color = 3;
glyphname = b;
layers = (
{
background = {
paths = (
{
closed = 1;
nodes = (
"1254 -18 OFFCURVE",
"1430 203 OFFCURVE",
"1430 538 CURVE SMOOTH",
"1430 873 OFFCURVE",
"1254 1090 OFFCURVE",
"988 1090 CURVE SMOOTH",
"879 1090 OFFCURVE",
"762 1046 OFFCURVE",
"662 965 CURVE",
"662 1222 LINE",
"837 1222 LINE",
"837 1495 LINE",
"182 1560 LINE",
"182 300 LINE",
"42 300 LINE",
"42 0 LINE",
"652 0 LINE",
"652 112 LINE",
"735 33 OFFCURVE",
"850 -18 OFFCURVE",
"963 -18 CURVE SMOOTH"
);
},
{
closed = 1;
nodes = (
"758 281 OFFCURVE",
"698 298 OFFCURVE",
"662 324 CURVE",
"662 745 LINE",
"698 771 OFFCURVE",
"758 791 OFFCURVE",
"808 791 CURVE SMOOTH",
"902 791 OFFCURVE",
"957 697 OFFCURVE",
"957 537 CURVE SMOOTH",
"957 377 OFFCURVE",
"902 281 OFFCURVE",
"808 281 CURVE SMOOTH"
);
}
);
};
layerId = "BC722C43-F174-4026-9892-4620CE50CA16";
paths = (
{
closed = 1;
nodes = (
"1254 -18 OFFCURVE",
"1430 203 OFFCURVE",
"1430 538 CURVE SMOOTH",
"1430 873 OFFCURVE",
"1254 1090 OFFCURVE",
"988 1090 CURVE SMOOTH",
"879 1090 OFFCURVE",
"762 1046 OFFCURVE",
"662 965 CURVE",
"662 1560 LINE",
"52 1495 LINE",
"52 1222 LINE",
"182 1222 LINE",
"182 0 LINE",
"630 0 LINE",
"670 115 LINE",
"742 33 OFFCURVE",
"854 -18 OFFCURVE",
"963 -18 CURVE SMOOTH"
);
},
{
closed = 1;
nodes = (
"758 281 OFFCURVE",
"698 298 OFFCURVE",
"662 324 CURVE",
"662 745 LINE",
"698 771 OFFCURVE",
"758 791 OFFCURVE",
"808 791 CURVE SMOOTH",
"902 791 OFFCURVE",
"957 697 OFFCURVE",
"957 537 CURVE SMOOTH",
"957 377 OFFCURVE",
"902 281 OFFCURVE",
"808 281 CURVE SMOOTH"
);
}
);
width = 1488;
}
);
rightMetricsKey = "=o+5";
unicode = 0062;
userData = {
com.typemytype.robofont.layerData = {
};
};
},
{
color = 3;
glyphname = c;
layers = (
{
anchors = (
{
name = bottom;
position = "{616, 0}";
},
{
name = cedilla;
position = "{659, 0}";
},
{
name = top;
position = "{616, 1072}";
}
);
background = {
paths = (
{
closed = 1;
nodes = (
"3343 -18 OFFCURVE",
"3509 98 OFFCURVE",
"3509 98 CURVE",
"3509 377 LINE",
"3494 387 LINE",
"3400 308 OFFCURVE",
"3271 280 OFFCURVE",
"3189 280 CURVE SMOOTH",
"3089 280 OFFCURVE",
"2933 319 OFFCURVE",
"2933 545 CURVE SMOOTH",
"2933 751 OFFCURVE",
"3007 799 OFFCURVE",
"3110 799 CURVE SMOOTH",
"3185 799 OFFCURVE",
"3242 737 OFFCURVE",
"3253 628 CURVE",
"3541 628 LINE",
"3541 1072 LINE",
"3324 1072 LINE",
"3283 965 LINE",
"3242 1061 OFFCURVE",
"3061 1091 OFFCURVE",
"2970 1091 CURVE SMOOTH",
"2654 1091 OFFCURVE",
"2453 860 OFFCURVE",
"2453 546 CURVE SMOOTH",
"2453 200 OFFCURVE",
"2695 -18 OFFCURVE",
"3061 -18 CURVE SMOOTH"
);
},
{
closed = 1;
nodes = (
"830 -18 OFFCURVE",
"1019 30 OFFCURVE",
"1114 97 CURVE",
"1114 389 LINE",
"1087 401 LINE",
"1011 337 OFFCURVE",
"901 287 OFFCURVE",
"789 287 CURVE SMOOTH",
"639 287 OFFCURVE",
"531 360 OFFCURVE",
"531 547 CURVE SMOOTH",
"531 728 OFFCURVE",
"614 799 OFFCURVE",
"703 799 CURVE SMOOTH",
"782 799 OFFCURVE",
"837 743 OFFCURVE",
"848 628 CURVE",
"1136 628 LINE",
"1136 1072 LINE",
"915 1072 LINE",
"875 957 LINE",
"803 1039 OFFCURVE",
"691 1090 OFFCURVE",
"565 1090 CURVE SMOOTH",
"284 1090 OFFCURVE",
"53 878 OFFCURVE",
"53 546 CURVE SMOOTH",
"53 193 OFFCURVE",
"285 -18 OFFCURVE",
"664 -18 CURVE SMOOTH"
);
}
);
};
layerId = "BC722C43-F174-4026-9892-4620CE50CA16";
paths = (
{
closed = 1;
nodes = (
"830 -18 OFFCURVE",
"1019 30 OFFCURVE",
"1114 97 CURVE",
"1114 394 LINE",
"1087 406 LINE",
"1011 342 OFFCURVE",
"901 292 OFFCURVE",
"789 292 CURVE SMOOTH",
"639 292 OFFCURVE",
"531 365 OFFCURVE",
"531 550 CURVE SMOOTH",
"531 728 OFFCURVE",
"614 799 OFFCURVE",
"703 799 CURVE SMOOTH",
"782 799 OFFCURVE",
"837 743 OFFCURVE",
"848 628 CURVE",
"1136 628 LINE",
"1136 1072 LINE",
"915 1072 LINE",
"875 957 LINE",
"803 1039 OFFCURVE",
"701 1090 OFFCURVE",
"565 1090 CURVE SMOOTH",
"284 1090 OFFCURVE",
"53 878 OFFCURVE",
"53 546 CURVE SMOOTH",
"53 193 OFFCURVE",
"285 -18 OFFCURVE",
"664 -18 CURVE SMOOTH"
);
}
);
width = 1194;
}
);
leftMetricsKey = o;
unicode = 0063;
userData = {
com.typemytype.robofont.layerData = {
};
};
},
{
color = 3;
glyphname = d;
layers = (
{
anchors = (
{
name = bottom;
position = "{747, 0}";
},
{
name = center;
position = "{747, 536}";
},
{
name = top;
position = "{747, 1072}";
},
{
name = topright;
position = "{1406, 1560}";
}
);
background = {
paths = (
{
closed = 1;
nodes = (
"2255 -18 OFFCURVE",
"2357 47 OFFCURVE",
"2418 128 CURVE",
"2418 0 LINE",
"3034 0 LINE",
"3034 301 LINE",
"2906 301 LINE",
"2906 1560 LINE",
"2266 1495 LINE",
"2266 1222 LINE",
"2426 1222 LINE",
"2426 960 LINE",
"2347 1040 OFFCURVE",
"2259 1091 OFFCURVE",
"2115 1091 CURVE SMOOTH",
"1828 1091 OFFCURVE",
"1658 835 OFFCURVE",
"1658 550 CURVE SMOOTH",
"1658 246 OFFCURVE",
"1819 -18 OFFCURVE",
"2123 -18 CURVE SMOOTH"
);
},
{
closed = 1;
nodes = (
"2161 274 OFFCURVE",
"2106 396 OFFCURVE",
"2106 551 CURVE SMOOTH",
"2106 718 OFFCURVE",
"2183 799 OFFCURVE",
"2283 799 CURVE SMOOTH",
"2343 799 OFFCURVE",
"2399 760 OFFCURVE",
"2426 729 CURVE",
"2426 350 LINE",
"2404 315 OFFCURVE",
"2351 274 OFFCURVE",
"2283 274 CURVE SMOOTH"
);
},
{
closed = 1;
nodes = (
"634 -18 OFFCURVE",
"746 33 OFFCURVE",
"818 115 CURVE",
"858 0 LINE",
"1306 0 LINE",
"1306 1222 LINE",
"1436 1222 LINE",
"1436 1495 LINE",
"826 1560 LINE",
"826 965 LINE",
"726 1046 OFFCURVE",
"609 1090 OFFCURVE",
"500 1090 CURVE SMOOTH",
"234 1090 OFFCURVE",
"58 873 OFFCURVE",
"58 538 CURVE SMOOTH",
"58 203 OFFCURVE",
"234 -18 OFFCURVE",
"525 -18 CURVE SMOOTH"
);
},
{
closed = 1;
nodes = (
"586 281 OFFCURVE",
"531 377 OFFCURVE",
"531 537 CURVE SMOOTH",
"531 697 OFFCURVE",
"586 791 OFFCURVE",
"680 791 CURVE SMOOTH",
"730 791 OFFCURVE",
"790 771 OFFCURVE",
"826 745 CURVE",
"826 324 LINE",
"790 298 OFFCURVE",
"730 281 OFFCURVE",
"680 281 CURVE SMOOTH"
);
}
);
};
layerId = "BC722C43-F174-4026-9892-4620CE50CA16";
paths = (
{
closed = 1;
nodes = (
"638 -18 OFFCURVE",
"753 33 OFFCURVE",
"836 112 CURVE",
"836 0 LINE",
"1446 0 LINE",
"1446 300 LINE",
"1306 300 LINE",
"1306 1560 LINE",
"651 1495 LINE",
"651 1222 LINE",
"826 1222 LINE",
"826 965 LINE",
"726 1046 OFFCURVE",
"609 1090 OFFCURVE",
"500 1090 CURVE SMOOTH",
"234 1090 OFFCURVE",
"58 873 OFFCURVE",
"58 538 CURVE SMOOTH",
"58 203 OFFCURVE",
"234 -18 OFFCURVE",
"525 -18 CURVE SMOOTH"
);
},
{
closed = 1;
nodes = (
"586 281 OFFCURVE",
"531 377 OFFCURVE",
"531 537 CURVE SMOOTH",
"531 697 OFFCURVE",
"586 791 OFFCURVE",
"680 791 CURVE SMOOTH",
"730 791 OFFCURVE",
"790 771 OFFCURVE",
"826 745 CURVE",
"826 324 LINE",
"790 298 OFFCURVE",
"730 281 OFFCURVE",
"680 281 CURVE SMOOTH"
);
}
);
width = 1493;
}
);
leftMetricsKey = "=o+5";
unicode = 0064;
},
{
color = 3;
glyphname = e;
layers = (
{
anchors = (
{
name = bottom;
position = "{640, 0}";
},
{
name = ogonek;
position = "{864, 0}";
},
{
name = top;
position = "{640, 1072}";
}
);
background = {
paths = (
{
closed = 1;
nodes = (
"2096 -18 OFFCURVE",
"2224 33 OFFCURVE",
"2341 101 CURVE",
"2341 368 LINE",
"2326 375 LINE",
"2198 298 OFFCURVE",
"2071 267 OFFCURVE",
"1975 267 CURVE SMOOTH",
"1847 267 OFFCURVE",
"1733 342 OFFCURVE",
"1733 473 CURVE",
"2357 473 LINE",
"2364 498 OFFCURVE",
"2373 543 OFFCURVE",
"2373 576 CURVE SMOOTH",
"2373 891 OFFCURVE",
"2155 1091 OFFCURVE",
"1829 1091 CURVE SMOOTH",
"1479 1091 OFFCURVE",
"1253 881 OFFCURVE",
"1253 542 CURVE SMOOTH",
"1253 201 OFFCURVE",
"1486 -18 OFFCURVE",
"1861 -18 CURVE SMOOTH"
);
},
{
closed = 1;
nodes = (
"1733 678 LINE SMOOTH",
"1733 754 OFFCURVE",
"1786 843 OFFCURVE",
"1861 843 CURVE SMOOTH",
"1950 843 OFFCURVE",
"1989 758 OFFCURVE",
"1989 670 CURVE SMOOTH",
"1989 649 LINE",
"1733 649 LINE"
);
},
{
closed = 1;
nodes = (
"526 649 LINE",
"531 771 OFFCURVE",
"575 844 OFFCURVE",
"660 844 CURVE SMOOTH",
"745 844 OFFCURVE",
"789 771 OFFCURVE",
"794 649 CURVE",
"495 649 LINE",
"495 473 LINE",
"1163 473 LINE",
"1168 507 OFFCURVE",
"1173 550 OFFCURVE",
"1173 596 CURVE SMOOTH",
"1173 888 OFFCURVE",
"971 1090 OFFCURVE",
"634 1090 CURVE SMOOTH",
"289 1090 OFFCURVE",
"53 880 OFFCURVE",
"53 546 CURVE SMOOTH",
"53 193 OFFCURVE",
"291 -18 OFFCURVE",
"682 -18 CURVE SMOOTH",
"850 -18 OFFCURVE",
"1044 30 OFFCURVE",
"1141 97 CURVE",
"1141 384 LINE",
"1114 396 LINE",
"1036 331 OFFCURVE",
"919 282 OFFCURVE",
"802 282 CURVE SMOOTH",
"643 282 OFFCURVE",
"526 352 OFFCURVE",
"526 527 CURVE"
);
},
{
closed = 1;
nodes = (
"1037 -18 OFFCURVE",
"1269 193 OFFCURVE",
"1269 535 CURVE SMOOTH",
"1269 878 OFFCURVE",
"1037 1090 OFFCURVE",
"661 1090 CURVE SMOOTH",
"285 1090 OFFCURVE",
"53 878 OFFCURVE",
"53 535 CURVE SMOOTH",
"53 193 OFFCURVE",
"285 -18 OFFCURVE",
"661 -18 CURVE SMOOTH"
);
},
{
closed = 1;
nodes = (
"573 273 OFFCURVE",
"526 365 OFFCURVE",
"526 536 CURVE SMOOTH",
"526 707 OFFCURVE",
"573 799 OFFCURVE",
"661 799 CURVE SMOOTH",
"749 799 OFFCURVE",
"796 707 OFFCURVE",
"796 536 CURVE SMOOTH",
"796 365 OFFCURVE",
"749 273 OFFCURVE",
"661 273 CURVE SMOOTH"
);
}
);
};
layerId = "BC722C43-F174-4026-9892-4620CE50CA16";
paths = (
{
closed = 1;
nodes = (
"860 -18 OFFCURVE",
"1054 30 OFFCURVE",
"1151 97 CURVE",
"1151 384 LINE",
"1124 396 LINE",
"1046 331 OFFCURVE",
"929 282 OFFCURVE",
"807 282 CURVE SMOOTH",
"643 282 OFFCURVE",
"526 352 OFFCURVE",
"526 527 CURVE",
"526 647 LINE",
"531 771 OFFCURVE",
"575 844 OFFCURVE",
"665 844 CURVE SMOOTH",
"755 844 OFFCURVE",
"799 771 OFFCURVE",
"804 647 CURVE",
"495 647 LINE",
"495 473 LINE",
"1173 473 LINE",
"1178 507 OFFCURVE",
"1183 550 OFFCURVE",
"1183 596 CURVE SMOOTH",
"1183 888 OFFCURVE",
"981 1090 OFFCURVE",
"639 1090 CURVE SMOOTH",
"289 1090 OFFCURVE",
"53 880 OFFCURVE",
"53 546 CURVE SMOOTH",
"53 193 OFFCURVE",
"291 -18 OFFCURVE",
"687 -18 CURVE SMOOTH"
);
}
);
width = 1233;
}
);
leftMetricsKey = o;
unicode = 0065;
userData = {
com.typemytype.robofont.layerData = {
};
};
},
{
color = 3;
glyphname = f;
layers = (
{
background = {
paths = (
{
closed = 1;
nodes = (
"2392 0 LINE",
"2392 301 LINE",
"2200 301 LINE",
"2200 779 LINE",
"2392 779 LINE",
"2392 1072 LINE",
"2200 1072 LINE",
"2200 1107 LINE SMOOTH",
"2200 1180 OFFCURVE",
"2218 1242 OFFCURVE",
"2288 1242 CURVE SMOOTH",
"2322 1242 OFFCURVE",
"2341 1238 OFFCURVE",
"2392 1229 CURVE",
"2392 1523 LINE",
"2322 1546 OFFCURVE",
"2188 1570 OFFCURVE",
"2077 1570 CURVE SMOOTH",
"1839 1570 OFFCURVE",
"1720 1436 OFFCURVE",
"1720 1167 CURVE SMOOTH",
"1720 1072 LINE",
"1560 1072 LINE",
"1560 779 LINE",
"1720 779 LINE",
"1720 301 LINE",
"1560 301 LINE",
"1560 0 LINE"
);
},
{
closed = 1;
nodes = (
"922 0 LINE",
"922 300 LINE",
"700 300 LINE",
"700 772 LINE",
"922 772 LINE",
"922 1072 LINE",
"700 1072 LINE",
"700 1147 LINE SMOOTH",
"700 1214 OFFCURVE",
"734 1251 OFFCURVE",
"819 1251 CURVE SMOOTH",
"855 1251 OFFCURVE",
"886 1243 OFFCURVE",
"905 1234 CURVE",
"932 1246 LINE",
"932 1530 LINE",
"856 1548 OFFCURVE",
"782 1558 OFFCURVE",
"700 1558 CURVE SMOOTH",
"399 1558 OFFCURVE",
"220 1404 OFFCURVE",
"220 1135 CURVE SMOOTH",
"220 1061 LINE",
"55 1045 LINE",
"55 772 LINE",
"220 772 LINE",
"220 300 LINE",
"65 300 LINE",
"65 0 LINE"
);
}
);
};
layerId = "BC722C43-F174-4026-9892-4620CE50CA16";
paths = (
{
closed = 1;
nodes = (
"942 0 LINE",
"942 300 LINE",
"700 300 LINE",
"700 772 LINE",
"942 772 LINE",
"942 1072 LINE",
"700 1072 LINE",
"700 1125 LINE SMOOTH",
"700 1205 OFFCURVE",
"739 1252 OFFCURVE",
"829 1252 CURVE SMOOTH",
"880 1252 OFFCURVE",
"911 1241 OFFCURVE",
"940 1232 CURVE",
"967 1244 LINE",
"967 1530 LINE",
"891 1548 OFFCURVE",
"817 1558 OFFCURVE",
"725 1558 CURVE SMOOTH",
"399 1558 OFFCURVE",
"220 1404 OFFCURVE",
"220 1135 CURVE SMOOTH",
"220 1061 LINE",
"55 1045 LINE",
"55 772 LINE",
"220 772 LINE",
"220 300 LINE",
"65 300 LINE",
"65 0 LINE"
);
}
);
width = 962;
}
);
unicode = 0066;
},
{
color = 3;
glyphname = g;
layers = (
{
anchors = (
{
name = top;
position = "{767, 1072}";
}
);
background = {
paths = (
{
closed = 1;
nodes = (
"2725 -390 OFFCURVE",
"3006 -226 OFFCURVE",
"3006 135 CURVE SMOOTH",
"3006 761 LINE",
"3102 761 LINE",
"3102 1072 LINE",
"2592 1072 LINE",
"2521 922 LINE",
"2464 1003 OFFCURVE",
"2364 1091 OFFCURVE",
"2206 1091 CURVE SMOOTH",
"1910 1091 OFFCURVE",
"1758 839 OFFCURVE",
"1758 541 CURVE SMOOTH",
"1758 252 OFFCURVE",
"1905 0 OFFCURVE",
"2206 0 CURVE SMOOTH",
"2352 0 OFFCURVE",
"2459 61 OFFCURVE",
"2521 117 CURVE",
"2520 -68 OFFCURVE",
"2413 -122 OFFCURVE",
"2279 -122 CURVE SMOOTH",
"2150 -122 OFFCURVE",
"1995 -71 OFFCURVE",
"1888 -39 CURVE",
"1888 -328 LINE",
"2046 -369 OFFCURVE",
"2199 -390 OFFCURVE",
"2338 -390 CURVE SMOOTH"
);
},
{
closed = 1;
nodes = (
"2268 274 OFFCURVE",
"2206 382 OFFCURVE",
"2206 535 CURVE SMOOTH",
"2206 699 OFFCURVE",
"2277 799 OFFCURVE",
"2386 799 CURVE SMOOTH",
"2456 799 OFFCURVE",
"2503 767 OFFCURVE",
"2526 725 CURVE",
"2526 360 LINE",
"2516 325 OFFCURVE",
"2461 274 OFFCURVE",
"2394 274 CURVE SMOOTH"
);
},
{
closed = 1;
nodes = (
"1025 -390 OFFCURVE",
"1306 -226 OFFCURVE",
"1306 155 CURVE SMOOTH",
"1306 772 LINE",
"1411 772 LINE",
"1411 1072 LINE",
"858 1072 LINE",
"818 957 LINE",
"746 1039 OFFCURVE",
"634 1090 OFFCURVE",
"525 1090 CURVE SMOOTH",
"234 1090 OFFCURVE",
"58 869 OFFCURVE",
"58 548 CURVE SMOOTH",
"58 223 OFFCURVE",
"234 2 OFFCURVE",
"525 2 CURVE SMOOTH",
"635 2 OFFCURVE",
"744 52 OFFCURVE",
"826 118 CURVE",
"826 85 LINE SMOOTH",
"826 -38 OFFCURVE",
"751 -118 OFFCURVE",
"590 -118 CURVE SMOOTH",
"457 -118 OFFCURVE",
"320 -86 OFFCURVE",
"215 -31 CURVE",
"188 -43 LINE",
"188 -319 LINE",
"320 -363 OFFCURVE",
"496 -387 OFFCURVE",
"663 -388 CURVE SMOOTH"
);
},
{
closed = 1;
nodes = (
"586 301 OFFCURVE",
"531 397 OFFCURVE",
"531 547 CURVE SMOOTH",
"531 697 OFFCURVE",
"586 791 OFFCURVE",
"680 791 CURVE SMOOTH",
"730 791 OFFCURVE",
"790 774 OFFCURVE",
"826 745 CURVE",
"826 344 LINE",
"790 318 OFFCURVE",
"730 301 OFFCURVE",
"680 301 CURVE SMOOTH"
);
}
);
};
layerId = "BC722C43-F174-4026-9892-4620CE50CA16";
paths = (
{
closed = 1;
nodes = (
"1025 -417 OFFCURVE",
"1306 -253 OFFCURVE",
"1306 176 CURVE SMOOTH",
"1306 772 LINE",
"1411 772 LINE",
"1411 1072 LINE",
"858 1072 LINE",
"818 957 LINE",
"746 1039 OFFCURVE",
"634 1090 OFFCURVE",
"525 1090 CURVE SMOOTH",
"234 1090 OFFCURVE",
"58 869 OFFCURVE",
"58 556 CURVE SMOOTH",
"58 239 OFFCURVE",
"244 18 OFFCURVE",
"535 18 CURVE SMOOTH",
"640 18 OFFCURVE",
"749 62 OFFCURVE",
"831 134 CURVE",
"831 92 LINE SMOOTH",
"831 -55 OFFCURVE",
"744 -115 OFFCURVE",
"569 -115 CURVE SMOOTH",
"437 -115 OFFCURVE",
"302 -91 OFFCURVE",
"195 -36 CURVE",
"168 -48 LINE",
"168 -340 LINE",
"299 -387 OFFCURVE",
"466 -414 OFFCURVE",
"645 -415 CURVE SMOOTH"
);
},
{
closed = 1;
nodes = (
"586 317 OFFCURVE",
"531 413 OFFCURVE",
"531 555 CURVE SMOOTH",
"531 697 OFFCURVE",
"586 791 OFFCURVE",
"680 791 CURVE SMOOTH",
"730 791 OFFCURVE",
"790 774 OFFCURVE",
"826 745 CURVE",
"826 360 LINE",
"790 334 OFFCURVE",
"730 317 OFFCURVE",
"680 317 CURVE SMOOTH"
);
}
);
width = 1493;
}
);
leftMetricsKey = "=o+5";
unicode = 0067;
},
{
color = 3;
glyphname = h;
layers = (
{
anchors = (
{
name = center;
position = "{714, 536}";
},
{
name = top;
position = "{427, 1540}";
}
);
background = {
paths = (
{
closed = 1;
nodes = (
"756 0 LINE",
"756 300 LINE",
"666 300 LINE",
"666 1560 LINE",
"42 1501 LINE",
"42 1228 LINE",
"187 1228 LINE",
"187 300 LINE",
"42 300 LINE",
"42 0 LINE"
);
},
{
closed = 1;
nodes = (
"1501 0 LINE",
"1501 300 LINE",
"1361 300 LINE",
"1361 680 LINE SMOOTH",
"1361 955 OFFCURVE",
"1252 1091 OFFCURVE",
"1011 1091 CURVE SMOOTH",
"862 1091 OFFCURVE",
"728 1035 OFFCURVE",
"646 919 CURVE",
"646 606 LINE",
"666 606 LINE",
"666 743 OFFCURVE",
"715 791 OFFCURVE",
"790 791 CURVE SMOOTH",
"842 791 OFFCURVE",
"881 750 OFFCURVE",
"881 660 CURVE SMOOTH",
"881 0 LINE"
);
}
);
};
layerId = "BC722C43-F174-4026-9892-4620CE50CA16";
paths = (
{
closed = 1;
nodes = (
"757 0 LINE",
"757 300 LINE",
"667 300 LINE",
"667 1560 LINE",
"42 1501 LINE",
"42 1228 LINE",
"187 1228 LINE",
"187 300 LINE",
"42 300 LINE",
"42 0 LINE"
);
},
{
closed = 1;
nodes = (
"1502 0 LINE",
"1502 300 LINE",
"1362 300 LINE",
"1362 679 LINE SMOOTH",
"1362 954 OFFCURVE",
"1253 1090 OFFCURVE",
"1012 1090 CURVE SMOOTH",
"863 1090 OFFCURVE",
"729 1034 OFFCURVE",
"647 938 CURVE",
"647 715 LINE",
"667 715 LINE",
"697 762 OFFCURVE",
"746 790 OFFCURVE",
"791 790 CURVE SMOOTH",
"846 790 OFFCURVE",
"882 756 OFFCURVE",
"882 679 CURVE SMOOTH",
"882 0 LINE"
);
}
);
width = 1549;
}
);
unicode = 0068;
userData = {
com.typemytype.robofont.layerData = {
};
};
},
{
color = 3;
glyphname = i;
layers = (
{
anchors = (
{
name = bottom;
position = "{460, 0}";
},
{
name = ogonek;
position = "{675, 0}";
}
);
background = {
paths = (
{
closed = 1;
nodes = (
"828 0 LINE",
"828 301 LINE",
"700 301 LINE",
"700 1072 LINE",
"92 1008 LINE",
"92 761 LINE",
"220 761 LINE",
"220 301 LINE",
"92 301 LINE",
"92 0 LINE"
);
},
{
closed = 1;
nodes = (
"618 1175 OFFCURVE",
"748 1249 OFFCURVE",
"748 1405 CURVE SMOOTH",
"748 1562 OFFCURVE",
"622 1630 OFFCURVE",
"461 1630 CURVE SMOOTH",
"304 1630 OFFCURVE",
"172 1560 OFFCURVE",
"172 1405 CURVE SMOOTH",
"172 1250 OFFCURVE",
"305 1175 OFFCURVE",
"460 1175 CURVE SMOOTH"
);
}
);
};
components = (
{
name = idotless;
},
{
name = dotaccentcomb.i;
}
);
layerId = "BC722C43-F174-4026-9892-4620CE50CA16";
width = 887;
}
);
unicode = 0069;
userData = {
com.typemytype.robofont.layerData = {
};
};
},
{
color = 3;
glyphname = idotless;
layers = (
{
anchors = (
{
name = bottom;
position = "{460, 0}";
},
{
name = ogonek;
position = "{700, 0}";
},
{
name = top;
position = "{460, 1072}";
}
);
background = {
paths = (
{
closed = 1;
nodes = (
"750 0 LINE",
"750 299 LINE",
"666 299 LINE",
"666 1072 LINE",
"96 1008 LINE",
"96 747 LINE",
"185 747 LINE",
"185 299 LINE",
"103 299 LINE",
"103 0 LINE"
);
}
);
};
layerId = "BC722C43-F174-4026-9892-4620CE50CA16";
paths = (
{
closed = 1;
nodes = (
"855 0 LINE",
"855 300 LINE",
"700 300 LINE",
"700 1091 LINE",
"65 1032 LINE",
"65 759 LINE",
"220 759 LINE",
"220 300 LINE",
"65 300 LINE",
"65 0 LINE"
);
}
);
width = 887;
}
);
unicode = 0131;
},
{
color = 3;
glyphname = jdotless;
layers = (
{
anchors = (
{
name = bottom;
position = "{427, 0}";
},
{
name = top;
position = "{427, 1072}";
}
);
background = {
paths = (
{
closed = 1;
nodes = (
"1360 -398 OFFCURVE",
"1567 -269 OFFCURVE",
"1567 129 CURVE SMOOTH",
"1567 1072 LINE",
"950 1008 LINE",
"950 761 LINE",
"1080 761 LINE",
"1080 -9 LINE SMOOTH",
"1080 -65 OFFCURVE",
"1008 -72 OFFCURVE",
"955 -72 CURVE SMOOTH",
"943 -72 LINE",
"943 -398 LINE"
);
},
{
closed = 1;
nodes = (
"822 0 LINE",
"822 300 LINE",
"667 300 LINE",
"667 1091 LINE",
"32 1032 LINE",
"32 759 LINE",
"187 759 LINE",
"187 300 LINE",
"32 300 LINE",
"32 0 LINE"
);
}
);
};
layerId = "BC722C43-F174-4026-9892-4620CE50CA16";
paths = (
{
closed = 1;
nodes = (
"493 -408 OFFCURVE",
"667 -270 OFFCURVE",
"667 101 CURVE SMOOTH",
"667 1091 LINE",
"32 1032 LINE",
"32 759 LINE",
"187 759 LINE",
"187 40 LINE SMOOTH",
"187 -73 OFFCURVE",
"149 -108 OFFCURVE",
"27 -108 CURVE",
"27 -408 LINE"
);
}
);
width = 802;
}
);
unicode = 0237;
},
{
color = 3;
glyphname = k;
layers = (
{
anchors = (
{
name = bottom;
position = "{797, 0}";
},
{
name = top;
position = "{427, 1540}";
}
);
background = {
paths = (
{
closed = 1;
nodes = (
"1436 0 LINE",
"1436 301 LINE",
"1278 301 LINE",
"1071 618 LINE",
"1072 618 OFFCURVE",
"1244 762 OFFCURVE",
"1244 761 CURVE",
"1404 761 LINE",
"1404 1072 LINE",
"764 1072 LINE",
"764 761 LINE",
"876 761 LINE",
"667 587 LINE",
"667 438 LINE",
"960 0 LINE"
);
},
{
closed = 1;
nodes = (
"667 0 LINE",
"667 1560 LINE",
"12 1495 LINE",
"12 1222 LINE",
"187 1222 LINE",
"187 301 LINE",
"12 301 LINE",
"12 0 LINE"
);
}
);
};
layerId = "BC722C43-F174-4026-9892-4620CE50CA16";
paths = (
{
closed = 1;
nodes = (
"667 0 LINE",
"667 1560 LINE",
"32 1495 LINE",
"32 1222 LINE",
"187 1222 LINE",
"187 300 LINE",
"32 300 LINE",
"32 0 LINE"
);
},
{
closed = 1;
nodes = (
"1455 0 LINE",
"1455 300 LINE",
"1305 300 LINE",
"1008 713 LINE",
"996 564 LINE",
"1244 772 LINE",
"1434 772 LINE",
"1434 1072 LINE",
"758 1072 LINE",
"758 772 LINE",
"912 772 LINE",
"627 532 LINE",
"617 468 LINE",
"947 0 LINE"
);
}
);
width = 1478;
}
);
unicode = 006B;
userData = {
com.typemytype.robofont.layerData = {
};
};
},
{
color = 3;
glyphname = l;
layers = (
{
anchors = (
{
name = bottom;
position = "{427, 0}";
},
{
name = center;
position = "{427, 761}";
},
{
name = top;
position = "{427, 1540}";
},
{
name = topright;
position = "{767, 1560}";
}
);
background = {
paths = (
{
closed = 1;
nodes = (
"822 0 LINE",
"822 300 LINE",
"667 300 LINE",
"667 1560 LINE",
"22 1495 LINE",
"22 1222 LINE",
"187 1222 LINE",
"187 300 LINE",
"22 300 LINE",
"22 0 LINE"
);
}
);
};
layerId = "BC722C43-F174-4026-9892-4620CE50CA16";
paths = (
{
closed = 1;
nodes = (
"822 0 LINE",
"822 300 LINE",
"667 300 LINE",
"667 1560 LINE",
"32 1495 LINE",
"32 1222 LINE",
"187 1222 LINE",
"187 300 LINE",
"32 300 LINE",
"32 0 LINE"
);
}
);
width = 854;
}
);
unicode = 006C;
userData = {
com.typemytype.robofont.layerData = {
};
};
},
{
color = 3;
glyphname = m;
layers = (
{
anchors = (
{
name = bottom;
position = "{1145, 0}";
},
{
name = top;
position = "{1145, 1072}";
}
);
background = {
paths = (
{
closed = 1;
nodes = (
"790 0 LINE",
"790 300 LINE",
"700 300 LINE",
"700 867 LINE",
"690 912 LINE",
"690 1091 LINE",
"75 1032 LINE",
"75 759 LINE",
"220 759 LINE",
"220 300 LINE",
"75 300 LINE",
"75 0 LINE"
);
},
{
closed = 1;
nodes = (
"1475 0 LINE",
"1475 300 LINE",
"1385 300 LINE",
"1385 684 LINE SMOOTH",
"1385 957 OFFCURVE",
"1276 1091 OFFCURVE",
"1040 1091 CURVE SMOOTH",
"896 1091 OFFCURVE",
"762 1040 OFFCURVE",
"680 949 CURVE",
"680 721 LINE",
"700 721 LINE",
"730 766 OFFCURVE",
"779 791 OFFCURVE",
"819 791 CURVE SMOOTH",
"868 791 OFFCURVE",
"905 759 OFFCURVE",
"905 684 CURVE SMOOTH",
"905 0 LINE"
);
},
{
closed = 1;
nodes = (
"2210 0 LINE",
"2210 300 LINE",
"2070 300 LINE",
"2070 684 LINE SMOOTH",
"2070 957 OFFCURVE",
"1961 1091 OFFCURVE",
"1725 1091 CURVE SMOOTH",
"1581 1091 OFFCURVE",
"1447 1040 OFFCURVE",
"1365 949 CURVE",
"1365 721 LINE",
"1385 721 LINE",
"1415 766 OFFCURVE",
"1464 791 OFFCURVE",
"1504 791 CURVE SMOOTH",
"1553 791 OFFCURVE",
"1590 759 OFFCURVE",
"1590 684 CURVE SMOOTH",
"1590 0 LINE"
);
}
);
};
layerId = "BC722C43-F174-4026-9892-4620CE50CA16";
paths = (
{
closed = 1;
nodes = (
"2210 0 LINE",
"2210 300 LINE",
"2070 300 LINE",
"2070 684 LINE SMOOTH",
"2070 957 OFFCURVE",
"1961 1091 OFFCURVE",
"1705 1091 CURVE SMOOTH",
"1559 1091 OFFCURVE",
"1406 1027 OFFCURVE",
"1301 914 CURVE",
"1365 721 LINE",
"1385 721 LINE",
"1415 766 OFFCURVE",
"1464 791 OFFCURVE",
"1504 791 CURVE SMOOTH",
"1553 791 OFFCURVE",
"1590 759 OFFCURVE",
"1590 684 CURVE SMOOTH",
"1590 0 LINE"
);
},
{
closed = 1;
nodes = (
"790 0 LINE",
"790 300 LINE",
"700 300 LINE",
"700 867 LINE",
"690 912 LINE",
"690 1091 LINE",
"75 1032 LINE",
"75 759 LINE",
"220 759 LINE",
"220 300 LINE",
"75 300 LINE",
"75 0 LINE"
);
},
{
closed = 1;
nodes = (
"1475 0 LINE",
"1475 300 LINE",
"1385 300 LINE",
"1385 914 LINE",
"1347 914 LINE",
"1296 1032 OFFCURVE",
"1196 1091 OFFCURVE",
"1040 1091 CURVE SMOOTH",
"896 1091 OFFCURVE",
"762 1040 OFFCURVE",
"680 949 CURVE",
"680 721 LINE",
"700 721 LINE",
"730 766 OFFCURVE",
"779 791 OFFCURVE",
"819 791 CURVE SMOOTH",
"868 791 OFFCURVE",
"905 759 OFFCURVE",
"905 684 CURVE SMOOTH",
"905 0 LINE"
);
}
);
width = 2256;
}
);
unicode = 006D;
userData = {
com.typemytype.robofont.layerData = {
};
};
},
{
color = 3;
glyphname = n;
layers = (
{
anchors = (
{
name = bottom;
position = "{805, 0}";
},
{
name = top;
position = "{805, 1072}";
}
);
background = {
paths = (
{
closed = 1;
nodes = (
"789 0 LINE",
"789 300 LINE",
"699 300 LINE",
"699 1091 LINE",
"75 1032 LINE",
"75 759 LINE",
"220 759 LINE",
"220 300 LINE",
"75 300 LINE",
"75 0 LINE"
);
},
{
closed = 1;
nodes = (
"1534 0 LINE",
"1534 300 LINE",
"1394 300 LINE",
"1394 680 LINE SMOOTH",
"1394 955 OFFCURVE",
"1285 1091 OFFCURVE",
"1044 1091 CURVE SMOOTH",
"895 1091 OFFCURVE",
"761 1035 OFFCURVE",
"679 939 CURVE",
"679 716 LINE",
"699 716 LINE",
"729 763 OFFCURVE",
"778 791 OFFCURVE",
"823 791 CURVE SMOOTH",
"877 791 OFFCURVE",
"914 757 OFFCURVE",
"914 680 CURVE SMOOTH",
"914 0 LINE"
);
}
);
};
layerId = "BC722C43-F174-4026-9892-4620CE50CA16";
paths = (
{
closed = 1;
nodes = (
"1535 0 LINE",
"1535 300 LINE",
"1395 300 LINE",
"1395 680 LINE SMOOTH",
"1395 955 OFFCURVE",
"1286 1091 OFFCURVE",
"1045 1091 CURVE SMOOTH",
"896 1091 OFFCURVE",
"762 1037 OFFCURVE",
"680 944 CURVE",
"680 716 LINE",
"700 716 LINE",
"730 763 OFFCURVE",
"779 791 OFFCURVE",
"824 791 CURVE SMOOTH",
"878 791 OFFCURVE",
"915 757 OFFCURVE",
"915 680 CURVE SMOOTH",
"915 0 LINE"
);
},
{
closed = 1;
nodes = (
"790 0 LINE",
"790 300 LINE",
"700 300 LINE",
"700 867 LINE",
"690 912 LINE",
"690 1091 LINE",
"75 1032 LINE",
"75 759 LINE",
"220 759 LINE",
"220 300 LINE",
"75 300 LINE",
"75 0 LINE"
);
}
);
width = 1582;
}
);
unicode = 006E;
userData = {
com.typemytype.robofont.guides = (
);
com.typemytype.robofont.layerData = {
};
};
},
{
color = 3;
glyphname = o;
layers = (
{
anchors = (
{
name = bottom;
position = "{661, 0}";
},
{
name = center;
position = "{661, 536}";
},
{
name = ogonek;
position = "{824, 0}";
},
{
name = top;
position = "{661, 1072}";
},
{
name = topright;
position = "{1302, 1072}";
}
);
background = {
paths = (
{
closed = 1;
nodes = (
"1022 -18 OFFCURVE",
"1269 187 OFFCURVE",
"1269 547 CURVE SMOOTH",
"1269 902 OFFCURVE",
"1021 1091 OFFCURVE",
"661 1091 CURVE SMOOTH",
"301 1091 OFFCURVE",
"53 902 OFFCURVE",
"53 547 CURVE SMOOTH",
"53 187 OFFCURVE",
"300 -18 OFFCURVE",
"661 -18 CURVE SMOOTH"
);
},
{
closed = 1;
nodes = (
"576 274 OFFCURVE",
"533 352 OFFCURVE",
"533 546 CURVE SMOOTH",
"533 724 OFFCURVE",
"572 799 OFFCURVE",
"661 799 CURVE SMOOTH",
"750 799 OFFCURVE",
"789 724 OFFCURVE",
"789 546 CURVE SMOOTH",
"789 352 OFFCURVE",
"745 274 OFFCURVE",
"661 274 CURVE SMOOTH"
);
}
);
};
layerId = "BC722C43-F174-4026-9892-4620CE50CA16";
paths = (
{
closed = 1;
nodes = (
"1037 -18 OFFCURVE",
"1269 193 OFFCURVE",
"1269 535 CURVE SMOOTH",
"1269 878 OFFCURVE",
"1037 1090 OFFCURVE",
"661 1090 CURVE SMOOTH",
"285 1090 OFFCURVE",
"53 878 OFFCURVE",
"53 535 CURVE SMOOTH",
"53 193 OFFCURVE",
"285 -18 OFFCURVE",
"661 -18 CURVE SMOOTH"
);
},
{
closed = 1;
nodes = (
"573 273 OFFCURVE",
"526 365 OFFCURVE",
"526 536 CURVE SMOOTH",
"526 707 OFFCURVE",
"573 799 OFFCURVE",
"661 799 CURVE SMOOTH",
"749 799 OFFCURVE",
"796 707 OFFCURVE",
"796 536 CURVE SMOOTH",
"796 365 OFFCURVE",
"749 273 OFFCURVE",
"661 273 CURVE SMOOTH"
);
}
);
width = 1322;
}
);
rightMetricsKey = "=|";
unicode = 006F;
},
{
color = 3;
glyphname = p;
layers = (
{
background = {
paths = (
{
closed = 1;
nodes = (
"855 1091 OFFCURVE",
"740 1040 OFFCURVE",
"657 961 CURVE",
"657 1073 LINE",
"47 1073 LINE",
"47 773 LINE",
"187 773 LINE",
"187 -487 LINE",
"842 -422 LINE",
"842 -149 LINE",
"667 -149 LINE",
"667 108 LINE",
"767 27 OFFCURVE",
"884 -17 OFFCURVE",
"993 -17 CURVE SMOOTH",
"1259 -17 OFFCURVE",
"1435 200 OFFCURVE",
"1435 535 CURVE SMOOTH",
"1435 870 OFFCURVE",
"1259 1091 OFFCURVE",
"968 1091 CURVE SMOOTH"
);
},
{
closed = 1;
nodes = (
"907 792 OFFCURVE",
"962 696 OFFCURVE",
"962 536 CURVE SMOOTH",
"962 376 OFFCURVE",
"907 282 OFFCURVE",
"813 282 CURVE SMOOTH",
"763 282 OFFCURVE",
"703 302 OFFCURVE",
"667 328 CURVE",
"667 749 LINE",
"703 775 OFFCURVE",
"763 792 OFFCURVE",
"813 792 CURVE SMOOTH"
);
}
);
};
layerId = "BC722C43-F174-4026-9892-4620CE50CA16";
paths = (
{
closed = 1;
nodes = (
"812 -398 LINE",
"812 -98 LINE",
"667 -98 LINE",
"667 108 LINE",
"767 27 OFFCURVE",
"884 -17 OFFCURVE",
"993 -17 CURVE SMOOTH",
"1259 -17 OFFCURVE",
"1435 200 OFFCURVE",
"1435 535 CURVE SMOOTH",
"1435 870 OFFCURVE",
"1259 1091 OFFCURVE",
"968 1091 CURVE SMOOTH",
"855 1091 OFFCURVE",
"740 1040 OFFCURVE",
"657 961 CURVE",
"657 1091 LINE",
"42 1034 LINE",
"42 761 LINE",
"187 761 LINE",
"187 -98 LINE",
"42 -98 LINE",
"42 -398 LINE"
);
},
{
closed = 1;
nodes = (
"763 282 OFFCURVE",
"703 302 OFFCURVE",
"667 328 CURVE",
"667 749 LINE",
"703 775 OFFCURVE",
"763 792 OFFCURVE",
"813 792 CURVE SMOOTH",
"907 792 OFFCURVE",
"962 696 OFFCURVE",
"962 536 CURVE SMOOTH",
"962 376 OFFCURVE",
"907 282 OFFCURVE",
"813 282 CURVE SMOOTH"
);
}
);
width = 1493;
}
);
rightMetricsKey = "=o+5";
unicode = 0070;
userData = {
com.typemytype.robofont.layerData = {
};
};
},
{
color = 3;
glyphname = q;
layers = (
{
background = {
paths = (
{
closed = 1;
nodes = (
"234 1090 OFFCURVE",
"58 869 OFFCURVE",
"58 534 CURVE SMOOTH",
"58 199 OFFCURVE",
"234 -18 OFFCURVE",
"500 -18 CURVE SMOOTH",
"609 -18 OFFCURVE",
"726 26 OFFCURVE",
"826 107 CURVE",
"826 -488 LINE",
"1436 -423 LINE",
"1436 -150 LINE",
"1306 -150 LINE",
"1306 1072 LINE",
"858 1072 LINE",
"818 957 LINE",
"746 1039 OFFCURVE",
"634 1090 OFFCURVE",
"525 1090 CURVE SMOOTH"
);
},
{
closed = 1;
nodes = (
"730 791 OFFCURVE",
"790 774 OFFCURVE",
"826 748 CURVE",
"826 327 LINE",
"790 301 OFFCURVE",
"730 281 OFFCURVE",
"680 281 CURVE SMOOTH",
"586 281 OFFCURVE",
"531 375 OFFCURVE",
"531 535 CURVE SMOOTH",
"531 695 OFFCURVE",
"586 791 OFFCURVE",
"680 791 CURVE SMOOTH"
);
}
);
};
layerId = "BC722C43-F174-4026-9892-4620CE50CA16";
paths = (
{
closed = 1;
nodes = (
"1451 -398 LINE",
"1451 -98 LINE",
"1306 -98 LINE",
"1306 771 LINE",
"1411 771 LINE",
"1411 1072 LINE",
"858 1072 LINE",
"818 957 LINE",
"746 1039 OFFCURVE",
"634 1090 OFFCURVE",
"525 1090 CURVE SMOOTH",
"234 1090 OFFCURVE",
"58 869 OFFCURVE",
"58 534 CURVE SMOOTH",
"58 199 OFFCURVE",
"234 -18 OFFCURVE",
"500 -18 CURVE SMOOTH",
"609 -18 OFFCURVE",
"726 26 OFFCURVE",
"826 107 CURVE",
"826 -98 LINE",
"681 -98 LINE",
"681 -398 LINE"
);
},
{
closed = 1;
nodes = (
"586 281 OFFCURVE",
"531 375 OFFCURVE",
"531 535 CURVE SMOOTH",
"531 695 OFFCURVE",
"586 791 OFFCURVE",
"680 791 CURVE SMOOTH",
"730 791 OFFCURVE",
"790 774 OFFCURVE",
"826 748 CURVE",
"826 327 LINE",
"790 301 OFFCURVE",
"730 281 OFFCURVE",
"680 281 CURVE SMOOTH"
);
}
);
width = 1493;
}
);
leftMetricsKey = "=o+5";
unicode = 0071;
},
{
color = 3;
glyphname = r;
layers = (
{
anchors = (
{
name = bottom;
position = "{460, 0}";
},
{
name = top;
position = "{616, 1072}";
}
);
background = {
paths = (
{
closed = 1;
nodes = (
"860 0 LINE",
"860 301 LINE",
"700 301 LINE",
"700 506 LINE SMOOTH",
"700 600 OFFCURVE",
"716 707 OFFCURVE",
"860 707 CURVE SMOOTH",
"908 707 OFFCURVE",
"972 695 OFFCURVE",
"1052 667 CURVE",
"1052 1091 LINE",
"952 1091 OFFCURVE",
"767 1026 OFFCURVE",
"700 917 CURVE",
"700 1092 LINE",
"92 1032 LINE",
"92 761 LINE",
"220 761 LINE",
"220 301 LINE",
"92 301 LINE",
"92 0 LINE"
);
}
);
};
layerId = "BC722C43-F174-4026-9892-4620CE50CA16";
paths = (
{
closed = 1;
nodes = (
"930 0 LINE",
"930 300 LINE",
"700 300 LINE",
"700 631 LINE",
"736 671 OFFCURVE",
"820 696 OFFCURVE",
"887 696 CURVE SMOOTH",
"936 696 OFFCURVE",
"991 686 OFFCURVE",
"1052 665 CURVE",
"1052 1095 LINE",
"925 1095 OFFCURVE",
"769 1031 OFFCURVE",
"690 886 CURVE",
"690 1091 LINE",
"75 1032 LINE",
"75 759 LINE",
"220 759 LINE",
"220 300 LINE",
"75 300 LINE",
"75 0 LINE"
);
}
);
width = 1077;
}
);
unicode = 0072;
userData = {
com.typemytype.robofont.layerData = {
};
};
},
{
color = 3;
glyphname = s;
layers = (
{
anchors = (
{
name = bottom;
position = "{584, 0}";
},
{
name = cedilla;
position = "{618, 0}";
},
{
name = top;
position = "{584, 1072}";
}
);
background = {
paths = (
{
closed = 1;
nodes = (
"967 -18 OFFCURVE",
"1126 118 OFFCURVE",
"1126 330 CURVE SMOOTH",
"1126 722 OFFCURVE",
"581 675 OFFCURVE",
"581 815 CURVE SMOOTH",
"581 852 OFFCURVE",
"611 875 OFFCURVE",
"666 875 CURVE SMOOTH",
"741 875 OFFCURVE",
"808 828 OFFCURVE",
"845 730 CURVE",
"1101 730 LINE",
"1101 1072 LINE",
"881 1072 LINE",
"857 1005 LINE",
"760 1065 OFFCURVE",
"650 1091 OFFCURVE",
"519 1091 CURVE SMOOTH",
"210 1091 OFFCURVE",
"67 940 OFFCURVE",
"67 755 CURVE SMOOTH",
"67 378 OFFCURVE",
"602 450 OFFCURVE",
"602 269 CURVE SMOOTH",
"602 230 OFFCURVE",
"574 208 OFFCURVE",
"527 208 CURVE SMOOTH",
"441 208 OFFCURVE",
"356 272 OFFCURVE",
"323 376 CURVE",
"67 376 LINE",
"67 0 LINE",
"287 0 LINE",
"318 75 LINE",
"417 15 OFFCURVE",
"550 -18 OFFCURVE",
"696 -18 CURVE SMOOTH"
);
}
);
};
layerId = "BC722C43-F174-4026-9892-4620CE50CA16";
paths = (
{
closed = 1;
nodes = (
"967 -18 OFFCURVE",
"1126 118 OFFCURVE",
"1126 330 CURVE SMOOTH",
"1126 745 OFFCURVE",
"568 646 OFFCURVE",
"568 815 CURVE SMOOTH",
"568 852 OFFCURVE",
"598 875 OFFCURVE",
"666 875 CURVE SMOOTH",
"741 875 OFFCURVE",
"810 829 OFFCURVE",
"845 728 CURVE",
"1101 728 LINE",
"1101 1072 LINE",
"881 1072 LINE",
"857 1005 LINE",
"760 1065 OFFCURVE",
"650 1091 OFFCURVE",
"519 1091 CURVE SMOOTH",
"214 1091 OFFCURVE",
"67 940 OFFCURVE",
"67 755 CURVE SMOOTH",
"67 341 OFFCURVE",
"615 465 OFFCURVE",
"615 274 CURVE SMOOTH",
"615 233 OFFCURVE",
"585 208 OFFCURVE",
"527 208 CURVE SMOOTH",
"437 208 OFFCURVE",
"354 272 OFFCURVE",
"323 376 CURVE",
"67 376 LINE",
"67 0 LINE",
"287 0 LINE",
"318 75 LINE",
"417 15 OFFCURVE",
"550 -18 OFFCURVE",
"686 -18 CURVE SMOOTH"
);
}
);
width = 1173;
}
);
unicode = 0073;
userData = {
com.typemytype.robofont.layerData = {
};
};
},
{
color = 3;
glyphname = germandbls;
layers = (
{
background = {
paths = (
{
closed = 1;
nodes = (
"3065 -21 OFFCURVE",
"3314 103 OFFCURVE",
"3314 451 CURVE SMOOTH",
"3314 698 OFFCURVE",
"3148 835 OFFCURVE",
"2913 897 CURVE",
"3057 947 OFFCURVE",
"3139 1061 OFFCURVE",
"3139 1235 CURVE SMOOTH",
"3139 1501 OFFCURVE",
"2908 1623 OFFCURVE",
"2551 1623 CURVE SMOOTH",
"2144 1623 OFFCURVE",
"1918 1478 OFFCURVE",
"1918 1092 CURVE SMOOTH",
"1918 301 LINE",
"1790 301 LINE",
"1790 0 LINE",
"2550 0 LINE",
"2550 302 LINE",
"2399 301 LINE",
"2398 1131 LINE SMOOTH",
"2398 1228 OFFCURVE",
"2453 1274 OFFCURVE",
"2540 1274 CURVE SMOOTH",
"2645 1274 OFFCURVE",
"2686 1206 OFFCURVE",
"2686 1102 CURVE SMOOTH",
"2686 980 OFFCURVE",
"2611 899 OFFCURVE",
"2471 899 CURVE",
"2474 748 LINE",
"2692 748 OFFCURVE",
"2832 682 OFFCURVE",
"2832 539 CURVE SMOOTH",
"2832 448 OFFCURVE",
"2794 374 OFFCURVE",
"2687 346 CURVE",
"2688 -21 LINE"
);
},
{
closed = 1;
nodes = (
"1426 0 OFFCURVE",
"1647 162 OFFCURVE",
"1647 474 CURVE SMOOTH",
"1647 788 OFFCURVE",
"1399 944 OFFCURVE",
"1021 942 CURVE",
"1047 744 LINE",
"1442 1180 LINE",
"1442 1401 LINE",
"1294 1502 OFFCURVE",
"1066 1558 OFFCURVE",
"844 1558 CURVE SMOOTH",
"382 1558 OFFCURVE",
"167 1323 OFFCURVE",
"167 972 CURVE SMOOTH",
"167 310 LINE",
"7 310 LINE",
"7 0 LINE",
"782 0 LINE",
"782 300 LINE",
"647 300 LINE",
"647 1031 LINE SMOOTH",
"647 1188 OFFCURVE",
"755 1274 OFFCURVE",
"903 1274 CURVE SMOOTH",
"981 1274 OFFCURVE",
"1039 1264 OFFCURVE",
"1096 1239 CURVE",
"787 899 LINE",
"787 673 LINE",
"902 673 LINE SMOOTH",
"1067 673 OFFCURVE",
"1145 602 OFFCURVE",
"1145 487 CURVE SMOOTH",
"1145 375 OFFCURVE",
"1078 300 OFFCURVE",
"969 300 CURVE SMOOTH",
"922 300 LINE",
"922 0 LINE",
"1002 0 LINE SMOOTH"
);
}
);
};
layerId = "BC722C43-F174-4026-9892-4620CE50CA16";
paths = (
{
closed = 1;
nodes = (
"757 0 LINE",
"757 300 LINE",
"667 300 LINE",
"667 1051 LINE SMOOTH",
"667 1200 OFFCURVE",
"734 1274 OFFCURVE",
"849 1274 CURVE SMOOTH",
"948 1274 OFFCURVE",
"1010 1217 OFFCURVE",
"1010 1122 CURVE SMOOTH",
"1010 1015 OFFCURVE",
"950 953 OFFCURVE",
"834 953 CURVE SMOOTH",
"787 953 LINE",
"787 653 LINE",
"902 653 LINE SMOOTH",
"1026 653 OFFCURVE",
"1105 597 OFFCURVE",
"1105 477 CURVE SMOOTH",
"1105 357 OFFCURVE",
"1026 300 OFFCURVE",
"929 300 CURVE SMOOTH",
"897 300 LINE",
"897 0 LINE",
"982 0 LINE SMOOTH",
"1356 0 OFFCURVE",
"1578 162 OFFCURVE",
"1578 474 CURVE SMOOTH",
"1578 773 OFFCURVE",
"1349 914 OFFCURVE",
"971 912 CURVE",
"997 834 LINE",
"1222 834 OFFCURVE",
"1352 957 OFFCURVE",
"1352 1160 CURVE SMOOTH",
"1352 1391 OFFCURVE",
"1156 1558 OFFCURVE",
"814 1558 CURVE SMOOTH",
"457 1558 OFFCURVE",
"187 1364 OFFCURVE",
"187 972 CURVE SMOOTH",
"187 310 LINE",
"42 310 LINE",
"42 0 LINE"
);
}
);
width = 1636;
}
);
unicode = 00DF;
},
{
color = 3;
glyphname = t;
layers = (
{
anchors = (
{
name = bottom;
position = "{541, 0}";
},
{
name = cedilla;
position = "{553, 0}";
},
{
name = center;
position = "{427, 576}";
},
{
name = top;
position = "{427, 1345}";
},
{
name = topright;
position = "{767, 1769}";
}
);
background = {
paths = (
{
closed = 1;
nodes = (
"1663 -18 OFFCURVE",
"1765 -2 OFFCURVE",
"1859 41 CURVE",
"1859 320 LINE",
"1835 316 OFFCURVE",
"1815 314 OFFCURVE",
"1785 314 CURVE SMOOTH",
"1718 314 OFFCURVE",
"1667 357 OFFCURVE",
"1667 418 CURVE SMOOTH",
"1667 779 LINE",
"1859 779 LINE",
"1859 1072 LINE",
"1667 1072 LINE",
"1667 1406 LINE",
"1187 1301 LINE",
"1187 1072 LINE",
"1027 1072 LINE",
"1027 779 LINE",
"1187 779 LINE",
"1187 382 LINE SMOOTH",
"1187 115 OFFCURVE",
"1312 -18 OFFCURVE",
"1573 -18 CURVE SMOOTH"
);
},
{
closed = 1;
nodes = (
"784 -18 OFFCURVE",
"858 -8 OFFCURVE",
"934 10 CURVE",
"934 296 LINE",
"907 308 LINE",
"878 299 OFFCURVE",
"847 288 OFFCURVE",
"796 288 CURVE SMOOTH",
"706 288 OFFCURVE",
"667 335 OFFCURVE",
"667 415 CURVE SMOOTH",
"667 772 LINE",
"909 772 LINE",
"909 1072 LINE",
"667 1072 LINE",
"667 1406 LINE",
"187 1301 LINE",
"187 1072 LINE",
"22 1056 LINE",
"22 783 LINE",
"187 783 LINE",
"187 405 LINE SMOOTH",
"187 136 OFFCURVE",
"366 -18 OFFCURVE",
"692 -18 CURVE SMOOTH"
);
}
);
};
layerId = "BC722C43-F174-4026-9892-4620CE50CA16";
paths = (
{
closed = 1;
nodes = (
"769 -18 OFFCURVE",
"843 -8 OFFCURVE",
"919 10 CURVE",
"919 296 LINE",
"892 308 LINE",
"863 299 OFFCURVE",
"832 288 OFFCURVE",
"786 288 CURVE SMOOTH",
"706 288 OFFCURVE",
"667 335 OFFCURVE",
"667 415 CURVE SMOOTH",
"667 772 LINE",
"909 772 LINE",
"909 1072 LINE",
"667 1072 LINE",
"667 1406 LINE",
"187 1301 LINE",
"187 1061 LINE",
"22 1045 LINE",
"22 772 LINE",
"187 772 LINE",
"187 405 LINE SMOOTH",
"187 130 OFFCURVE",
"366 -18 OFFCURVE",
"682 -18 CURVE SMOOTH"
);
}
);
width = 929;
}
);
unicode = 0074;
userData = {
com.typemytype.robofont.layerData = {
};
};
},
{
color = 3;
glyphname = u;
layers = (
{
anchors = (
{
name = bottom;
position = "{773, 0}";
},
{
name = ogonek;
position = "{1404, 0}";
},
{
name = top;
position = "{773, 1072}";
}
);
background = {
paths = (
{
closed = 1;
nodes = (
"2278 -18 OFFCURVE",
"2391 51 OFFCURVE",
"2459 156 CURVE",
"2459 0 LINE",
"3067 0 LINE",
"3067 301 LINE",
"2939 301 LINE",
"2939 1092 LINE",
"2363 1032 LINE",
"2363 761 LINE",
"2459 761 LINE",
"2459 388 LINE SMOOTH",
"2459 329 OFFCURVE",
"2426 280 OFFCURVE",
"2363 280 CURVE SMOOTH",
"2307 280 OFFCURVE",
"2267 336 OFFCURVE",
"2267 386 CURVE SMOOTH",
"2267 1092 LINE",
"1659 1032 LINE",
"1659 761 LINE",
"1787 761 LINE",
"1787 385 LINE SMOOTH",
"1787 116 OFFCURVE",
"1897 -18 OFFCURVE",
"2110 -18 CURVE SMOOTH"
);
},
{
closed = 1;
nodes = (
"792 1032 LINE",
"792 759 LINE",
"882 759 LINE",
"882 205 LINE",
"892 160 LINE",
"892 0 LINE",
"1507 0 LINE",
"1507 300 LINE",
"1362 300 LINE",
"1362 1091 LINE"
);
},
{
closed = 1;
nodes = (
"47 1032 LINE",
"47 759 LINE",
"187 759 LINE",
"187 392 LINE SMOOTH",
"187 117 OFFCURVE",
"296 -19 OFFCURVE",
"537 -19 CURVE SMOOTH",
"686 -19 OFFCURVE",
"820 35 OFFCURVE",
"902 128 CURVE",
"902 356 LINE",
"882 356 LINE",
"852 309 OFFCURVE",
"803 281 OFFCURVE",
"758 281 CURVE SMOOTH",
"704 281 OFFCURVE",
"667 315 OFFCURVE",
"667 392 CURVE SMOOTH",
"667 1091 LINE"
);
}
);
};
layerId = "BC722C43-F174-4026-9892-4620CE50CA16";
paths = (
{
closed = 1;
nodes = (
"706 -19 OFFCURVE",
"818 35 OFFCURVE",
"899 128 CURVE",
"899 356 LINE",
"879 358 LINE",
"854 311 OFFCURVE",
"808 281 OFFCURVE",
"763 281 CURVE SMOOTH",
"707 281 OFFCURVE",
"667 315 OFFCURVE",
"667 396 CURVE SMOOTH",
"667 1091 LINE",
"47 1032 LINE",
"47 759 LINE",
"187 759 LINE",
"187 397 LINE SMOOTH",
"187 121 OFFCURVE",
"306 -19 OFFCURVE",
"557 -19 CURVE SMOOTH"
);
},
{
closed = 1;
nodes = (
"1504 0 LINE",
"1504 300 LINE",
"1359 300 LINE",
"1359 1091 LINE",
"789 1032 LINE",
"789 759 LINE",
"879 759 LINE",
"879 205 LINE",
"889 160 LINE",
"889 0 LINE"
);
}
);
width = 1546;
}
);
unicode = 0075;
userData = {
com.typemytype.robofont.layerData = {
};
};
},
{
color = 3;
glyphname = v;
layers = (
{
background = {
paths = (
{
closed = 1;
nodes = (
"974 0 LINE",
"1287 761 LINE",
"1422 761 LINE",
"1422 1072 LINE",
"878 1072 LINE",
"878 761 LINE",
"1006 761 LINE",
"814 258 LINE",
"640 761 LINE",
"750 761 LINE",
"750 1072 LINE",
"-18 1072 LINE",
"-18 761 LINE",
"130 761 LINE",
"463 0 LINE"
);
}
);
};
layerId = "BC722C43-F174-4026-9892-4620CE50CA16";
paths = (
{
closed = 1;
nodes = (
"980 0 LINE",
"1289 772 LINE",
"1384 772 LINE",
"1384 1072 LINE",
"877 1072 LINE",
"877 772 LINE",
"997 772 LINE",
"756 153 LINE",
"852 153 LINE",
"632 772 LINE",
"752 772 LINE",
"752 1072 LINE",
"29 1072 LINE",
"29 772 LINE",
"124 772 LINE",
"433 0 LINE"
);
}
);
width = 1413;
}
);
unicode = 0076;
userData = {
com.typemytype.robofont.layerData = {
};
};
},
{
color = 3;
glyphname = w;
layers = (
{
anchors = (
{
name = bottom;
position = "{1058, 0}";
},
{
name = top;
position = "{1156, 1072}";
}
);
background = {
paths = (
{
closed = 1;
nodes = (
"840 0 LINE",
"991 430 LINE",
"1121 0 LINE",
"1596 0 LINE",
"1822 761 LINE",
"1957 761 LINE",
"1957 1072 LINE",
"1407 1072 LINE",
"1407 761 LINE",
"1525 761 LINE",
"1426 379 LINE",
"1208 1072 LINE",
"942 1072 LINE",
"732 392 LINE",
"639 761 LINE",
"733 761 LINE",
"733 1072 LINE",
"25 1072 LINE",
"25 761 LINE",
"158 761 LINE",
"396 0 LINE"
);
},
{
closed = 1;
nodes = (
"3767 772 LINE",
"3847 772 LINE",
"3646 153 LINE",
"3742 153 LINE",
"3475 1072 LINE",
"3127 1072 LINE",
"2829 153 LINE",
"2925 153 LINE",
"2745 772 LINE",
"2825 772 LINE",
"2825 1072 LINE",
"2132 1072 LINE",
"2132 772 LINE",
"2237 772 LINE",
"2506 0 LINE",
"3053 0 LINE",
"3261 597 LINE",
"3115 597 LINE",
"3323 0 LINE",
"3870 0 LINE",
"4139 772 LINE",
"4244 772 LINE",
"4244 1072 LINE",
"3767 1072 LINE"
);
}
);
};
layerId = "BC722C43-F174-4026-9892-4620CE50CA16";
paths = (
{
closed = 1;
nodes = (
"921 0 LINE",
"1129 615 LINE",
"987 615 LINE",
"1195 0 LINE",
"1710 0 LINE",
"1979 772 LINE",
"2074 772 LINE",
"2074 1072 LINE",
"1567 1072 LINE",
"1567 772 LINE",
"1687 772 LINE",
"1486 153 LINE",
"1582 153 LINE",
"1315 1072 LINE",
"997 1072 LINE",
"699 153 LINE",
"825 153 LINE",
"645 772 LINE",
"765 772 LINE",
"765 1072 LINE",
"42 1072 LINE",
"42 772 LINE",
"137 772 LINE",
"406 0 LINE"
);
}
);
width = 2116;
}
);
unicode = 0077;
},
{
color = 3;
glyphname = x;
layers = (
{
background = {
paths = (
{
closed = 1;
nodes = (
"1685 300 LINE",
"1545 300 LINE",
"1545 0 LINE",
"1795 0 LINE",
"2541 772 LINE",
"2681 772 LINE",
"2681 1072 LINE",
"2431 1072 LINE"
);
},
{
closed = 1;
nodes = (
"2050 1072 LINE",
"1555 1072 LINE",
"1555 772 LINE",
"1685 772 LINE",
"2196 0 LINE",
"2691 0 LINE",
"2691 300 LINE",
"2561 300 LINE"
);
},
{
closed = 1;
nodes = (
"713 733 LINE",
"369 623 LINE",
"185 300 LINE",
"45 300 LINE",
"45 0 LINE",
"365 0 LINE",
"523 339 LINE",
"857 449 LINE",
"1041 772 LINE",
"1171 772 LINE",
"1171 1072 LINE",
"871 1072 LINE"
);
},
{
closed = 1;
nodes = (
"832 647 LINE",
"755 763 LINE",
"550 1072 LINE",
"65 1072 LINE",
"65 772 LINE",
"185 772 LINE",
"414 425 LINE",
"491 309 LINE",
"696 0 LINE",
"1191 0 LINE",
"1191 300 LINE",
"1061 300 LINE"
);
}
);
};
layerId = "BC722C43-F174-4026-9892-4620CE50CA16";
paths = (
{
closed = 1;
nodes = (
"1231 0 LINE",
"1231 300 LINE",
"1096 300 LINE",
"598 1072 LINE",
"66 1072 LINE",
"66 772 LINE",
"196 772 LINE",
"689 0 LINE"
);
},
{
closed = 1;
nodes = (
"376 0 LINE",
"540 339 LINE",
"885 449 LINE",
"1075 772 LINE",
"1210 772 LINE",
"1210 1072 LINE",
"900 1072 LINE",
"736 733 LINE",
"380 623 LINE",
"190 300 LINE",
"45 300 LINE",
"45 0 LINE"
);
}
);
width = 1276;
}
);
unicode = 0078;
},
{
color = 3;
glyphname = y;
layers = (
{
anchors = (
{
name = bottom;
position = "{1260, 44}";
},
{
name = top;
position = "{748, 1072}";
}
);
background = {
paths = (
{
closed = 1;
nodes = (
"1011 -377 LINE",
"1011 -62 LINE",
"859 -62 LINE",
"1294 761 LINE",
"1403 761 LINE",
"1403 1072 LINE",
"843 1072 LINE",
"843 761 LINE",
"953 761 LINE",
"801 454 LINE",
"635 761 LINE",
"733 761 LINE",
"733 1072 LINE",
"-17 1072 LINE",
"-17 761 LINE",
"111 761 LINE",
"577 31 LINE",
"522 -62 LINE",
"320 -62 LINE",
"320 -377 LINE"
);
},
{
closed = 1;
nodes = (
"-840 0 LINE",
"-451 772 LINE",
"-356 772 LINE",
"-356 1072 LINE",
"-863 1072 LINE",
"-863 772 LINE",
"-743 772 LINE",
"-1124 0 LINE",
"-694 0 LINE",
"-1108 772 LINE",
"-988 772 LINE",
"-988 1072 LINE",
"-1711 1072 LINE",
"-1711 772 LINE",
"-1616 772 LINE",
"-1167 0 LINE"
);
}
);
};
layerId = "BC722C43-F174-4026-9892-4620CE50CA16";
paths = (
{
closed = 1;
nodes = (
"1001 -398 LINE",
"1001 -98 LINE",
"856 -98 LINE",
"1289 772 LINE",
"1384 772 LINE",
"1384 1072 LINE",
"877 1072 LINE",
"877 772 LINE",
"997 772 LINE",
"564 -98 LINE",
"317 -98 LINE",
"317 -398 LINE"
);
},
{
closed = 1;
nodes = (
"890 304 LINE",
"632 772 LINE",
"752 772 LINE",
"752 1072 LINE",
"29 1072 LINE",
"29 772 LINE",
"124 772 LINE",
"623 -66 LINE"
);
}
);
width = 1413;
}
);
unicode = 0079;
},
{
glyphname = z;
layers = (
{
anchors = (
{
name = bottom;
position = "{633, 0}";
},
{
name = top;
position = "{633, 1072}";
}
);
layerId = "BC722C43-F174-4026-9892-4620CE50CA16";
paths = (
{
closed = 1;
nodes = (
"1180 0 LINE",
"1180 440 LINE",
"960 440 LINE",
"940 235 LINE",
"690 235 LINE",
"1160 812 LINE",
"1160 1072 LINE",
"85 1072 LINE",
"85 672 LINE",
"305 672 LINE",
"325 837 LINE",
"565 837 LINE",
"85 260 LINE",
"85 0 LINE"
);
}
);
width = 1245;
}
);
unicode = 007A;
},
{
color = 3;
glyphname = Eth;
layers = (
{
background = {
paths = (
{
closed = 1;
nodes = (
"893 0 LINE SMOOTH",
"1028 0 OFFCURVE",
"1150 22 OFFCURVE",
"1259 67 CURVE SMOOTH",
"1368 112 OFFCURVE",
"1457 172 OFFCURVE",
"1526 248 CURVE SMOOTH",
"1595 324 OFFCURVE",
"1648 410 OFFCURVE",
"1685 507 CURVE SMOOTH",
"1722 604 OFFCURVE",
"1740 707 OFFCURVE",
"1740 816 CURVE SMOOTH",
"1740 1080 OFFCURVE",
"1672 1280 OFFCURVE",
"1535 1417 CURVE SMOOTH",
"1398 1554 OFFCURVE",
"1192 1622 OFFCURVE",
"917 1622 CURVE SMOOTH",
"87 1622 LINE",
"87 1270 LINE",
"256 1270 LINE",
"254 936 LINE",
"254 669 LINE",
"254 351 LINE",
"91 351 LINE",
"91 0 LINE"
);
},
{
closed = 1;
nodes = (
"788 653 LINE",
"788 952 LINE",
"124 952 LINE",
"124 653 LINE"
);
},
{
closed = 1;
nodes = (
"788 952 LINE",
"889 952 LINE",
"889 653 LINE",
"788 653 LINE"
);
},
{
closed = 1;
nodes = (
"838 350 LINE",
"807 350 LINE",
"803 753 LINE",
"803 1052 LINE",
"803 1170 LINE",
"803 1269 LINE",
"850 1269 LINE SMOOTH",
"899 1269 OFFCURVE",
"942 1259 OFFCURVE",
"979 1240 CURVE SMOOTH",
"1016 1221 OFFCURVE",
"1045 1197 OFFCURVE",
"1066 1168 CURVE SMOOTH",
"1087 1139 OFFCURVE",
"1103 1103 OFFCURVE",
"1115 1061 CURVE SMOOTH",
"1127 1019 OFFCURVE",
"1135 979 OFFCURVE",
"1139 941 CURVE SMOOTH",
"1143 903 OFFCURVE",
"1145 861 OFFCURVE",
"1145 815 CURVE SMOOTH",
"1145 770 OFFCURVE",
"1142 727 OFFCURVE",
"1137 687 CURVE SMOOTH",
"1132 647 OFFCURVE",
"1122 605 OFFCURVE",
"1108 562 CURVE SMOOTH",
"1094 519 OFFCURVE",
"1076 482 OFFCURVE",
"1054 452 CURVE SMOOTH",
"1032 422 OFFCURVE",
"1002 397 OFFCURVE",
"965 377 CURVE SMOOTH",
"928 357 OFFCURVE",
"885 347 OFFCURVE",
"836 347 CURVE"
);
}
);
};
components = (
{
name = D;
},
{
name = strokeshortcomb.case;
transform = "{1, 0, 0, 1, -32, -6}";
}
);
layerId = "BC722C43-F174-4026-9892-4620CE50CA16";
width = 1758;
}
);
unicode = 00D0;
},
{
color = 3;
glyphname = Hbar;
layers = (
{
background = {
paths = (
{
closed = 1;
nodes = (
"867 0 LINE",
"867 345 LINE",
"732 345 LINE",
"732 639 LINE",
"1152 639 LINE",
"1152 345 LINE",
"1017 345 LINE",
"1017 0 LINE",
"1820 0 LINE",
"1820 345 LINE",
"1660 345 LINE",
"1660 1247 LINE",
"1820 1247 LINE",
"1820 1592 LINE",
"1017 1592 LINE",
"1017 1247 LINE",
"1152 1247 LINE",
"1152 967 LINE",
"732 967 LINE",
"732 1247 LINE",
"867 1247 LINE",
"867 1592 LINE",
"64 1592 LINE",
"64 1247 LINE",
"224 1247 LINE",
"224 345 LINE",
"64 345 LINE",
"64 0 LINE"
);
},
{
closed = 1;
nodes = (
"64 1043 LINE",
"1820 1043 LINE",
"1820 1176 LINE",
"64 1176 LINE"
);
}
);
};
layerId = "BC722C43-F174-4026-9892-4620CE50CA16";
paths = (
{
closed = 1;
nodes = (
"867 0 LINE",
"867 345 LINE",
"732 345 LINE",
"732 639 LINE",
"1152 639 LINE",
"1152 345 LINE",
"1017 345 LINE",
"1017 0 LINE",
"1820 0 LINE",
"1820 345 LINE",
"1660 345 LINE",
"1660 1247 LINE",
"1820 1247 LINE",
"1820 1592 LINE",
"1017 1592 LINE",
"1017 1247 LINE",
"1152 1247 LINE",
"1152 917 LINE",
"732 917 LINE",
"732 1247 LINE",
"867 1247 LINE",
"867 1592 LINE",
"64 1592 LINE",
"64 1247 LINE",
"224 1247 LINE",
"224 345 LINE",
"64 345 LINE",
"64 0 LINE"
);
},
{
closed = 1;
nodes = (
"1790 993 LINE",
"1790 1176 LINE",
"94 1176 LINE",
"94 993 LINE"
);
}
);
width = 1884;
}
);
leftMetricsKey = "=H";
rightMetricsKey = "=H";
unicode = 0126;
},
{
color = 3;
glyphname = IJ;
layers = (
{
anchors = (
{
name = top;
position = "{500, 1592}";
}
);
background = {
paths = (
{
closed = 1;
nodes = (
"745 1015 LINE",
"745 1247 LINE",
"860 1247 LINE",
"860 1592 LINE",
"110 1592 LINE",
"110 1247 LINE",
"255 1247 LINE",
"255 1015 LINE",
"110 1015 LINE",
"110 670 LINE",
"860 670 LINE",
"860 1015 LINE"
);
},
{
closed = 1;
nodes = (
"1004 1247 LINE",
"1119 1247 LINE",
"1119 684 LINE SMOOTH",
"1119 401 OFFCURVE",
"990 324 OFFCURVE",
"877 324 CURVE SMOOTH",
"754 324 OFFCURVE",
"661 390 OFFCURVE",
"625 549 CURVE",
"255 549 LINE",
"255 0 LINE",
"530 0 LINE",
"581 157 LINE",
"679 34 OFFCURVE",
"849 -29 OFFCURVE",
"1024 -29 CURVE SMOOTH",
"1381 -29 OFFCURVE",
"1639 186 OFFCURVE",
"1639 685 CURVE SMOOTH",
"1639 1247 LINE",
"1784 1247 LINE",
"1784 1592 LINE",
"1004 1592 LINE"
);
}
);
};
layerId = "BC722C43-F174-4026-9892-4620CE50CA16";
paths = (
{
closed = 1;
nodes = (
"1316 -29 OFFCURVE",
"1639 268 OFFCURVE",
"1639 791 CURVE SMOOTH",
"1639 1247 LINE",
"1784 1247 LINE",
"1784 1592 LINE",
"1004 1592 LINE",
"1004 1247 LINE",
"1119 1247 LINE",
"1119 817 LINE SMOOTH",
"1119 531 OFFCURVE",
"990 406 OFFCURVE",
"730 406 CURVE SMOOTH",
"558 406 OFFCURVE",
"408 458 OFFCURVE",
"282 569 CURVE",
"255 557 LINE",
"255 135 LINE",
"402 22 OFFCURVE",
"616 -29 OFFCURVE",
"823 -29 CURVE SMOOTH"
);
},
{
closed = 1;
nodes = (
"860 670 LINE",
"860 1015 LINE",
"745 1015 LINE",
"745 1247 LINE",
"860 1247 LINE",
"860 1592 LINE",
"110 1592 LINE",
"110 1247 LINE",
"255 1247 LINE",
"255 1015 LINE",
"110 1015 LINE",
"110 670 LINE"
);
}
);
width = 1811;
}
);
unicode = 0132;
userData = {
com.typemytype.robofont.layerData = {
};
};
},
{
color = 3;
glyphname = Ldot;
layers = (
{
background = {
paths = (
{
closed = 1;
nodes = (
"64 1592 LINE",
"64 1247 LINE",
"224 1247 LINE",
"224 345 LINE",
"64 345 LINE",
"64 0 LINE",
"1440 0 LINE",
"1440 593 LINE",
"1110 593 LINE",
"1070 340 LINE",
"744 340 LINE",
"744 1247 LINE",
"964 1247 LINE",
"964 1592 LINE"
);
},
{
closed = 1;
nodes = (
"1358 709 OFFCURVE",
"1477 810 OFFCURVE",
"1477 970 CURVE SMOOTH",
"1477 1134 OFFCURVE",
"1353 1225 OFFCURVE",
"1190 1225 CURVE SMOOTH",
"1035 1225 OFFCURVE",
"912 1135 OFFCURVE",
"912 970 CURVE SMOOTH",
"912 806 OFFCURVE",
"1034 709 OFFCURVE",
"1190 709 CURVE SMOOTH"
);
}
);
};
layerId = "BC722C43-F174-4026-9892-4620CE50CA16";
paths = (
{
closed = 1;
nodes = (
"1440 0 LINE",
"1440 593 LINE",
"1110 593 LINE",
"1070 340 LINE",
"744 340 LINE",
"744 1247 LINE",
"964 1247 LINE",
"964 1592 LINE",
"64 1592 LINE",
"64 1247 LINE",
"224 1247 LINE",
"224 345 LINE",
"64 345 LINE",
"64 0 LINE"
);
},
{
closed = 1;
nodes = (
"1361 790 OFFCURVE",
"1450 859 OFFCURVE",
"1450 970 CURVE SMOOTH",
"1450 1078 OFFCURVE",
"1366 1147 OFFCURVE",
"1247 1147 CURVE SMOOTH",
"1129 1147 OFFCURVE",
"1044 1078 OFFCURVE",
"1044 970 CURVE SMOOTH",
"1044 859 OFFCURVE",
"1134 790 OFFCURVE",
"1247 790 CURVE SMOOTH"
);
}
);
width = 1485;
}
);
leftMetricsKey = L;
widthMetricsKey = L;
unicode = 013F;
},
{
color = 3;
glyphname = Lslash;
layers = (
{
background = {
components = (
{
name = slashshortcomb.case;
}
);
paths = (
{
closed = 1;
nodes = (
"1387 0 LINE",
"1387 709 LINE",
"1101 709 LINE",
"1014 359 LINE",
"823 359 LINE",
"823 1270 LINE",
"977 1270 LINE",
"977 1622 LINE",
"109 1622 LINE",
"109 1270 LINE",
"256 1270 LINE",
"256 359 LINE",
"113 359 LINE",
"114 0 LINE"
);
}
);
};
components = (
{
name = L;
},
{
alignment = 1;
name = slashshortcomb.case;
transform = "{1, 0, 0, 1, -78, -19}";
}
);
layerId = "BC722C43-F174-4026-9892-4620CE50CA16";
width = 1485;
}
);
unicode = 0141;
},
{
color = 3;
glyphname = Eng;
layers = (
{
background = {
paths = (
{
closed = 1;
nodes = (
"710 0 LINE",
"710 345 LINE",
"550 345 LINE",
"550 1180 LINE",
"481 1025 LINE",
"1097 -1 LINE",
"1654 0 LINE",
"1654 1247 LINE",
"1814 1247 LINE",
"1814 1592 LINE",
"1168 1592 LINE",
"1168 1247 LINE",
"1328 1247 LINE",
"1328 412 LINE",
"1397 567 LINE",
"779 1592 LINE",
"64 1592 LINE",
"64 1247 LINE",
"224 1247 LINE",
"224 345 LINE",
"64 345 LINE",
"64 0 LINE"
);
},
{
closed = 1;
nodes = (
"1328 665 LINE",
"1328 40 LINE SMOOTH",
"1328 -73 OFFCURVE",
"1290 -108 OFFCURVE",
"1168 -108 CURVE",
"1168 -408 LINE",
"1634 -408 OFFCURVE",
"1808 -270 OFFCURVE",
"1808 101 CURVE SMOOTH",
"1808 665 LINE"
);
},
{
closed = 1;
nodes = (
"1168 1247 LINE",
"1328 1247 LINE",
"1328 698 LINE",
"579 1592 LINE",
"64 1592 LINE",
"64 1247 LINE",
"224 1247 LINE",
"224 345 LINE",
"64 345 LINE",
"64 0 LINE",
"710 0 LINE",
"710 345 LINE",
"550 345 LINE",
"550 942 LINE",
"1327 9 LINE",
"1327 -80 OFFCURVE",
"1278 -108 OFFCURVE",
"1168 -108 CURVE",
"1168 -408 LINE",
"1522 -408 OFFCURVE",
"1654 -240 OFFCURVE",
"1654 40 CURVE SMOOTH",
"1654 1247 LINE",
"1814 1247 LINE",
"1814 1592 LINE",
"1168 1592 LINE"
);
}
);
};
layerId = "BC722C43-F174-4026-9892-4620CE50CA16";
paths = (
{
closed = 1;
nodes = (
"1108 -408 LINE SMOOTH",
"1452 -408 OFFCURVE",
"1584 -220 OFFCURVE",
"1584 70 CURVE SMOOTH",
"1584 1247 LINE",
"1744 1247 LINE",
"1744 1592 LINE",
"1118 1592 LINE",
"1118 1247 LINE",
"1258 1247 LINE",
"1258 788 LINE",
"579 1592 LINE",
"64 1592 LINE",
"64 1247 LINE",
"224 1247 LINE",
"224 345 LINE",
"64 345 LINE",
"64 0 LINE",
"690 0 LINE",
"690 345 LINE",
"550 345 LINE",
"550 902 LINE",
"1257 59 LINE",
"1257 8 LINE SMOOTH",
"1257 -74 OFFCURVE",
"1198 -108 OFFCURVE",
"1098 -108 CURVE SMOOTH",
"1068 -108 LINE",
"1068 -408 LINE"
);
}
);
width = 1808;
}
);
leftMetricsKey = N;
rightMetricsKey = N;
unicode = 014A;
},
{
color = 3;
glyphname = Ohorn;
layers = (
{
anchors = (
{
name = bottom;
position = "{872, 0}";
},
{
name = ogonek;
position = "{984, 0}";
},
{
name = top;
position = "{872, 1592}";
}
);
background = {
paths = (
{
closed = 1;
nodes = (
"1367 -29 OFFCURVE",
"1672 285 OFFCURVE",
"1672 794 CURVE SMOOTH",
"1672 1306 OFFCURVE",
"1367 1621 OFFCURVE",
"872 1621 CURVE SMOOTH",
"377 1621 OFFCURVE",
"72 1306 OFFCURVE",
"72 794 CURVE SMOOTH",
"72 285 OFFCURVE",
"377 -29 OFFCURVE",
"872 -29 CURVE SMOOTH"
);
},
{
closed = 1;
nodes = (
"723 316 OFFCURVE",
"640 481 OFFCURVE",
"640 797 CURVE SMOOTH",
"640 1113 OFFCURVE",
"723 1278 OFFCURVE",
"872 1278 CURVE SMOOTH",
"1021 1278 OFFCURVE",
"1104 1113 OFFCURVE",
"1104 797 CURVE SMOOTH",
"1104 481 OFFCURVE",
"1021 316 OFFCURVE",
"872 316 CURVE SMOOTH"
);
}
);
};
layerId = "BC722C43-F174-4026-9892-4620CE50CA16";
paths = (
{
closed = 1;
nodes = (
"1367 -29 OFFCURVE",
"1672 285 OFFCURVE",
"1672 794 CURVE SMOOTH",
"1672 1102 OFFCURVE",
"1560 1346 OFFCURVE",
"1355 1486 CURVE",
"1288 1354 LINE",
"1530 1354 OFFCURVE",
"1672 1485 OFFCURVE",
"1672 1707 CURVE SMOOTH",
"1672 1816 LINE",
"1332 1816 LINE",
"1332 1717 LINE SMOOTH",
"1332 1622 OFFCURVE",
"1299 1578 OFFCURVE",
"1218 1578 CURVE SMOOTH",
"1136 1578 OFFCURVE",
"1045 1621 OFFCURVE",
"872 1621 CURVE SMOOTH",
"377 1621 OFFCURVE",
"74 1306 OFFCURVE",
"73 798 CURVE SMOOTH",
"72 285 OFFCURVE",
"377 -29 OFFCURVE",
"872 -29 CURVE SMOOTH"
);
},
{
closed = 1;
nodes = (
"723 316 OFFCURVE",
"640 481 OFFCURVE",
"640 797 CURVE SMOOTH",
"640 1113 OFFCURVE",
"723 1278 OFFCURVE",
"872 1278 CURVE SMOOTH",
"1021 1278 OFFCURVE",
"1104 1113 OFFCURVE",
"1104 797 CURVE SMOOTH",
"1104 481 OFFCURVE",
"1021 316 OFFCURVE",
"872 316 CURVE SMOOTH"
);
}
);
width = 1746;
}
);
leftMetricsKey = O;
widthMetricsKey = O;
unicode = 01A0;
},
{
color = 3;
glyphname = Oogonek;
layers = (
{
anchors = (
{
name = top;
position = "{873, 1592}";
}
);
background = {
paths = (
{
closed = 1;
nodes = (
"1368 -29 OFFCURVE",
"1673 285 OFFCURVE",
"1673 794 CURVE SMOOTH",
"1673 1306 OFFCURVE",
"1368 1621 OFFCURVE",
"873 1621 CURVE SMOOTH",
"378 1621 OFFCURVE",
"73 1306 OFFCURVE",
"73 794 CURVE SMOOTH",
"73 285 OFFCURVE",
"378 -29 OFFCURVE",
"873 -29 CURVE SMOOTH"
);
},
{
closed = 1;
nodes = (
"724 316 OFFCURVE",
"641 481 OFFCURVE",
"641 797 CURVE SMOOTH",
"641 1113 OFFCURVE",
"724 1278 OFFCURVE",
"873 1278 CURVE SMOOTH",
"1022 1278 OFFCURVE",
"1105 1113 OFFCURVE",
"1105 797 CURVE SMOOTH",
"1105 481 OFFCURVE",
"1022 316 OFFCURVE",
"873 316 CURVE SMOOTH"
);
},
{
closed = 1;
nodes = (
"1025 -468 OFFCURVE",
"1068 -464 OFFCURVE",
"1122 -451 CURVE",
"1122 -256 LINE",
"1091 -262 OFFCURVE",
"1060 -265 OFFCURVE",
"1029 -265 CURVE SMOOTH",
"935 -265 OFFCURVE",
"895 -220 OFFCURVE",
"895 -151 CURVE SMOOTH",
"895 -66 OFFCURVE",
"959 0 OFFCURVE",
"1094 0 CURVE",
"822 0 LINE",
"709 -52 OFFCURVE",
"663 -136 OFFCURVE",
"663 -226 CURVE SMOOTH",
"663 -387 OFFCURVE",
"805 -468 OFFCURVE",
"981 -468 CURVE SMOOTH"
);
}
);
};
layerId = "BC722C43-F174-4026-9892-4620CE50CA16";
paths = (
{
closed = 1;
nodes = (
"1025 -468 OFFCURVE",
"1068 -464 OFFCURVE",
"1122 -451 CURVE",
"1122 -256 LINE",
"1091 -262 OFFCURVE",
"1060 -265 OFFCURVE",
"1029 -265 CURVE SMOOTH",
"935 -265 OFFCURVE",
"895 -220 OFFCURVE",
"895 -161 CURVE SMOOTH",
"895 -92 OFFCURVE",
"951 -43 OFFCURVE",
"1118 0 CURVE SMOOTH",
"1467 89 OFFCURVE",
"1673 375 OFFCURVE",
"1673 794 CURVE SMOOTH",
"1673 1306 OFFCURVE",
"1368 1621 OFFCURVE",
"873 1621 CURVE SMOOTH",
"378 1621 OFFCURVE",
"73 1306 OFFCURVE",
"73 794 CURVE SMOOTH",
"73 319 OFFCURVE",
"339 14 OFFCURVE",
"783 -25 CURVE",
"694 -77 OFFCURVE",
"663 -149 OFFCURVE",
"663 -226 CURVE SMOOTH",
"663 -387 OFFCURVE",
"805 -468 OFFCURVE",
"981 -468 CURVE SMOOTH"
);
},
{
closed = 1;
nodes = (
"724 316 OFFCURVE",
"641 481 OFFCURVE",
"641 797 CURVE SMOOTH",
"641 1113 OFFCURVE",
"724 1278 OFFCURVE",
"873 1278 CURVE SMOOTH",
"1022 1278 OFFCURVE",
"1105 1113 OFFCURVE",
"1105 797 CURVE SMOOTH",
"1105 481 OFFCURVE",
"1022 316 OFFCURVE",
"873 316 CURVE SMOOTH"
);
}
);
width = 1746;
}
);
leftMetricsKey = O;
rightMetricsKey = O;
unicode = 01EA;
},
{
color = 3;
glyphname = Oslash;
layers = (
{
anchors = (
{
name = bottom;
position = "{873, 0}";
},
{
name = top;
position = "{873, 1592}";
}
);
background = {
paths = (
{
closed = 1;
nodes = (
"782 -23 LINE",
"816 -27 OFFCURVE",
"851 -29 OFFCURVE",
"886 -29 CURVE SMOOTH",
"1394 -29 OFFCURVE",
"1706 372 OFFCURVE",
"1706 808 CURVE SMOOTH",
"1706 1203 OFFCURVE",
"1509 1510 OFFCURVE",
"1152 1616 CURVE",
"1188 1774 LINE",
"1035 1804 LINE",
"998 1646 LINE",
"956 1651 OFFCURVE",
"919 1653 OFFCURVE",
"887 1653 CURVE SMOOTH",
"356 1653 OFFCURVE",
"67 1272 OFFCURVE",
"67 807 CURVE SMOOTH",
"67 435 OFFCURVE",
"281 123 OFFCURVE",
"622 10 CURVE",
"582 -155 LINE",
"744 -194 LINE"
);
},
{
closed = 1;
nodes = (
"685 513 OFFCURVE",
"677 595 OFFCURVE",
"677 854 CURVE SMOOTH",
"677 1063 OFFCURVE",
"702 1294 OFFCURVE",
"888 1294 CURVE SMOOTH",
"895 1294 OFFCURVE",
"910 1293 OFFCURVE",
"918 1292 CURVE",
"720 436 LINE"
);
},
{
closed = 1;
nodes = (
"875 309 OFFCURVE",
"868 310 OFFCURVE",
"860 313 CURVE",
"1054 1178 LINE",
"1088 1104 OFFCURVE",
"1096 1023 OFFCURVE",
"1096 782 CURVE SMOOTH",
"1096 549 OFFCURVE",
"1072 309 OFFCURVE",
"884 309 CURVE SMOOTH"
);
}
);
};
components = (
{
name = O;
},
{
alignment = 1;
name = slashlongcomb.case;
transform = "{1, 0, 0, 1, -12, 0}";
}
);
layerId = "BC722C43-F174-4026-9892-4620CE50CA16";
width = 1746;
}
);
unicode = 00D8;
},
{
color = 3;
glyphname = OE;
layers = (
{
anchors = (
{
name = bottom;
position = "{1278, 0}";
},
{
name = top;
position = "{1278, 1592}";
}
);
background = {
paths = (
{
closed = 1;
nodes = (
"1950 959 LINE",
"2280 959 LINE",
"2280 1592 LINE",
"979 1592 LINE SMOOTH",
"385 1592 OFFCURVE",
"73 1318 OFFCURVE",
"73 798 CURVE SMOOTH",
"73 277 OFFCURVE",
"387 0 OFFCURVE",
"978 0 CURVE SMOOTH",
"2280 0 LINE",
"2280 677 LINE",
"1950 677 LINE",
"1915 340 LINE",
"1532 340 LINE",
"1532 642 LINE",
"1802 642 LINE",
"1802 982 LINE",
"1532 982 LINE",
"1532 1252 LINE",
"1915 1252 LINE"
);
},
{
closed = 1;
nodes = (
"969 335 LINE SMOOTH",
"732 335 OFFCURVE",
"639 464 OFFCURVE",
"639 795 CURVE SMOOTH",
"639 1127 OFFCURVE",
"732 1257 OFFCURVE",
"969 1257 CURVE SMOOTH",
"1024 1257 LINE",
"1024 335 LINE"
);
}
);
};
layerId = "BC722C43-F174-4026-9892-4620CE50CA16";
paths = (
{
closed = 1;
nodes = (
"2280 0 LINE",
"2280 677 LINE",
"1950 677 LINE",
"1915 340 LINE",
"1532 340 LINE",
"1532 642 LINE",
"1802 642 LINE",
"1802 982 LINE",
"1532 982 LINE",
"1532 1252 LINE",
"1915 1252 LINE",
"1950 959 LINE",
"2280 959 LINE",
"2280 1592 LINE",
"1029 1592 LINE SMOOTH",
"385 1592 OFFCURVE",
"73 1318 OFFCURVE",
"73 798 CURVE SMOOTH",
"73 277 OFFCURVE",
"387 0 OFFCURVE",
"1028 0 CURVE SMOOTH"
);
},
{
closed = 1;
nodes = (
"732 335 OFFCURVE",
"639 464 OFFCURVE",
"639 795 CURVE SMOOTH",
"639 1127 OFFCURVE",
"732 1257 OFFCURVE",
"969 1257 CURVE SMOOTH",
"1024 1257 LINE",
"1024 335 LINE",
"969 335 LINE SMOOTH"
);
}
);
width = 2402;
}
);
leftMetricsKey = O;
rightMetricsKey = E;
unicode = 0152;
},
{
color = 3;
glyphname = Thorn;
layers = (
{
background = {
paths = (
{
closed = 1;
nodes = (
"2539 0 LINE",
"2539 363 LINE",
"2393 363 LINE",
"2393 569 LINE",
"2446 562 OFFCURVE",
"2496 559 OFFCURVE",
"2543 559 CURVE SMOOTH",
"2644 559 OFFCURVE",
"2734 568 OFFCURVE",
"2813 587 CURVE SMOOTH",
"2892 606 OFFCURVE",
"2961 635 OFFCURVE",
"3020 675 CURVE SMOOTH",
"3079 715 OFFCURVE",
"3124 768 OFFCURVE",
"3155 834 CURVE SMOOTH",
"3186 900 OFFCURVE",
"3202 977 OFFCURVE",
"3202 1066 CURVE SMOOTH",
"3202 1115 OFFCURVE",
"3197 1160 OFFCURVE",
"3187 1201 CURVE SMOOTH",
"3177 1242 OFFCURVE",
"3163 1277 OFFCURVE",
"3146 1307 CURVE SMOOTH",
"3129 1337 OFFCURVE",
"3107 1364 OFFCURVE",
"3080 1388 CURVE SMOOTH",
"3053 1412 OFFCURVE",
"3025 1432 OFFCURVE",
"2996 1448 CURVE SMOOTH",
"2967 1464 OFFCURVE",
"2933 1478 OFFCURVE",
"2893 1490 CURVE SMOOTH",
"2853 1502 OFFCURVE",
"2815 1511 OFFCURVE",
"2779 1518 CURVE SMOOTH",
"2743 1525 OFFCURVE",
"2701 1530 OFFCURVE",
"2654 1534 CURVE SMOOTH",
"2607 1538 OFFCURVE",
"2564 1540 OFFCURVE",
"2525 1541 CURVE SMOOTH",
"2486 1542 OFFCURVE",
"2442 1542 OFFCURVE",
"2393 1542 CURVE",
"2394 1842 LINE",
"1684 1842 LINE",
"1684 1487 LINE",
"1835 1487 LINE",
"1835 362 LINE",
"1678 363 LINE",
"1678 0 LINE"
);
},
{
closed = 1;
nodes = (
"2394 1207 LINE",
"2498 1207 LINE SMOOTH",
"2549 1207 OFFCURVE",
"2592 1194 OFFCURVE",
"2628 1169 CURVE SMOOTH",
"2664 1144 OFFCURVE",
"2682 1106 OFFCURVE",
"2682 1055 CURVE SMOOTH",
"2682 998 OFFCURVE",
"2662 957 OFFCURVE",
"2623 932 CURVE SMOOTH",
"2584 907 OFFCURVE",
"2528 894 OFFCURVE",
"2455 894 CURVE SMOOTH",
"2394 894 LINE"
);
},
{
closed = 1;
nodes = (
"742 1257 LINE",
"865 1257 LINE SMOOTH",
"991 1257 OFFCURVE",
"1059 1203 OFFCURVE",
"1059 1077 CURVE SMOOTH",
"1059 951 OFFCURVE",
"991 897 OFFCURVE",
"855 897 CURVE SMOOTH",
"742 897 LINE",
"742 592 LINE",
"933 592 LINE SMOOTH",
"1357 592 OFFCURVE",
"1581 761 OFFCURVE",
"1581 1087 CURVE SMOOTH",
"1581 1423 OFFCURVE",
"1357 1592 OFFCURVE",
"923 1592 CURVE SMOOTH",
"742 1592 LINE"
);
},
{
closed = 1;
nodes = (
"742 1592 LINE",
"64 1592 LINE",
"64 1247 LINE",
"224 1247 LINE",
"224 345 LINE",
"64 345 LINE",
"64 0 LINE",
"1022 0 LINE",
"1022 345 LINE",
"732 345 LINE",
"732 592 LINE",
"742 592 LINE",
"742 897 LINE",
"732 897 LINE",
"732 1257 LINE",
"742 1257 LINE"
);
}
);
};
layerId = "BC722C43-F174-4026-9892-4620CE50CA16";
paths = (
{
closed = 1;
nodes = (
"1022 0 LINE",
"1022 345 LINE",
"732 345 LINE",
"732 1247 LINE",
"1022 1247 LINE",
"1022 1592 LINE",
"64 1592 LINE",
"64 1247 LINE",
"224 1247 LINE",
"224 345 LINE",
"64 345 LINE",
"64 0 LINE"
);
},
{
closed = 1;
nodes = (
"1143 474 LINE SMOOTH",
"1507 474 OFFCURVE",
"1691 594 OFFCURVE",
"1691 817 CURVE SMOOTH",
"1691 1038 OFFCURVE",
"1507 1157 OFFCURVE",
"1133 1157 CURVE SMOOTH",
"642 1157 LINE",
"642 902 LINE",
"1027 902 LINE SMOOTH",
"1113 902 OFFCURVE",
"1169 879 OFFCURVE",
"1169 815 CURVE SMOOTH",
"1169 752 OFFCURVE",
"1113 729 OFFCURVE",
"1017 729 CURVE SMOOTH",
"642 729 LINE",
"642 474 LINE"
);
}
);
width = 1731;
}
);
unicode = 00DE;
},
{
color = 3;
glyphname = Schwa;
layers = (
{
anchors = (
{
name = bottom;
position = "{844, 0}";
},
{
name = top;
position = "{844, 1592}";
}
);
background = {
paths = (
{
closed = 1;
nodes = (
"1327 -29 OFFCURVE",
"1623 285 OFFCURVE",
"1623 794 CURVE SMOOTH",
"1623 1306 OFFCURVE",
"1327 1621 OFFCURVE",
"848 1621 CURVE SMOOTH",
"368 1621 OFFCURVE",
"73 1306 OFFCURVE",
"73 794 CURVE SMOOTH",
"73 285 OFFCURVE",
"368 -29 OFFCURVE",
"848 -29 CURVE SMOOTH"
);
},
{
closed = 1;
nodes = (
"674 316 OFFCURVE",
"591 481 OFFCURVE",
"591 797 CURVE SMOOTH",
"591 1113 OFFCURVE",
"674 1278 OFFCURVE",
"823 1278 CURVE SMOOTH",
"972 1278 OFFCURVE",
"1055 1113 OFFCURVE",
"1055 797 CURVE SMOOTH",
"1055 481 OFFCURVE",
"972 316 OFFCURVE",
"823 316 CURVE SMOOTH"
);
}
);
};
layerId = "BC722C43-F174-4026-9892-4620CE50CA16";
paths = (
{
closed = 1;
nodes = (
"1299 -29 OFFCURVE",
"1623 295 OFFCURVE",
"1623 782 CURVE SMOOTH",
"1623 1311 OFFCURVE",
"1284 1621 OFFCURVE",
"769 1621 CURVE SMOOTH",
"519 1621 OFFCURVE",
"300 1559 OFFCURVE",
"140 1457 CURVE",
"140 1035 LINE",
"167 1023 LINE",
"319 1134 OFFCURVE",
"474 1186 OFFCURVE",
"652 1186 CURVE SMOOTH",
"901 1186 OFFCURVE",
"1057 1062 OFFCURVE",
"1057 869 CURVE",
"1057 611 LINE",
"1047 407 OFFCURVE",
"972 307 OFFCURVE",
"826 307 CURVE SMOOTH",
"675 307 OFFCURVE",
"588 407 OFFCURVE",
"579 611 CURVE",
"1101 611 LINE",
"1101 890 LINE",
"87 890 LINE",
"78 819 OFFCURVE",
"73 759 OFFCURVE",
"73 707 CURVE SMOOTH",
"73 260 OFFCURVE",
"371 -29 OFFCURVE",
"843 -29 CURVE SMOOTH"
);
}
);
width = 1696;
}
);
leftMetricsKey = "=O";
rightMetricsKey = "=O";
unicode = 018F;
},
{
color = 3;
glyphname = Uhorn;
layers = (
{
anchors = (
{
name = bottom;
position = "{915, 0}";
},
{
name = top;
position = "{915, 1592}";
}
);
background = {
paths = (
{
closed = 1;
nodes = (
"266 285 OFFCURVE",
"571 -29 OFFCURVE",
"1066 -29 CURVE SMOOTH",
"1561 -29 OFFCURVE",
"1866 285 OFFCURVE",
"1866 794 CURVE SMOOTH",
"1866 1102 OFFCURVE",
"1754 1346 OFFCURVE",
"1549 1486 CURVE",
"1482 1354 LINE",
"1724 1354 OFFCURVE",
"1866 1485 OFFCURVE",
"1866 1707 CURVE SMOOTH",
"1866 1796 LINE",
"1526 1796 LINE",
"1526 1717 LINE SMOOTH",
"1526 1622 OFFCURVE",
"1493 1578 OFFCURVE",
"1412 1578 CURVE SMOOTH",
"1330 1578 OFFCURVE",
"1239 1621 OFFCURVE",
"1066 1621 CURVE SMOOTH",
"571 1621 OFFCURVE",
"268 1306 OFFCURVE",
"267 798 CURVE SMOOTH"
);
},
{
closed = 1;
nodes = (
"917 316 OFFCURVE",
"834 481 OFFCURVE",
"834 797 CURVE SMOOTH",
"834 1113 OFFCURVE",
"917 1278 OFFCURVE",
"1066 1278 CURVE SMOOTH",
"1215 1278 OFFCURVE",
"1298 1113 OFFCURVE",
"1298 797 CURVE SMOOTH",
"1298 481 OFFCURVE",
"1215 316 OFFCURVE",
"1066 316 CURVE SMOOTH"
);
},
{
closed = 1;
nodes = (
"1482 1354 LINE",
"1724 1354 OFFCURVE",
"1866 1485 OFFCURVE",
"1866 1707 CURVE SMOOTH",
"1866 1796 LINE",
"1526 1796 LINE",
"1526 1717 LINE SMOOTH",
"1526 1622 OFFCURVE",
"1501 1592 OFFCURVE",
"1414 1592 CURVE SMOOTH",
"1283 1592 LINE"
);
}
);
};
layerId = "BC722C43-F174-4026-9892-4620CE50CA16";
paths = (
{
closed = 1;
nodes = (
"1354 -29 OFFCURVE",
"1572 198 OFFCURVE",
"1572 645 CURVE SMOOTH",
"1572 1257 LINE",
"1744 1277 OFFCURVE",
"1896 1410 OFFCURVE",
"1896 1685 CURVE SMOOTH",
"1896 1816 LINE",
"1556 1816 LINE",
"1556 1717 LINE SMOOTH",
"1556 1622 OFFCURVE",
"1501 1592 OFFCURVE",
"1414 1592 CURVE SMOOTH",
"1073 1592 LINE",
"1073 1247 LINE",
"1238 1247 LINE",
"1238 684 LINE SMOOTH",
"1238 481 OFFCURVE",
"1157 368 OFFCURVE",
"990 368 CURVE SMOOTH",
"812 368 OFFCURVE",
"728 477 OFFCURVE",
"728 684 CURVE SMOOTH",
"728 1247 LINE",
"893 1247 LINE",
"893 1592 LINE",
"48 1592 LINE",
"48 1247 LINE",
"208 1247 LINE",
"208 685 LINE SMOOTH",
"208 186 OFFCURVE",
"466 -29 OFFCURVE",
"916 -29 CURVE SMOOTH"
);
}
);
width = 1904;
}
);
leftMetricsKey = U;
unicode = 01AF;
},
{
color = 3;
glyphname = Uogonek;
layers = (
{
background = {
paths = (
{
closed = 1;
nodes = (
"1354 -29 OFFCURVE",
"1572 198 OFFCURVE",
"1572 645 CURVE SMOOTH",
"1572 1247 LINE",
"1732 1247 LINE",
"1732 1592 LINE",
"1073 1592 LINE",
"1073 1247 LINE",
"1238 1247 LINE",
"1238 684 LINE SMOOTH",
"1238 481 OFFCURVE",
"1157 368 OFFCURVE",
"990 368 CURVE SMOOTH",
"812 368 OFFCURVE",
"728 477 OFFCURVE",
"728 684 CURVE SMOOTH",
"728 1247 LINE",
"893 1247 LINE",
"893 1592 LINE",
"48 1592 LINE",
"48 1247 LINE",
"208 1247 LINE",
"208 685 LINE SMOOTH",
"208 186 OFFCURVE",
"466 -29 OFFCURVE",
"916 -29 CURVE SMOOTH"
);
},
{
closed = 1;
nodes = (
"1075 -468 OFFCURVE",
"1118 -464 OFFCURVE",
"1172 -451 CURVE",
"1172 -256 LINE",
"1141 -262 OFFCURVE",
"1110 -265 OFFCURVE",
"1079 -265 CURVE SMOOTH",
"985 -265 OFFCURVE",
"945 -220 OFFCURVE",
"945 -151 CURVE SMOOTH",
"945 -66 OFFCURVE",
"1009 0 OFFCURVE",
"1144 0 CURVE",
"872 0 LINE",
"759 -52 OFFCURVE",
"713 -136 OFFCURVE",
"713 -226 CURVE SMOOTH",
"713 -387 OFFCURVE",
"855 -468 OFFCURVE",
"1031 -468 CURVE SMOOTH"
);
}
);
};
layerId = "BC722C43-F174-4026-9892-4620CE50CA16";
paths = (
{
closed = 1;
nodes = (
"1075 -468 OFFCURVE",
"1118 -464 OFFCURVE",
"1172 -451 CURVE",
"1172 -256 LINE",
"1141 -262 OFFCURVE",
"1110 -265 OFFCURVE",
"1079 -265 CURVE SMOOTH",
"985 -265 OFFCURVE",
"945 -220 OFFCURVE",
"945 -161 CURVE SMOOTH",
"945 -89 OFFCURVE",
"981 -43 OFFCURVE",
"1139 -5 CURVE SMOOTH",
"1426 64 OFFCURVE",
"1572 282 OFFCURVE",
"1572 645 CURVE SMOOTH",
"1572 1247 LINE",
"1732 1247 LINE",
"1732 1592 LINE",
"1073 1592 LINE",
"1073 1247 LINE",
"1238 1247 LINE",
"1238 684 LINE SMOOTH",
"1238 481 OFFCURVE",
"1157 368 OFFCURVE",
"990 368 CURVE SMOOTH",
"812 368 OFFCURVE",
"728 477 OFFCURVE",
"728 684 CURVE SMOOTH",
"728 1247 LINE",
"893 1247 LINE",
"893 1592 LINE",
"48 1592 LINE",
"48 1247 LINE",
"208 1247 LINE",
"208 685 LINE SMOOTH",
"208 221 OFFCURVE",
"431 2 OFFCURVE",
"835 -26 CURVE",
"746 -78 OFFCURVE",
"713 -150 OFFCURVE",
"713 -226 CURVE SMOOTH",
"713 -387 OFFCURVE",
"855 -468 OFFCURVE",
"1031 -468 CURVE SMOOTH"
);
}
);
width = 1780;
}
);
leftMetricsKey = U;
widthMetricsKey = U;
unicode = 0172;
},
{
color = 9;
export = 0;
glyphname = IJ.ss01;
layers = (
{
background = {
paths = (
{
closed = 1;
nodes = (
"1421 -29 OFFCURVE",
"1679 186 OFFCURVE",
"1679 685 CURVE SMOOTH",
"1679 1247 LINE",
"1839 1247 LINE",
"1839 1592 LINE",
"994 1592 LINE",
"994 1247 LINE",
"1159 1247 LINE",
"1159 684 LINE SMOOTH",
"1159 477 OFFCURVE",
"1075 368 OFFCURVE",
"897 368 CURVE SMOOTH",
"730 368 OFFCURVE",
"649 481 OFFCURVE",
"649 684 CURVE SMOOTH",
"649 1247 LINE",
"814 1247 LINE",
"814 1592 LINE",
"155 1592 LINE",
"155 1247 LINE",
"315 1247 LINE",
"315 645 LINE SMOOTH",
"315 198 OFFCURVE",
"533 -29 OFFCURVE",
"971 -29 CURVE SMOOTH"
);
},
{
closed = 1;
nodes = (
"2819 760 LINE",
"2819 460 OFFCURVE",
"2667 324 OFFCURVE",
"2480 324 CURVE SMOOTH",
"2324 324 OFFCURVE",
"2244 400 OFFCURVE",
"2218 579 CURVE",
"1848 579 LINE",
"1848 0 LINE",
"2123 0 LINE",
"2174 157 LINE",
"2272 34 OFFCURVE",
"2422 -29 OFFCURVE",
"2645 -29 CURVE SMOOTH",
"3090 -29 OFFCURVE",
"3385 288 OFFCURVE",
"3385 761 CURVE"
);
}
);
};
layerId = "BC722C43-F174-4026-9892-4620CE50CA16";
paths = (
{
closed = 1;
nodes = (
"1371 -29 OFFCURVE",
"1629 186 OFFCURVE",
"1629 685 CURVE SMOOTH",
"1629 1247 LINE",
"1774 1247 LINE",
"1774 1592 LINE",
"994 1592 LINE",
"994 1247 LINE",
"1109 1247 LINE",
"1109 684 LINE SMOOTH",
"1109 401 OFFCURVE",
"980 324 OFFCURVE",
"867 324 CURVE SMOOTH",
"744 324 OFFCURVE",
"651 390 OFFCURVE",
"615 549 CURVE",
"245 549 LINE",
"245 0 LINE",
"520 0 LINE",
"571 157 LINE",
"669 34 OFFCURVE",
"839 -29 OFFCURVE",
"1014 -29 CURVE SMOOTH"
);
},
{
closed = 1;
nodes = (
"850 670 LINE",
"850 1015 LINE",
"735 1015 LINE",
"735 1247 LINE",
"850 1247 LINE",
"850 1592 LINE",
"100 1592 LINE",
"100 1247 LINE",
"245 1247 LINE",
"245 1015 LINE",
"100 1015 LINE",
"100 670 LINE"
);
}
);
width = 1819;
}
);
userData = {
com.typemytype.robofont.layerData = {
};
};
},
{
color = 9;
export = 0;
glyphname = Q.ss01;
layers = (
{
background = {
paths = (
{
closed = 1;
nodes = (
"2778 -29 OFFCURVE",
"2857 -18 OFFCURVE",
"2930 1 CURVE",
"3568 1 LINE",
"3568 360 LINE",
"3405 360 LINE",
"3402 359 LINE",
"3475 484 OFFCURVE",
"3516 633 OFFCURVE",
"3516 798 CURVE SMOOTH",
"3516 1295 OFFCURVE",
"3201 1623 OFFCURVE",
"2696 1623 CURVE SMOOTH",
"2191 1623 OFFCURVE",
"1876 1295 OFFCURVE",
"1876 798 CURVE SMOOTH",
"1876 323 OFFCURVE",
"2215 -29 OFFCURVE",
"2696 -29 CURVE SMOOTH"
);
},
{
closed = 1;
nodes = (
"2546 318 OFFCURVE",
"2476 564 OFFCURVE",
"2476 806 CURVE SMOOTH",
"2476 1037 OFFCURVE",
"2540 1260 OFFCURVE",
"2696 1260 CURVE SMOOTH",
"2852 1260 OFFCURVE",
"2916 1037 OFFCURVE",
"2916 806 CURVE SMOOTH",
"2916 564 OFFCURVE",
"2846 318 OFFCURVE",
"2696 318 CURVE SMOOTH"
);
}
);
};
layerId = "BC722C43-F174-4026-9892-4620CE50CA16";
paths = (
{
closed = 1;
nodes = (
"1368 -29 OFFCURVE",
"1673 285 OFFCURVE",
"1673 794 CURVE SMOOTH",
"1673 1306 OFFCURVE",
"1368 1621 OFFCURVE",
"873 1621 CURVE SMOOTH",
"378 1621 OFFCURVE",
"73 1306 OFFCURVE",
"73 794 CURVE SMOOTH",
"73 285 OFFCURVE",
"378 -29 OFFCURVE",
"873 -29 CURVE SMOOTH"
);
},
{
closed = 1;
nodes = (
"1766 0 LINE",
"1766 345 LINE",
"1066 345 LINE",
"1056 0 LINE"
);
},
{
closed = 1;
nodes = (
"724 326 OFFCURVE",
"639 488 OFFCURVE",
"639 797 CURVE SMOOTH",
"639 1106 OFFCURVE",
"724 1268 OFFCURVE",
"873 1268 CURVE SMOOTH",
"1022 1268 OFFCURVE",
"1107 1106 OFFCURVE",
"1107 797 CURVE SMOOTH",
"1107 488 OFFCURVE",
"1022 326 OFFCURVE",
"873 326 CURVE SMOOTH"
);
}
);
width = 1786;
}
);
leftMetricsKey = O;
},
{
color = 9;
export = 0;
glyphname = IJ.ss02;
layers = (
{
background = {
paths = (
{
closed = 1;
nodes = (
"705 1015 LINE",
"705 1247 LINE",
"820 1247 LINE",
"820 1592 LINE",
"70 1592 LINE",
"70 1247 LINE",
"215 1247 LINE",
"215 1015 LINE",
"70 1015 LINE",
"70 670 LINE",
"820 670 LINE",
"820 1015 LINE"
);
},
{
closed = 1;
nodes = (
"964 1247 LINE",
"1079 1247 LINE",
"1079 817 LINE SMOOTH",
"1079 531 OFFCURVE",
"950 406 OFFCURVE",
"690 406 CURVE SMOOTH",
"518 406 OFFCURVE",
"368 458 OFFCURVE",
"242 569 CURVE",
"215 557 LINE",
"215 135 LINE",
"362 22 OFFCURVE",
"576 -29 OFFCURVE",
"783 -29 CURVE SMOOTH",
"1276 -29 OFFCURVE",
"1599 268 OFFCURVE",
"1599 791 CURVE SMOOTH",
"1599 1247 LINE",
"1744 1247 LINE",
"1744 1592 LINE",
"964 1592 LINE"
);
}
);
};
layerId = "BC722C43-F174-4026-9892-4620CE50CA16";
paths = (
{
closed = 1;
nodes = (
"1290 -29 OFFCURVE",
"1599 282 OFFCURVE",
"1599 791 CURVE SMOOTH",
"1599 1247 LINE",
"1744 1247 LINE",
"1744 1592 LINE",
"964 1592 LINE",
"964 1247 LINE",
"1079 1247 LINE",
"1079 787 LINE SMOOTH",
"1079 515 OFFCURVE",
"973 406 OFFCURVE",
"710 406 CURVE SMOOTH",
"538 406 OFFCURVE",
"355 470 OFFCURVE",
"242 569 CURVE",
"215 557 LINE",
"215 135 LINE",
"352 31 OFFCURVE",
"558 -29 OFFCURVE",
"783 -29 CURVE SMOOTH"
);
},
{
closed = 1;
nodes = (
"862 601 OFFCURVE",
"984 643 OFFCURVE",
"1094 748 CURVE",
"1113 976 LINE",
"1079 988 LINE",
"1039 936 OFFCURVE",
"960 901 OFFCURVE",
"884 901 CURVE SMOOTH",
"765 901 OFFCURVE",
"705 966 OFFCURVE",
"705 1096 CURVE SMOOTH",
"705 1247 LINE",
"820 1247 LINE",
"820 1592 LINE",
"40 1592 LINE",
"40 1247 LINE",
"185 1247 LINE",
"185 1037 LINE SMOOTH",
"185 766 OFFCURVE",
"377 601 OFFCURVE",
"693 601 CURVE SMOOTH"
);
}
);
width = 1771;
}
);
userData = {
com.typemytype.robofont.layerData = {
};
};
},
{
color = 3;
glyphname = eth;
layers = (
{
background = {
paths = (
{
closed = 1;
nodes = (
"1053 -20 OFFCURVE",
"1296 233 OFFCURVE",
"1296 707 CURVE SMOOTH",
"1296 1232 OFFCURVE",
"984 1551 OFFCURVE",
"439 1551 CURVE SMOOTH",
"381 1551 OFFCURVE",
"318 1547 OFFCURVE",
"242 1537 CURVE",
"222 1217 LINE",
"326 1217 LINE SMOOTH",
"669 1217 OFFCURVE",
"798 1075 OFFCURVE",
"796 815 CURVE",
"872 771 LINE",
"843 909 OFFCURVE",
"747 1006 OFFCURVE",
"546 1006 CURVE SMOOTH",
"266 1006 OFFCURVE",
"53 801 OFFCURVE",
"53 501 CURVE SMOOTH",
"53 185 OFFCURVE",
"288 -16 OFFCURVE",
"649 -18 CURVE SMOOTH"
);
},
{
closed = 1;
nodes = (
"574 273 OFFCURVE",
"527 350 OFFCURVE",
"527 494 CURVE SMOOTH",
"527 638 OFFCURVE",
"574 715 OFFCURVE",
"662 715 CURVE SMOOTH",
"750 715 OFFCURVE",
"797 638 OFFCURVE",
"797 494 CURVE SMOOTH",
"797 350 OFFCURVE",
"750 273 OFFCURVE",
"662 273 CURVE SMOOTH"
);
},
{
closed = 1;
nodes = (
"1098 1437 LINE",
"1034 1553 LINE",
"221 1118 LINE",
"285 1002 LINE"
);
}
);
};
layerId = "BC722C43-F174-4026-9892-4620CE50CA16";
paths = (
{
closed = 1;
nodes = (
"1053 -20 OFFCURVE",
"1296 233 OFFCURVE",
"1296 707 CURVE SMOOTH",
"1296 1232 OFFCURVE",
"984 1551 OFFCURVE",
"439 1551 CURVE SMOOTH",
"381 1551 OFFCURVE",
"318 1547 OFFCURVE",
"242 1537 CURVE",
"222 1237 LINE",
"326 1237 LINE SMOOTH",
"669 1237 OFFCURVE",
"796 1105 OFFCURVE",
"816 815 CURVE",
"872 771 LINE",
"843 909 OFFCURVE",
"747 1006 OFFCURVE",
"546 1006 CURVE SMOOTH",
"266 1006 OFFCURVE",
"53 801 OFFCURVE",
"53 501 CURVE SMOOTH",
"53 185 OFFCURVE",
"288 -16 OFFCURVE",
"649 -18 CURVE SMOOTH"
);
},
{
closed = 1;
nodes = (
"574 273 OFFCURVE",
"527 350 OFFCURVE",
"527 494 CURVE SMOOTH",
"527 638 OFFCURVE",
"574 715 OFFCURVE",
"662 715 CURVE SMOOTH",
"750 715 OFFCURVE",
"797 638 OFFCURVE",
"797 494 CURVE SMOOTH",
"797 350 OFFCURVE",
"750 273 OFFCURVE",
"662 273 CURVE SMOOTH"
);
},
{
closed = 1;
nodes = (
"1128 1437 LINE",
"1064 1553 LINE",
"251 1118 LINE",
"315 1002 LINE"
);
}
);
width = 1349;
}
);
unicode = 00F0;
},
{
color = 3;
glyphname = dcroat;
layers = (
{
anchors = (
{
name = center;
position = "{714, 536}";
}
);
background = {
paths = (
{
closed = 1;
nodes = (
"638 -18 OFFCURVE",
"753 33 OFFCURVE",
"836 112 CURVE",
"836 0 LINE",
"1446 0 LINE",
"1446 300 LINE",
"1306 300 LINE",
"1306 1560 LINE",
"651 1495 LINE",
"651 1222 LINE",
"826 1222 LINE",
"826 965 LINE",
"726 1046 OFFCURVE",
"609 1090 OFFCURVE",
"500 1090 CURVE SMOOTH",
"234 1090 OFFCURVE",
"58 873 OFFCURVE",
"58 538 CURVE SMOOTH",
"58 203 OFFCURVE",
"234 -18 OFFCURVE",
"525 -18 CURVE SMOOTH"
);
},
{
closed = 1;
nodes = (
"586 281 OFFCURVE",
"531 377 OFFCURVE",
"531 537 CURVE SMOOTH",
"531 697 OFFCURVE",
"586 791 OFFCURVE",
"680 791 CURVE SMOOTH",
"730 791 OFFCURVE",
"790 771 OFFCURVE",
"826 745 CURVE",
"826 324 LINE",
"790 298 OFFCURVE",
"730 281 OFFCURVE",
"680 281 CURVE SMOOTH"
);
}
);
};
layerId = "BC722C43-F174-4026-9892-4620CE50CA16";
paths = (
{
closed = 1;
nodes = (
"638 -18 OFFCURVE",
"753 33 OFFCURVE",
"836 112 CURVE",
"836 0 LINE",
"1446 0 LINE",
"1446 300 LINE",
"1306 300 LINE",
"1306 1560 LINE",
"826 1514 LINE",
"826 965 LINE",
"726 1046 OFFCURVE",
"609 1090 OFFCURVE",
"500 1090 CURVE SMOOTH",
"234 1090 OFFCURVE",
"58 873 OFFCURVE",
"58 538 CURVE SMOOTH",
"58 203 OFFCURVE",
"234 -18 OFFCURVE",
"525 -18 CURVE SMOOTH"
);
},
{
closed = 1;
nodes = (
"586 281 OFFCURVE",
"531 377 OFFCURVE",
"531 537 CURVE SMOOTH",
"531 697 OFFCURVE",
"586 791 OFFCURVE",
"680 791 CURVE SMOOTH",
"730 791 OFFCURVE",
"790 771 OFFCURVE",
"826 745 CURVE",
"826 324 LINE",
"790 298 OFFCURVE",
"730 281 OFFCURVE",
"680 281 CURVE SMOOTH"
);
},
{
closed = 1;
nodes = (
"1416 1222 LINE",
"1416 1405 LINE",
"466 1405 LINE",
"466 1222 LINE"
);
}
);
width = 1493;
}
);
leftMetricsKey = d;
widthMetricsKey = d;
unicode = 0111;
},
{
color = 3;
glyphname = eogonek;
layers = (
{
background = {
paths = (
{
closed = 1;
nodes = (
"526 647 LINE",
"531 771 OFFCURVE",
"575 844 OFFCURVE",
"665 844 CURVE SMOOTH",
"755 844 OFFCURVE",
"799 771 OFFCURVE",
"804 647 CURVE",
"495 647 LINE",
"495 473 LINE",
"1173 473 LINE",
"1178 507 OFFCURVE",
"1183 550 OFFCURVE",
"1183 596 CURVE SMOOTH",
"1183 888 OFFCURVE",
"981 1090 OFFCURVE",
"639 1090 CURVE SMOOTH",
"289 1090 OFFCURVE",
"53 880 OFFCURVE",
"53 546 CURVE SMOOTH",
"53 193 OFFCURVE",
"291 -18 OFFCURVE",
"687 -18 CURVE SMOOTH",
"860 -18 OFFCURVE",
"1054 30 OFFCURVE",
"1151 97 CURVE",
"1151 384 LINE",
"1124 396 LINE",
"1046 331 OFFCURVE",
"929 282 OFFCURVE",
"807 282 CURVE SMOOTH",
"643 282 OFFCURVE",
"526 352 OFFCURVE",
"526 527 CURVE"
);
},
{
closed = 1;
nodes = (
"954 -468 OFFCURVE",
"997 -464 OFFCURVE",
"1051 -451 CURVE",
"1051 -256 LINE",
"1020 -262 OFFCURVE",
"989 -265 OFFCURVE",
"958 -265 CURVE SMOOTH",
"864 -265 OFFCURVE",
"824 -220 OFFCURVE",
"824 -151 CURVE SMOOTH",
"824 -66 OFFCURVE",
"888 0 OFFCURVE",
"1023 0 CURVE",
"751 0 LINE",
"638 -52 OFFCURVE",
"592 -136 OFFCURVE",
"592 -226 CURVE SMOOTH",
"592 -387 OFFCURVE",
"734 -468 OFFCURVE",
"910 -468 CURVE SMOOTH"
);
}
);
};
layerId = "BC722C43-F174-4026-9892-4620CE50CA16";
paths = (
{
closed = 1;
nodes = (
"715 -18 OFFCURVE",
"744 -17 OFFCURVE",
"773 -14 CURVE",
"1151 97 LINE",
"1151 384 LINE",
"1124 396 LINE",
"1046 331 OFFCURVE",
"929 282 OFFCURVE",
"807 282 CURVE SMOOTH",
"643 282 OFFCURVE",
"526 352 OFFCURVE",
"526 527 CURVE",
"526 647 LINE",
"531 771 OFFCURVE",
"575 844 OFFCURVE",
"665 844 CURVE SMOOTH",
"755 844 OFFCURVE",
"799 771 OFFCURVE",
"804 647 CURVE",
"495 647 LINE",
"495 473 LINE",
"1173 473 LINE",
"1178 507 OFFCURVE",
"1183 550 OFFCURVE",
"1183 596 CURVE SMOOTH",
"1183 888 OFFCURVE",
"981 1090 OFFCURVE",
"639 1090 CURVE SMOOTH",
"289 1090 OFFCURVE",
"53 880 OFFCURVE",
"53 546 CURVE SMOOTH",
"53 193 OFFCURVE",
"291 -18 OFFCURVE",
"687 -18 CURVE SMOOTH"
);
},
{
closed = 1;
nodes = (
"954 -468 OFFCURVE",
"997 -464 OFFCURVE",
"1051 -451 CURVE",
"1051 -256 LINE",
"1020 -262 OFFCURVE",
"989 -265 OFFCURVE",
"958 -265 CURVE SMOOTH",
"864 -265 OFFCURVE",
"824 -220 OFFCURVE",
"824 -158 CURVE SMOOTH",
"824 -66 OFFCURVE",
"891 -8 OFFCURVE",
"1151 97 CURVE",
"751 0 LINE",
"638 -52 OFFCURVE",
"592 -136 OFFCURVE",
"592 -226 CURVE SMOOTH",
"592 -387 OFFCURVE",
"734 -468 OFFCURVE",
"910 -468 CURVE SMOOTH"
);
}
);
width = 1233;
}
);
leftMetricsKey = e;
widthMetricsKey = e;
unicode = 0119;
userData = {
com.typemytype.robofont.layerData = {
};
};
},
{
color = 3;
glyphname = schwa;
layers = (
{
anchors = (
{
name = bottom;
position = "{597, 0}";
},
{
name = top;
position = "{606, 1072}";
}
);
background = {
paths = (
{
closed = 1;
nodes = (
"710 425 LINE",
"705 301 OFFCURVE",
"661 228 OFFCURVE",
"571 228 CURVE SMOOTH",
"481 228 OFFCURVE",
"437 301 OFFCURVE",
"432 425 CURVE",
"741 425 LINE",
"741 599 LINE",
"63 599 LINE",
"58 565 OFFCURVE",
"53 522 OFFCURVE",
"53 476 CURVE SMOOTH",
"53 184 OFFCURVE",
"255 -18 OFFCURVE",
"597 -18 CURVE SMOOTH",
"947 -18 OFFCURVE",
"1183 192 OFFCURVE",
"1183 526 CURVE SMOOTH",
"1183 879 OFFCURVE",
"945 1090 OFFCURVE",
"549 1090 CURVE SMOOTH",
"376 1090 OFFCURVE",
"182 1042 OFFCURVE",
"85 975 CURVE",
"85 688 LINE",
"112 676 LINE",
"190 741 OFFCURVE",
"307 790 OFFCURVE",
"429 790 CURVE SMOOTH",
"593 790 OFFCURVE",
"710 720 OFFCURVE",
"710 545 CURVE"
);
}
);
};
layerId = "BC722C43-F174-4026-9892-4620CE50CA16";
paths = (
{
closed = 1;
nodes = (
"947 -18 OFFCURVE",
"1183 192 OFFCURVE",
"1183 526 CURVE SMOOTH",
"1183 879 OFFCURVE",
"945 1090 OFFCURVE",
"569 1090 CURVE SMOOTH",
"376 1090 OFFCURVE",
"202 1052 OFFCURVE",
"85 1005 CURVE",
"85 718 LINE",
"112 706 LINE",
"198 755 OFFCURVE",
"317 790 OFFCURVE",
"429 790 CURVE SMOOTH",
"593 790 OFFCURVE",
"710 720 OFFCURVE",
"710 545 CURVE",
"710 425 LINE",
"705 301 OFFCURVE",
"661 228 OFFCURVE",
"571 228 CURVE SMOOTH",
"481 228 OFFCURVE",
"437 301 OFFCURVE",
"432 425 CURVE",
"741 425 LINE",
"741 599 LINE",
"63 599 LINE",
"58 565 OFFCURVE",
"53 522 OFFCURVE",
"53 476 CURVE SMOOTH",
"53 184 OFFCURVE",
"255 -18 OFFCURVE",
"597 -18 CURVE SMOOTH"
);
}
);
width = 1233;
}
);
leftMetricsKey = "=e";
rightMetricsKey = "=e";
unicode = 0259;
},
{
glyphname = hbar;
layers = (
{
background = {
paths = (
{
closed = 1;
nodes = (
"757 0 LINE",
"757 300 LINE",
"667 300 LINE",
"667 1560 LINE",
"42 1501 LINE",
"42 1228 LINE",
"187 1228 LINE",
"187 300 LINE",
"42 300 LINE",
"42 0 LINE"
);
},
{
closed = 1;
nodes = (
"1502 0 LINE",
"1502 300 LINE",
"1362 300 LINE",
"1362 679 LINE SMOOTH",
"1362 954 OFFCURVE",
"1253 1090 OFFCURVE",
"1012 1090 CURVE SMOOTH",
"863 1090 OFFCURVE",
"729 1034 OFFCURVE",
"647 938 CURVE",
"647 715 LINE",
"667 715 LINE",
"697 762 OFFCURVE",
"746 790 OFFCURVE",
"791 790 CURVE SMOOTH",
"846 790 OFFCURVE",
"882 756 OFFCURVE",
"882 679 CURVE SMOOTH",
"882 0 LINE"
);
}
);
};
layerId = "BC722C43-F174-4026-9892-4620CE50CA16";
paths = (
{
closed = 1;
nodes = (
"757 0 LINE",
"757 300 LINE",
"667 300 LINE",
"667 1560 LINE",
"187 1514 LINE",
"187 300 LINE",
"42 300 LINE",
"42 0 LINE"
);
},
{
closed = 1;
nodes = (
"1502 0 LINE",
"1502 300 LINE",
"1362 300 LINE",
"1362 679 LINE SMOOTH",
"1362 954 OFFCURVE",
"1253 1090 OFFCURVE",
"1012 1090 CURVE SMOOTH",
"863 1090 OFFCURVE",
"729 1034 OFFCURVE",
"647 938 CURVE",
"647 715 LINE",
"667 715 LINE",
"697 762 OFFCURVE",
"746 790 OFFCURVE",
"791 790 CURVE SMOOTH",
"846 790 OFFCURVE",
"882 756 OFFCURVE",
"882 679 CURVE SMOOTH",
"882 0 LINE"
);
},
{
closed = 1;
nodes = (
"1027 1222 LINE",
"1027 1405 LINE",
"77 1405 LINE",
"77 1222 LINE"
);
}
);
width = 1549;
}
);
leftMetricsKey = h;
widthMetricsKey = h;
unicode = 0127;
},
{
color = 3;
glyphname = ij;
layers = (
{
anchors = (
{
name = top;
position = "{1119, 1623}";
}
);
background = {
paths = (
{
closed = 1;
nodes = (
"2560 0 LINE",
"2560 300 LINE",
"2405 300 LINE",
"2405 1091 LINE",
"1770 1032 LINE",
"1770 759 LINE",
"1925 759 LINE",
"1925 300 LINE",
"1770 300 LINE",
"1770 0 LINE"
);
},
{
closed = 1;
nodes = (
"2342 1168 OFFCURVE",
"2453 1257 OFFCURVE",
"2453 1398 CURVE SMOOTH",
"2453 1540 OFFCURVE",
"2347 1623 OFFCURVE",
"2166 1623 CURVE SMOOTH",
"1988 1623 OFFCURVE",
"1877 1537 OFFCURVE",
"1877 1398 CURVE SMOOTH",
"1877 1259 OFFCURVE",
"1990 1168 OFFCURVE",
"2165 1168 CURVE SMOOTH"
);
},
{
closed = 1;
nodes = (
"3254 271 LINE",
"3254 1091 LINE",
"2624 1032 LINE",
"2624 759 LINE",
"2779 759 LINE",
"2779 271 LINE"
);
},
{
closed = 1;
nodes = (
"3196 1168 OFFCURVE",
"3307 1257 OFFCURVE",
"3307 1398 CURVE SMOOTH",
"3307 1540 OFFCURVE",
"3201 1623 OFFCURVE",
"3020 1623 CURVE SMOOTH",
"2842 1623 OFFCURVE",
"2731 1537 OFFCURVE",
"2731 1398 CURVE SMOOTH",
"2731 1259 OFFCURVE",
"2844 1168 OFFCURVE",
"3019 1168 CURVE SMOOTH"
);
},
{
closed = 1;
nodes = (
"2973 -417 OFFCURVE",
"3254 -253 OFFCURVE",
"3254 176 CURVE SMOOTH",
"3254 772 LINE",
"2779 457 LINE",
"2779 92 LINE SMOOTH",
"2779 -55 OFFCURVE",
"2692 -115 OFFCURVE",
"2517 -115 CURVE SMOOTH",
"2385 -115 OFFCURVE",
"2250 -91 OFFCURVE",
"2143 -36 CURVE",
"2116 -48 LINE",
"2116 -340 LINE",
"2247 -387 OFFCURVE",
"2414 -414 OFFCURVE",
"2593 -415 CURVE SMOOTH"
);
},
{
closed = 1;
nodes = (
"789 1032 LINE",
"789 759 LINE",
"879 759 LINE",
"879 205 LINE",
"889 160 LINE",
"889 0 LINE",
"1504 0 LINE",
"1504 300 LINE",
"1359 300 LINE",
"1359 1091 LINE"
);
},
{
closed = 1;
nodes = (
"47 1032 LINE",
"47 759 LINE",
"187 759 LINE",
"187 397 LINE SMOOTH",
"187 121 OFFCURVE",
"306 -19 OFFCURVE",
"557 -19 CURVE SMOOTH",
"706 -19 OFFCURVE",
"818 35 OFFCURVE",
"899 128 CURVE",
"899 356 LINE",
"879 358 LINE",
"854 311 OFFCURVE",
"808 281 OFFCURVE",
"763 281 CURVE SMOOTH",
"707 281 OFFCURVE",
"667 315 OFFCURVE",
"667 396 CURVE SMOOTH",
"667 1091 LINE"
);
}
);
};
layerId = "BC722C43-F174-4026-9892-4620CE50CA16";
paths = (
{
closed = 1;
nodes = (
"1073 -417 OFFCURVE",
"1359 -253 OFFCURVE",
"1359 176 CURVE SMOOTH",
"1359 1091 LINE",
"789 1032 LINE",
"789 759 LINE",
"879 759 LINE",
"879 92 LINE SMOOTH",
"879 -55 OFFCURVE",
"792 -115 OFFCURVE",
"617 -115 CURVE SMOOTH",
"485 -115 OFFCURVE",
"350 -91 OFFCURVE",
"243 -36 CURVE",
"216 -48 LINE",
"216 -340 LINE",
"347 -387 OFFCURVE",
"514 -414 OFFCURVE",
"693 -415 CURVE SMOOTH"
);
},
{
closed = 1;
nodes = (
"706 18 OFFCURVE",
"818 72 OFFCURVE",
"899 165 CURVE",
"899 393 LINE",
"879 395 LINE",
"854 348 OFFCURVE",
"808 318 OFFCURVE",
"763 318 CURVE SMOOTH",
"707 318 OFFCURVE",
"667 352 OFFCURVE",
"667 433 CURVE SMOOTH",
"667 1091 LINE",
"47 1032 LINE",
"47 759 LINE",
"187 759 LINE",
"187 434 LINE SMOOTH",
"187 158 OFFCURVE",
"306 18 OFFCURVE",
"557 18 CURVE SMOOTH"
);
},
{
closed = 1;
nodes = (
"604 1168 OFFCURVE",
"715 1257 OFFCURVE",
"715 1398 CURVE SMOOTH",
"715 1540 OFFCURVE",
"609 1623 OFFCURVE",
"428 1623 CURVE SMOOTH",
"250 1623 OFFCURVE",
"139 1537 OFFCURVE",
"139 1398 CURVE SMOOTH",
"139 1259 OFFCURVE",
"252 1168 OFFCURVE",
"427 1168 CURVE SMOOTH"
);
},
{
closed = 1;
nodes = (
"1296 1168 OFFCURVE",
"1407 1257 OFFCURVE",
"1407 1398 CURVE SMOOTH",
"1407 1540 OFFCURVE",
"1301 1623 OFFCURVE",
"1120 1623 CURVE SMOOTH",
"942 1623 OFFCURVE",
"831 1537 OFFCURVE",
"831 1398 CURVE SMOOTH",
"831 1259 OFFCURVE",
"944 1168 OFFCURVE",
"1119 1168 CURVE SMOOTH"
);
}
);
width = 1494;
}
);
leftMetricsKey = u;
unicode = 0133;
},
{
color = 3;
glyphname = kgreenlandic;
layers = (
{
background = {
paths = (
{
closed = 1;
nodes = (
"719 0 LINE",
"719 428 LINE",
"1004 0 LINE",
"1477 0 LINE",
"1477 301 LINE",
"1322 301 LINE",
"1115 578 LINE",
"1116 578 OFFCURVE",
"1288 762 OFFCURVE",
"1288 761 CURVE",
"1459 761 LINE",
"1459 1072 LINE",
"825 1072 LINE",
"825 761 LINE",
"920 761 LINE",
"719 547 LINE",
"719 1072 LINE",
"128 1007 LINE",
"128 734 LINE",
"232 734 LINE",
"232 301 LINE",
"129 301 LINE",
"129 0 LINE"
);
}
);
};
layerId = "BC722C43-F174-4026-9892-4620CE50CA16";
paths = (
{
closed = 1;
nodes = (
"1498 0 LINE",
"1498 300 LINE",
"1348 300 LINE",
"1051 713 LINE",
"1039 564 LINE",
"1287 772 LINE",
"1477 772 LINE",
"1477 1072 LINE",
"801 1072 LINE",
"801 772 LINE",
"955 772 LINE",
"670 532 LINE",
"660 468 LINE",
"990 0 LINE"
);
},
{
closed = 1;
nodes = (
"710 0 LINE",
"710 1072 LINE",
"75 1072 LINE",
"75 772 LINE",
"230 772 LINE",
"230 300 LINE",
"75 300 LINE",
"75 0 LINE"
);
}
);
width = 1521;
}
);
leftMetricsKey = n;
rightMetricsKey = k;
unicode = 0138;
},
{
color = 3;
glyphname = ldot;
layers = (
{
layerId = "BC722C43-F174-4026-9892-4620CE50CA16";
paths = (
{
closed = 1;
nodes = (
"822 0 LINE",
"822 300 LINE",
"667 300 LINE",
"667 1560 LINE",
"32 1495 LINE",
"32 1222 LINE",
"187 1222 LINE",
"187 300 LINE",
"32 300 LINE",
"32 0 LINE"
);
},
{
closed = 1;
nodes = (
"1094 585 OFFCURVE",
"1183 654 OFFCURVE",
"1183 765 CURVE SMOOTH",
"1183 873 OFFCURVE",
"1099 942 OFFCURVE",
"980 942 CURVE SMOOTH",
"862 942 OFFCURVE",
"777 873 OFFCURVE",
"777 765 CURVE SMOOTH",
"777 654 OFFCURVE",
"867 585 OFFCURVE",
"980 585 CURVE SMOOTH"
);
}
);
width = 1106;
}
);
leftMetricsKey = l;
unicode = 0140;
},
{
color = 3;
glyphname = lslash;
layers = (
{
background = {
paths = (
{
closed = 1;
nodes = (
"838 0 LINE",
"838 305 LINE",
"760 305 LINE",
"760 861 LINE",
"970 974 LINE",
"871 1153 LINE",
"760 1093 LINE",
"760 1630 LINE",
"181 1630 LINE",
"181 1317 LINE",
"265 1317 LINE",
"265 828 LINE",
"59 718 LINE",
"159 540 LINE",
"265 596 LINE",
"265 305 LINE",
"191 305 LINE",
"191 0 LINE"
);
}
);
};
components = (
{
name = l;
},
{
name = slashshortcomb;
transform = "{1, 0, 0, 1, -88, -85}";
}
);
layerId = "BC722C43-F174-4026-9892-4620CE50CA16";
width = 854;
}
);
unicode = 0142;
},
{
color = 3;
glyphname = eng;
layers = (
{
background = {
paths = (
{
closed = 1;
nodes = (
"1414 680 LINE SMOOTH",
"1414 955 OFFCURVE",
"1305 1091 OFFCURVE",
"1085 1091 CURVE SMOOTH",
"838 1091 OFFCURVE",
"643 976 OFFCURVE",
"548 506 CURVE",
"729 506 LINE",
"729 636 OFFCURVE",
"729 791 OFFCURVE",
"843 791 CURVE SMOOTH",
"903 791 OFFCURVE",
"934 747 OFFCURVE",
"934 677 CURVE SMOOTH",
"934 47 LINE SMOOTH",
"933 -134 OFFCURVE",
"857 -222 OFFCURVE",
"701 -222 CURVE SMOOTH",
"619 -222 OFFCURVE",
"519 -202 OFFCURVE",
"451 -189 CURVE",
"451 -448 LINE",
"556 -476 OFFCURVE",
"658 -490 OFFCURVE",
"751 -490 CURVE SMOOTH",
"1135 -490 OFFCURVE",
"1414 -307 OFFCURVE",
"1414 95 CURVE SMOOTH"
);
}
);
};
layerId = "BC722C43-F174-4026-9892-4620CE50CA16";
paths = (
{
closed = 1;
nodes = (
"1221 -408 OFFCURVE",
"1395 -270 OFFCURVE",
"1395 101 CURVE SMOOTH",
"1395 680 LINE SMOOTH",
"1395 955 OFFCURVE",
"1286 1091 OFFCURVE",
"1045 1091 CURVE SMOOTH",
"896 1091 OFFCURVE",
"762 1037 OFFCURVE",
"680 944 CURVE",
"680 716 LINE",
"700 716 LINE",
"730 763 OFFCURVE",
"779 791 OFFCURVE",
"824 791 CURVE SMOOTH",
"878 791 OFFCURVE",
"915 757 OFFCURVE",
"915 680 CURVE SMOOTH",
"915 40 LINE SMOOTH",
"915 -73 OFFCURVE",
"877 -108 OFFCURVE",
"755 -108 CURVE",
"755 -408 LINE"
);
},
{
closed = 1;
nodes = (
"790 0 LINE",
"790 300 LINE",
"700 300 LINE",
"700 867 LINE",
"690 912 LINE",
"690 1091 LINE",
"75 1032 LINE",
"75 759 LINE",
"220 759 LINE",
"220 300 LINE",
"75 300 LINE",
"75 0 LINE"
);
}
);
width = 1530;
}
);
leftMetricsKey = n;
rightMetricsKey = jdotless;
unicode = 014B;
},
{
color = 3;
glyphname = ohorn;
layers = (
{
anchors = (
{
name = bottom;
position = "{661, 0}";
},
{
name = top;
position = "{661, 1072}";
}
);
background = {
paths = (
{
closed = 1;
nodes = (
"1037 -18 OFFCURVE",
"1269 193 OFFCURVE",
"1269 535 CURVE SMOOTH",
"1269 878 OFFCURVE",
"1037 1090 OFFCURVE",
"661 1090 CURVE SMOOTH",
"285 1090 OFFCURVE",
"53 878 OFFCURVE",
"53 535 CURVE SMOOTH",
"53 193 OFFCURVE",
"285 -18 OFFCURVE",
"661 -18 CURVE SMOOTH"
);
},
{
closed = 1;
nodes = (
"573 273 OFFCURVE",
"526 365 OFFCURVE",
"526 536 CURVE SMOOTH",
"526 707 OFFCURVE",
"573 799 OFFCURVE",
"661 799 CURVE SMOOTH",
"749 799 OFFCURVE",
"796 707 OFFCURVE",
"796 536 CURVE SMOOTH",
"796 365 OFFCURVE",
"749 273 OFFCURVE",
"661 273 CURVE SMOOTH"
);
}
);
};
layerId = "BC722C43-F174-4026-9892-4620CE50CA16";
paths = (
{
closed = 1;
nodes = (
"1037 -18 OFFCURVE",
"1269 193 OFFCURVE",
"1269 535 CURVE SMOOTH",
"1269 726 OFFCURVE",
"1195 881 OFFCURVE",
"1072 972 CURVE",
"1003 834 LINE",
"1225 834 OFFCURVE",
"1367 955 OFFCURVE",
"1367 1177 CURVE SMOOTH",
"1367 1286 LINE",
"1027 1286 LINE",
"1027 1177 LINE SMOOTH",
"1027 1092 OFFCURVE",
"994 1058 OFFCURVE",
"933 1058 CURVE SMOOTH",
"852 1058 OFFCURVE",
"792 1091 OFFCURVE",
"661 1091 CURVE SMOOTH",
"285 1091 OFFCURVE",
"53 878 OFFCURVE",
"53 535 CURVE SMOOTH",
"53 193 OFFCURVE",
"285 -18 OFFCURVE",
"661 -18 CURVE SMOOTH"
);
},
{
closed = 1;
nodes = (
"573 273 OFFCURVE",
"526 365 OFFCURVE",
"526 536 CURVE SMOOTH",
"526 707 OFFCURVE",
"573 799 OFFCURVE",
"661 799 CURVE SMOOTH",
"749 799 OFFCURVE",
"796 707 OFFCURVE",
"796 536 CURVE SMOOTH",
"796 365 OFFCURVE",
"749 273 OFFCURVE",
"661 273 CURVE SMOOTH"
);
}
);
width = 1322;
}
);
leftMetricsKey = o;
widthMetricsKey = o;
unicode = 01A1;
},
{
color = 3;
glyphname = oogonek;
layers = (
{
anchors = (
{
name = top;
position = "{661, 1072}";
}
);
background = {
paths = (
{
closed = 1;
nodes = (
"1037 -18 OFFCURVE",
"1269 193 OFFCURVE",
"1269 535 CURVE SMOOTH",
"1269 878 OFFCURVE",
"1037 1090 OFFCURVE",
"661 1090 CURVE SMOOTH",
"285 1090 OFFCURVE",
"53 878 OFFCURVE",
"53 535 CURVE SMOOTH",
"53 193 OFFCURVE",
"285 -18 OFFCURVE",
"661 -18 CURVE SMOOTH"
);
},
{
closed = 1;
nodes = (
"573 273 OFFCURVE",
"526 365 OFFCURVE",
"526 536 CURVE SMOOTH",
"526 707 OFFCURVE",
"573 799 OFFCURVE",
"661 799 CURVE SMOOTH",
"749 799 OFFCURVE",
"796 707 OFFCURVE",
"796 536 CURVE SMOOTH",
"796 365 OFFCURVE",
"749 273 OFFCURVE",
"661 273 CURVE SMOOTH"
);
},
{
closed = 1;
nodes = (
"783 -468 OFFCURVE",
"826 -464 OFFCURVE",
"880 -451 CURVE",
"880 -256 LINE",
"849 -262 OFFCURVE",
"818 -265 OFFCURVE",
"787 -265 CURVE SMOOTH",
"693 -265 OFFCURVE",
"653 -220 OFFCURVE",
"653 -151 CURVE SMOOTH",
"653 -66 OFFCURVE",
"717 0 OFFCURVE",
"852 0 CURVE",
"580 0 LINE",
"467 -52 OFFCURVE",
"421 -136 OFFCURVE",
"421 -226 CURVE SMOOTH",
"421 -387 OFFCURVE",
"563 -468 OFFCURVE",
"739 -468 CURVE SMOOTH"
);
}
);
};
layerId = "BC722C43-F174-4026-9892-4620CE50CA16";
paths = (
{
closed = 1;
nodes = (
"783 -468 OFFCURVE",
"826 -464 OFFCURVE",
"880 -451 CURVE",
"880 -256 LINE",
"849 -262 OFFCURVE",
"818 -265 OFFCURVE",
"787 -265 CURVE SMOOTH",
"693 -265 OFFCURVE",
"653 -220 OFFCURVE",
"653 -151 CURVE SMOOTH",
"653 -68 OFFCURVE",
"714 -28 OFFCURVE",
"832 -2 CURVE SMOOTH",
"1106 54 OFFCURVE",
"1269 248 OFFCURVE",
"1269 535 CURVE SMOOTH",
"1269 878 OFFCURVE",
"1037 1090 OFFCURVE",
"661 1090 CURVE SMOOTH",
"285 1090 OFFCURVE",
"53 878 OFFCURVE",
"53 535 CURVE SMOOTH",
"53 193 OFFCURVE",
"285 -18 OFFCURVE",
"661 -18 CURVE",
"772 50 LINE",
"515 20 OFFCURVE",
"421 -97 OFFCURVE",
"421 -226 CURVE SMOOTH",
"421 -387 OFFCURVE",
"563 -468 OFFCURVE",
"739 -468 CURVE SMOOTH"
);
},
{
closed = 1;
nodes = (
"573 273 OFFCURVE",
"526 365 OFFCURVE",
"526 536 CURVE SMOOTH",
"526 707 OFFCURVE",
"573 799 OFFCURVE",
"661 799 CURVE SMOOTH",
"749 799 OFFCURVE",
"796 707 OFFCURVE",
"796 536 CURVE SMOOTH",
"796 365 OFFCURVE",
"749 273 OFFCURVE",
"661 273 CURVE SMOOTH"
);
}
);
width = 1322;
}
);
leftMetricsKey = o;
widthMetricsKey = o;
unicode = 01EB;
},
{
color = 3;
glyphname = oe;
layers = (
{
anchors = (
{
name = bottom;
position = "{1042, 0}";
},
{
name = top;
position = "{1042, 1072}";
}
);
background = {
paths = (
{
closed = 1;
nodes = (
"1037 -18 OFFCURVE",
"1269 193 OFFCURVE",
"1269 535 CURVE SMOOTH",
"1269 878 OFFCURVE",
"1037 1090 OFFCURVE",
"661 1090 CURVE SMOOTH",
"285 1090 OFFCURVE",
"53 878 OFFCURVE",
"53 535 CURVE SMOOTH",
"53 193 OFFCURVE",
"285 -18 OFFCURVE",
"661 -18 CURVE SMOOTH"
);
},
{
closed = 1;
nodes = (
"573 273 OFFCURVE",
"526 365 OFFCURVE",
"526 536 CURVE SMOOTH",
"526 707 OFFCURVE",
"573 799 OFFCURVE",
"661 799 CURVE SMOOTH",
"749 799 OFFCURVE",
"796 707 OFFCURVE",
"796 536 CURVE SMOOTH",
"796 365 OFFCURVE",
"749 273 OFFCURVE",
"661 273 CURVE SMOOTH"
);
},
{
closed = 1;
nodes = (
"1269 647 LINE",
"1274 771 OFFCURVE",
"1318 844 OFFCURVE",
"1408 844 CURVE SMOOTH",
"1498 844 OFFCURVE",
"1542 771 OFFCURVE",
"1547 647 CURVE",
"1238 647 LINE",
"1238 473 LINE",
"1916 473 LINE",
"1921 507 OFFCURVE",
"1926 550 OFFCURVE",
"1926 596 CURVE SMOOTH",
"1926 888 OFFCURVE",
"1724 1090 OFFCURVE",
"1382 1090 CURVE SMOOTH",
"1032 1090 OFFCURVE",
"796 880 OFFCURVE",
"796 546 CURVE SMOOTH",
"796 193 OFFCURVE",
"1034 -18 OFFCURVE",
"1430 -18 CURVE SMOOTH",
"1603 -18 OFFCURVE",
"1797 30 OFFCURVE",
"1894 97 CURVE",
"1894 384 LINE",
"1867 396 LINE",
"1789 331 OFFCURVE",
"1672 282 OFFCURVE",
"1550 282 CURVE SMOOTH",
"1386 282 OFFCURVE",
"1269 352 OFFCURVE",
"1269 527 CURVE"
);
}
);
};
layerId = "BC722C43-F174-4026-9892-4620CE50CA16";
paths = (
{
closed = 1;
nodes = (
"967 -18 OFFCURVE",
"1189 183 OFFCURVE",
"1189 535 CURVE SMOOTH",
"1189 888 OFFCURVE",
"967 1090 OFFCURVE",
"651 1090 CURVE SMOOTH",
"285 1090 OFFCURVE",
"53 878 OFFCURVE",
"53 535 CURVE SMOOTH",
"53 193 OFFCURVE",
"285 -18 OFFCURVE",
"651 -18 CURVE SMOOTH"
);
},
{
closed = 1;
nodes = (
"573 273 OFFCURVE",
"526 365 OFFCURVE",
"526 536 CURVE SMOOTH",
"526 707 OFFCURVE",
"573 799 OFFCURVE",
"661 799 CURVE SMOOTH",
"749 799 OFFCURVE",
"796 707 OFFCURVE",
"796 536 CURVE SMOOTH",
"796 365 OFFCURVE",
"749 273 OFFCURVE",
"661 273 CURVE SMOOTH"
);
},
{
closed = 1;
nodes = (
"1603 -18 OFFCURVE",
"1797 30 OFFCURVE",
"1894 97 CURVE",
"1894 384 LINE",
"1867 396 LINE",
"1789 331 OFFCURVE",
"1672 282 OFFCURVE",
"1550 282 CURVE SMOOTH",
"1386 282 OFFCURVE",
"1269 352 OFFCURVE",
"1269 527 CURVE",
"1269 647 LINE",
"1274 771 OFFCURVE",
"1318 844 OFFCURVE",
"1408 844 CURVE SMOOTH",
"1498 844 OFFCURVE",
"1542 771 OFFCURVE",
"1547 647 CURVE",
"1238 647 LINE",
"1238 473 LINE",
"1916 473 LINE",
"1921 507 OFFCURVE",
"1926 550 OFFCURVE",
"1926 596 CURVE SMOOTH",
"1926 888 OFFCURVE",
"1724 1090 OFFCURVE",
"1432 1090 CURVE SMOOTH",
"1102 1090 OFFCURVE",
"876 890 OFFCURVE",
"876 546 CURVE SMOOTH",
"876 183 OFFCURVE",
"1094 -18 OFFCURVE",
"1460 -18 CURVE SMOOTH"
);
}
);
width = 1976;
}
);
leftMetricsKey = o;
rightMetricsKey = e;
unicode = 0153;
},
{
color = 3;
glyphname = thorn;
layers = (
{
layerId = "BC722C43-F174-4026-9892-4620CE50CA16";
paths = (
{
closed = 1;
nodes = (
"812 -398 LINE",
"812 -98 LINE",
"667 -98 LINE",
"667 108 LINE",
"767 27 OFFCURVE",
"884 -17 OFFCURVE",
"993 -17 CURVE SMOOTH",
"1259 -17 OFFCURVE",
"1435 200 OFFCURVE",
"1435 535 CURVE SMOOTH",
"1435 870 OFFCURVE",
"1259 1091 OFFCURVE",
"968 1091 CURVE SMOOTH",
"855 1091 OFFCURVE",
"740 1040 OFFCURVE",
"657 961 CURVE",
"657 1560 LINE",
"42 1503 LINE",
"42 1230 LINE",
"187 1230 LINE",
"187 -98 LINE",
"42 -98 LINE",
"42 -398 LINE"
);
},
{
closed = 1;
nodes = (
"763 282 OFFCURVE",
"703 302 OFFCURVE",
"667 328 CURVE",
"667 749 LINE",
"703 775 OFFCURVE",
"763 792 OFFCURVE",
"813 792 CURVE SMOOTH",
"907 792 OFFCURVE",
"962 696 OFFCURVE",
"962 536 CURVE SMOOTH",
"962 376 OFFCURVE",
"907 282 OFFCURVE",
"813 282 CURVE SMOOTH"
);
}
);
width = 1493;
}
);
widthMetricsKey = p;
rightMetricsKey = p;
unicode = 00FE;
},
{
color = 3;
glyphname = uhorn;
layers = (
{
anchors = (
{
name = bottom;
position = "{773, 0}";
},
{
name = ogonek;
position = "{1324, 0}";
},
{
name = top;
position = "{773, 1072}";
}
);
background = {
paths = (
{
closed = 1;
nodes = (
"789 1032 LINE",
"789 759 LINE",
"879 759 LINE",
"879 205 LINE",
"889 160 LINE",
"889 0 LINE",
"1504 0 LINE",
"1504 300 LINE",
"1359 300 LINE",
"1359 1091 LINE"
);
},
{
closed = 1;
nodes = (
"47 1032 LINE",
"47 759 LINE",
"187 759 LINE",
"187 397 LINE SMOOTH",
"187 121 OFFCURVE",
"306 -19 OFFCURVE",
"557 -19 CURVE SMOOTH",
"706 -19 OFFCURVE",
"818 35 OFFCURVE",
"899 128 CURVE",
"899 356 LINE",
"879 358 LINE",
"854 311 OFFCURVE",
"808 281 OFFCURVE",
"763 281 CURVE SMOOTH",
"707 281 OFFCURVE",
"667 315 OFFCURVE",
"667 396 CURVE SMOOTH",
"667 1091 LINE"
);
},
{
closed = 1;
nodes = (
"1170 834 LINE",
"1392 834 OFFCURVE",
"1534 955 OFFCURVE",
"1534 1177 CURVE SMOOTH",
"1534 1286 LINE",
"1194 1286 LINE",
"1194 1184 LINE SMOOTH",
"1194 1099 OFFCURVE",
"1161 1071 OFFCURVE",
"1100 1065 CURVE"
);
}
);
};
layerId = "BC722C43-F174-4026-9892-4620CE50CA16";
paths = (
{
closed = 1;
nodes = (
"1504 0 LINE",
"1504 300 LINE",
"1359 300 LINE",
"1359 872 LINE",
"1469 923 OFFCURVE",
"1534 1027 OFFCURVE",
"1534 1177 CURVE SMOOTH",
"1534 1286 LINE",
"1194 1286 LINE",
"1194 1184 LINE SMOOTH",
"1194 1099 OFFCURVE",
"1160 1070 OFFCURVE",
"1099 1064 CURVE SMOOTH",
"789 1032 LINE",
"789 759 LINE",
"879 759 LINE",
"879 205 LINE",
"889 160 LINE",
"889 0 LINE"
);
},
{
closed = 1;
nodes = (
"706 -19 OFFCURVE",
"818 35 OFFCURVE",
"899 128 CURVE",
"899 356 LINE",
"879 358 LINE",
"854 311 OFFCURVE",
"808 281 OFFCURVE",
"763 281 CURVE SMOOTH",
"707 281 OFFCURVE",
"667 315 OFFCURVE",
"667 396 CURVE SMOOTH",
"667 1091 LINE",
"47 1032 LINE",
"47 759 LINE",
"187 759 LINE",
"187 397 LINE SMOOTH",
"187 121 OFFCURVE",
"306 -19 OFFCURVE",
"557 -19 CURVE SMOOTH"
);
}
);
width = 1546;
}
);
leftMetricsKey = u;
unicode = 01B0;
},
{
color = 3;
glyphname = fi;
layers = (
{
anchors = (
{
name = top;
position = "{1422, 1623}";
}
);
background = {
paths = (
{
closed = 1;
nodes = (
"942 0 LINE",
"942 300 LINE",
"700 300 LINE",
"700 772 LINE",
"942 772 LINE",
"942 1072 LINE",
"700 1072 LINE",
"700 1125 LINE SMOOTH",
"700 1205 OFFCURVE",
"739 1252 OFFCURVE",
"829 1252 CURVE SMOOTH",
"880 1252 OFFCURVE",
"911 1241 OFFCURVE",
"940 1232 CURVE",
"967 1244 LINE",
"967 1530 LINE",
"891 1548 OFFCURVE",
"817 1558 OFFCURVE",
"725 1558 CURVE SMOOTH",
"399 1558 OFFCURVE",
"220 1404 OFFCURVE",
"220 1135 CURVE SMOOTH",
"220 1061 LINE",
"55 1045 LINE",
"55 772 LINE",
"220 772 LINE",
"220 300 LINE",
"65 300 LINE",
"65 0 LINE"
);
},
{
closed = 1;
nodes = (
"1817 0 LINE",
"1817 300 LINE",
"1662 300 LINE",
"1662 1091 LINE",
"1027 1032 LINE",
"1027 759 LINE",
"1182 759 LINE",
"1182 300 LINE",
"1027 300 LINE",
"1027 0 LINE"
);
},
{
closed = 1;
nodes = (
"1599 1168 OFFCURVE",
"1710 1257 OFFCURVE",
"1710 1398 CURVE SMOOTH",
"1710 1540 OFFCURVE",
"1604 1623 OFFCURVE",
"1423 1623 CURVE SMOOTH",
"1245 1623 OFFCURVE",
"1134 1537 OFFCURVE",
"1134 1398 CURVE SMOOTH",
"1134 1259 OFFCURVE",
"1247 1168 OFFCURVE",
"1422 1168 CURVE SMOOTH"
);
}
);
};
layerId = "BC722C43-F174-4026-9892-4620CE50CA16";
paths = (
{
closed = 1;
nodes = (
"871 0 LINE",
"871 300 LINE",
"700 300 LINE",
"700 772 LINE",
"1182 772 LINE",
"1182 300 LINE",
"1011 300 LINE",
"1011 0 LINE",
"1817 0 LINE",
"1817 300 LINE",
"1662 300 LINE",
"1662 1072 LINE",
"700 1072 LINE",
"700 1125 LINE SMOOTH",
"700 1205 OFFCURVE",
"739 1252 OFFCURVE",
"829 1252 CURVE SMOOTH",
"880 1252 OFFCURVE",
"911 1241 OFFCURVE",
"940 1232 CURVE",
"967 1244 LINE",
"967 1530 LINE",
"891 1548 OFFCURVE",
"817 1558 OFFCURVE",
"725 1558 CURVE SMOOTH",
"399 1558 OFFCURVE",
"220 1404 OFFCURVE",
"220 1135 CURVE SMOOTH",
"220 1061 LINE",
"55 1045 LINE",
"55 772 LINE",
"220 772 LINE",
"220 300 LINE",
"65 300 LINE",
"65 0 LINE"
);
},
{
closed = 1;
nodes = (
"1599 1168 OFFCURVE",
"1710 1257 OFFCURVE",
"1710 1398 CURVE SMOOTH",
"1710 1540 OFFCURVE",
"1604 1623 OFFCURVE",
"1423 1623 CURVE SMOOTH",
"1245 1623 OFFCURVE",
"1134 1537 OFFCURVE",
"1134 1398 CURVE SMOOTH",
"1134 1259 OFFCURVE",
"1247 1168 OFFCURVE",
"1422 1168 CURVE SMOOTH"
);
}
);
width = 1849;
}
);
leftMetricsKey = f;
rightMetricsKey = i;
unicode = FB01;
},
{
color = 3;
glyphname = fl;
layers = (
{
background = {
paths = (
{
closed = 1;
nodes = (
"855 0 LINE",
"855 300 LINE",
"700 300 LINE",
"700 772 LINE",
"942 772 LINE",
"942 1072 LINE",
"700 1072 LINE",
"700 1125 LINE SMOOTH",
"700 1205 OFFCURVE",
"739 1252 OFFCURVE",
"829 1252 CURVE SMOOTH",
"880 1252 OFFCURVE",
"911 1241 OFFCURVE",
"940 1232 CURVE",
"967 1244 LINE",
"967 1530 LINE",
"891 1548 OFFCURVE",
"817 1558 OFFCURVE",
"725 1558 CURVE SMOOTH",
"399 1558 OFFCURVE",
"220 1404 OFFCURVE",
"220 1135 CURVE SMOOTH",
"220 1061 LINE",
"55 1045 LINE",
"55 772 LINE",
"220 772 LINE",
"220 300 LINE",
"65 300 LINE",
"65 0 LINE"
);
},
{
closed = 1;
nodes = (
"1784 0 LINE",
"1784 300 LINE",
"1629 300 LINE",
"1629 1560 LINE",
"994 1495 LINE",
"994 1222 LINE",
"1149 1222 LINE",
"1149 300 LINE",
"995 300 LINE",
"995 0 LINE"
);
}
);
};
layerId = "BC722C43-F174-4026-9892-4620CE50CA16";
paths = (
{
closed = 1;
nodes = (
"855 0 LINE",
"855 300 LINE",
"700 300 LINE",
"700 772 LINE",
"942 772 LINE",
"942 1072 LINE",
"700 1072 LINE",
"700 1125 LINE SMOOTH",
"700 1205 OFFCURVE",
"739 1252 OFFCURVE",
"829 1252 CURVE SMOOTH",
"880 1252 OFFCURVE",
"911 1241 OFFCURVE",
"940 1232 CURVE",
"967 1244 LINE",
"967 1530 LINE",
"891 1548 OFFCURVE",
"817 1558 OFFCURVE",
"725 1558 CURVE SMOOTH",
"399 1558 OFFCURVE",
"220 1404 OFFCURVE",
"220 1135 CURVE SMOOTH",
"220 1061 LINE",
"55 1045 LINE",
"55 772 LINE",
"220 772 LINE",
"220 300 LINE",
"65 300 LINE",
"65 0 LINE"
);
},
{
closed = 1;
nodes = (
"1784 0 LINE",
"1784 300 LINE",
"1629 300 LINE",
"1629 1560 LINE",
"1054 1501 LINE",
"1054 1222 LINE",
"1149 1222 LINE",
"1149 300 LINE",
"995 300 LINE",
"995 0 LINE"
);
}
);
width = 1816;
}
);
leftMetricsKey = f;
rightMetricsKey = l;
unicode = FB02;
},
{
color = 3;
glyphname = ordfeminine;
layers = (
{
background = {
paths = (
{
closed = 1;
nodes = (
"439 808 OFFCURVE",
"532 855 OFFCURVE",
"579 936 CURVE",
"617 821 LINE",
"1030 821 LINE",
"1030 1042 LINE",
"932 1042 LINE",
"932 1314 LINE SMOOTH",
"932 1531 OFFCURVE",
"798 1624 OFFCURVE",
"496 1624 CURVE SMOOTH",
"359 1624 OFFCURVE",
"218 1603 OFFCURVE",
"112 1563 CURVE",
"112 1348 LINE",
"132 1339 LINE",
"206 1379 OFFCURVE",
"303 1403 OFFCURVE",
"391 1403 CURVE SMOOTH",
"514 1403 OFFCURVE",
"568 1365 OFFCURVE",
"568 1275 CURVE SMOOTH",
"568 1259 LINE",
"505 1278 OFFCURVE",
"447 1285 OFFCURVE",
"380 1285 CURVE SMOOTH",
"188 1285 OFFCURVE",
"63 1191 OFFCURVE",
"63 1046 CURVE SMOOTH",
"63 906 OFFCURVE",
"175 808 OFFCURVE",
"332 808 CURVE SMOOTH"
);
},
{
closed = 1;
nodes = (
"438 996 OFFCURVE",
"403 1028 OFFCURVE",
"403 1078 CURVE SMOOTH",
"403 1127 OFFCURVE",
"442 1159 OFFCURVE",
"494 1159 CURVE SMOOTH",
"516 1159 OFFCURVE",
"542 1155 OFFCURVE",
"568 1145 CURVE",
"568 1022 LINE",
"552 1006 OFFCURVE",
"518 996 OFFCURVE",
"491 996 CURVE SMOOTH"
);
}
);
};
layerId = "BC722C43-F174-4026-9892-4620CE50CA16";
paths = (
{
closed = 1;
nodes = (
"439 807 OFFCURVE",
"532 854 OFFCURVE",
"579 935 CURVE",
"617 820 LINE",
"1040 820 LINE",
"1040 1060 LINE",
"942 1060 LINE",
"942 1313 LINE SMOOTH",
"942 1530 OFFCURVE",
"808 1623 OFFCURVE",
"496 1623 CURVE SMOOTH",
"359 1623 OFFCURVE",
"218 1602 OFFCURVE",
"112 1562 CURVE",
"112 1337 LINE",
"139 1325 LINE",
"206 1368 OFFCURVE",
"303 1392 OFFCURVE",
"391 1392 CURVE SMOOTH",
"514 1392 OFFCURVE",
"568 1354 OFFCURVE",
"568 1274 CURVE SMOOTH",
"568 1258 LINE",
"505 1277 OFFCURVE",
"447 1284 OFFCURVE",
"380 1284 CURVE SMOOTH",
"188 1284 OFFCURVE",
"63 1190 OFFCURVE",
"63 1045 CURVE SMOOTH",
"63 905 OFFCURVE",
"175 807 OFFCURVE",
"332 807 CURVE SMOOTH"
);
},
{
closed = 1;
nodes = (
"454 1005 OFFCURVE",
"423 1033 OFFCURVE",
"423 1077 CURVE SMOOTH",
"423 1123 OFFCURVE",
"457 1148 OFFCURVE",
"503 1148 CURVE SMOOTH",
"522 1148 OFFCURVE",
"545 1145 OFFCURVE",
"568 1136 CURVE",
"568 1028 LINE",
"554 1014 OFFCURVE",
"524 1005 OFFCURVE",
"500 1005 CURVE SMOOTH"
);
}
);
width = 1077;
}
);
leftMetricsKey = "=a*0.7";
rightMetricsKey = "=a*0.7";
unicode = 00AA;
},
{
color = 3;
glyphname = ordmasculine;
layers = (
{
background = {
paths = (
{
closed = 1;
nodes = (
"776 808 OFFCURVE",
"951 963 OFFCURVE",
"951 1215 CURVE SMOOTH",
"951 1467 OFFCURVE",
"776 1623 OFFCURVE",
"494 1623 CURVE SMOOTH",
"211 1623 OFFCURVE",
"37 1467 OFFCURVE",
"37 1215 CURVE SMOOTH",
"37 963 OFFCURVE",
"211 808 OFFCURVE",
"494 808 CURVE SMOOTH"
);
},
{
closed = 1;
nodes = (
"428 1022 OFFCURVE",
"392 1090 OFFCURVE",
"392 1215 CURVE SMOOTH",
"392 1341 OFFCURVE",
"428 1409 OFFCURVE",
"494 1409 CURVE SMOOTH",
"560 1409 OFFCURVE",
"595 1341 OFFCURVE",
"595 1215 CURVE SMOOTH",
"595 1090 OFFCURVE",
"560 1022 OFFCURVE",
"494 1022 CURVE SMOOTH"
);
}
);
};
layerId = "BC722C43-F174-4026-9892-4620CE50CA16";
paths = (
{
closed = 1;
nodes = (
"776 806 OFFCURVE",
"951 961 OFFCURVE",
"951 1214 CURVE SMOOTH",
"951 1467 OFFCURVE",
"776 1623 OFFCURVE",
"493 1623 CURVE SMOOTH",
"211 1623 OFFCURVE",
"37 1467 OFFCURVE",
"37 1214 CURVE SMOOTH",
"37 961 OFFCURVE",
"211 806 OFFCURVE",
"494 806 CURVE SMOOTH"
);
},
{
closed = 1;
nodes = (
"428 1017 OFFCURVE",
"390 1085 OFFCURVE",
"390 1214 CURVE SMOOTH",
"390 1344 OFFCURVE",
"427 1412 OFFCURVE",
"493 1412 CURVE SMOOTH",
"560 1412 OFFCURVE",
"597 1344 OFFCURVE",
"597 1214 CURVE SMOOTH",
"597 1085 OFFCURVE",
"560 1017 OFFCURVE",
"494 1017 CURVE SMOOTH"
);
}
);
width = 988;
}
);
leftMetricsKey = "=o*0.7";
rightMetricsKey = "=o*0.7";
unicode = 00BA;
},
{
color = 3;
glyphname = zero;
layers = (
{
background = {
paths = (
{
closed = 1;
nodes = (
"1080 -26 OFFCURVE",
"1309 242 OFFCURVE",
"1309 695 CURVE SMOOTH",
"1309 1122 OFFCURVE",
"1079 1375 OFFCURVE",
"691 1375 CURVE SMOOTH",
"301 1375 OFFCURVE",
"71 1122 OFFCURVE",
"71 694 CURVE SMOOTH",
"71 241 OFFCURVE",
"302 -26 OFFCURVE",
"693 -26 CURVE SMOOTH"
);
},
{
closed = 1;
nodes = (
"589 348 OFFCURVE",
"557 425 OFFCURVE",
"557 667 CURVE SMOOTH",
"557 915 OFFCURVE",
"590 995 OFFCURVE",
"692 995 CURVE SMOOTH",
"789 995 OFFCURVE",
"820 915 OFFCURVE",
"820 665 CURVE SMOOTH",
"820 425 OFFCURVE",
"788 348 OFFCURVE",
"688 348 CURVE SMOOTH"
);
}
);
};
layerId = "BC722C43-F174-4026-9892-4620CE50CA16";
paths = (
{
closed = 1;
nodes = (
"1075 -26 OFFCURVE",
"1311 239 OFFCURVE",
"1311 671 CURVE SMOOTH",
"1311 1105 OFFCURVE",
"1076 1372 OFFCURVE",
"692 1372 CURVE SMOOTH",
"308 1372 OFFCURVE",
"73 1105 OFFCURVE",
"73 671 CURVE SMOOTH",
"73 239 OFFCURVE",
"309 -26 OFFCURVE",
"692 -26 CURVE SMOOTH"
);
},
{
closed = 1;
nodes = (
"585 294 OFFCURVE",
"527 424 OFFCURVE",
"527 674 CURVE SMOOTH",
"527 924 OFFCURVE",
"585 1054 OFFCURVE",
"692 1054 CURVE SMOOTH",
"799 1054 OFFCURVE",
"857 924 OFFCURVE",
"857 674 CURVE SMOOTH",
"857 424 OFFCURVE",
"799 294 OFFCURVE",
"692 294 CURVE SMOOTH"
);
}
);
width = 1384;
}
);
leftMetricsKey = O;
rightMetricsKey = "=|";
unicode = 0030;
},
{
color = 3;
glyphname = one;
layers = (
{
background = {
paths = (
{
closed = 1;
nodes = (
"919 0 LINE",
"919 320 LINE",
"764 320 LINE",
"764 1372 LINE",
"99 1203 LINE",
"99 910 LINE",
"289 910 LINE",
"289 320 LINE",
"129 320 LINE",
"129 0 LINE"
);
}
);
};
layerId = "BC722C43-F174-4026-9892-4620CE50CA16";
paths = (
{
closed = 1;
nodes = (
"919 0 LINE",
"919 320 LINE",
"764 320 LINE",
"764 1372 LINE",
"79 1203 LINE",
"79 910 LINE",
"289 910 LINE",
"289 320 LINE",
"99 320 LINE",
"99 0 LINE"
);
}
);
width = 972;
}
);
unicode = 0031;
},
{
color = 3;
glyphname = two;
layers = (
{
background = {
paths = (
{
closed = 1;
nodes = (
"1230 0 LINE",
"1225 345 LINE",
"464 345 LINE",
"478 281 LINE",
"948 405 OFFCURVE",
"1182 645 OFFCURVE",
"1182 921 CURVE SMOOTH",
"1182 1209 OFFCURVE",
"962 1372 OFFCURVE",
"623 1372 CURVE SMOOTH",
"304 1372 OFFCURVE",
"65 1209 OFFCURVE",
"65 905 CURVE SMOOTH",
"65 785 OFFCURVE",
"109 669 OFFCURVE",
"176 604 CURVE",
"440 705 LINE",
"403 771 OFFCURVE",
"386 821 OFFCURVE",
"386 880 CURVE SMOOTH",
"386 987 OFFCURVE",
"442 1066 OFFCURVE",
"548 1066 CURVE SMOOTH",
"654 1066 OFFCURVE",
"707 987 OFFCURVE",
"707 870 CURVE SMOOTH",
"707 651 OFFCURVE",
"487 435 OFFCURVE",
"97 283 CURVE",
"97 0 LINE"
);
}
);
};
layerId = "BC722C43-F174-4026-9892-4620CE50CA16";
paths = (
{
closed = 1;
nodes = (
"1220 0 LINE",
"1215 345 LINE",
"464 345 LINE",
"478 281 LINE",
"948 405 OFFCURVE",
"1182 645 OFFCURVE",
"1182 921 CURVE SMOOTH",
"1182 1209 OFFCURVE",
"962 1372 OFFCURVE",
"633 1372 CURVE SMOOTH",
"314 1372 OFFCURVE",
"65 1209 OFFCURVE",
"65 905 CURVE SMOOTH",
"65 785 OFFCURVE",
"108 669 OFFCURVE",
"174 604 CURVE",
"429 705 LINE",
"393 771 OFFCURVE",
"377 821 OFFCURVE",
"377 886 CURVE SMOOTH",
"377 1003 OFFCURVE",
"436 1085 OFFCURVE",
"547 1085 CURVE SMOOTH",
"654 1085 OFFCURVE",
"707 1003 OFFCURVE",
"707 876 CURVE SMOOTH",
"707 651 OFFCURVE",
"487 437 OFFCURVE",
"97 285 CURVE",
"97 0 LINE"
);
}
);
width = 1264;
}
);
unicode = 0032;
},
{
color = 3;
glyphname = three;
layers = (
{
background = {
paths = (
{
closed = 1;
nodes = (
"1145 1077 LINE",
"1145 1352 LINE",
"74 1352 LINE",
"74 1007 LINE",
"941 1007 LINE",
"750 1067 LINE",
"313 720 LINE",
"313 566 LINE",
"340 554 LINE",
"397 568 OFFCURVE",
"461 574 OFFCURVE",
"508 574 CURVE SMOOTH",
"635 574 OFFCURVE",
"744 534 OFFCURVE",
"744 433 CURVE SMOOTH",
"744 332 OFFCURVE",
"635 294 OFFCURVE",
"502 294 CURVE SMOOTH",
"329 294 OFFCURVE",
"207 342 OFFCURVE",
"122 406 CURVE",
"95 394 LINE",
"95 94 LINE",
"196 27 OFFCURVE",
"396 -18 OFFCURVE",
"572 -18 CURVE SMOOTH",
"993 -18 OFFCURVE",
"1219 156 OFFCURVE",
"1219 424 CURVE SMOOTH",
"1219 680 OFFCURVE",
"998 824 OFFCURVE",
"651 824 CURVE",
"703 730 LINE"
);
}
);
};
layerId = "BC722C43-F174-4026-9892-4620CE50CA16";
paths = (
{
closed = 1;
nodes = (
"1165 1077 LINE",
"1165 1352 LINE",
"94 1352 LINE",
"94 1007 LINE",
"961 1007 LINE",
"770 1067 LINE",
"313 720 LINE",
"313 566 LINE",
"340 554 LINE",
"397 568 OFFCURVE",
"461 574 OFFCURVE",
"508 574 CURVE SMOOTH",
"635 574 OFFCURVE",
"744 534 OFFCURVE",
"744 428 CURVE SMOOTH",
"744 322 OFFCURVE",
"635 284 OFFCURVE",
"502 284 CURVE SMOOTH",
"329 284 OFFCURVE",
"207 332 OFFCURVE",
"122 396 CURVE",
"95 384 LINE",
"95 84 LINE",
"196 17 OFFCURVE",
"396 -28 OFFCURVE",
"572 -28 CURVE SMOOTH",
"993 -28 OFFCURVE",
"1219 146 OFFCURVE",
"1219 419 CURVE SMOOTH",
"1219 680 OFFCURVE",
"998 814 OFFCURVE",
"651 814 CURVE",
"703 730 LINE"
);
}
);
width = 1264;
}
);
unicode = 0033;
},
{
color = 3;
glyphname = four;
layers = (
{
background = {
paths = (
{
closed = 1;
nodes = (
"1302 700 LINE",
"177 702 LINE",
"184 535 LINE",
"769 1189 LINE",
"620 1133 LINE",
"620 300 LINE",
"440 300 LINE",
"440 0 LINE",
"1195 0 LINE",
"1195 300 LINE",
"1075 300 LINE",
"1075 1352 LINE",
"640 1352 LINE",
"55 688 LINE",
"55 419 LINE",
"1302 420 LINE"
);
}
);
};
layerId = "BC722C43-F174-4026-9892-4620CE50CA16";
paths = (
{
closed = 1;
nodes = (
"1322 630 LINE",
"167 632 LINE",
"201 461 LINE",
"793 1194 LINE",
"630 1133 LINE",
"630 0 LINE",
"1085 0 LINE",
"1085 1352 LINE",
"650 1352 LINE",
"45 609 LINE",
"45 309 LINE",
"1322 310 LINE"
);
}
);
width = 1345;
}
);
unicode = 0034;
},
{
color = 3;
glyphname = five;
layers = (
{
background = {
paths = (
{
closed = 1;
nodes = (
"4724 -20 OFFCURVE",
"4977 167 OFFCURVE",
"4977 511 CURVE SMOOTH",
"4977 766 OFFCURVE",
"4759 939 OFFCURVE",
"4502 939 CURVE SMOOTH",
"4435 939 OFFCURVE",
"4352 932 OFFCURVE",
"4291 922 CURVE",
"4291 1061 LINE",
"4902 1061 LINE",
"4902 1358 LINE",
"3986 1358 LINE",
"3986 564 LINE",
"3998 553 LINE",
"4065 596 OFFCURVE",
"4134 617 OFFCURVE",
"4205 617 CURVE SMOOTH",
"4323 617 OFFCURVE",
"4428 554 OFFCURVE",
"4428 445 CURVE SMOOTH",
"4428 329 OFFCURVE",
"4308 280 OFFCURVE",
"4210 280 CURVE SMOOTH",
"4135 280 OFFCURVE",
"4065 303 OFFCURVE",
"3988 347 CURVE",
"3988 75 LINE",
"3987 73 LINE",
"4057 5 OFFCURVE",
"4243 -20 OFFCURVE",
"4352 -20 CURVE SMOOTH"
);
},
{
closed = 1;
nodes = (
"3754 1007 LINE",
"3754 1352 LINE",
"2683 1352 LINE",
"2683 1007 LINE"
);
},
{
closed = 1;
nodes = (
"2995 884 OFFCURVE",
"2795 836 OFFCURVE",
"2694 769 CURVE",
"2694 472 LINE",
"2721 460 LINE",
"2806 524 OFFCURVE",
"2928 574 OFFCURVE",
"3101 574 CURVE SMOOTH",
"3234 574 OFFCURVE",
"3343 534 OFFCURVE",
"3343 433 CURVE SMOOTH",
"3343 332 OFFCURVE",
"3234 292 OFFCURVE",
"3101 292 CURVE SMOOTH",
"2928 292 OFFCURVE",
"2806 342 OFFCURVE",
"2721 406 CURVE",
"2694 394 LINE",
"2694 97 LINE",
"2795 30 OFFCURVE",
"2995 -18 OFFCURVE",
"3171 -18 CURVE SMOOTH",
"3592 -18 OFFCURVE",
"3818 154 OFFCURVE",
"3818 433 CURVE SMOOTH",
"3818 712 OFFCURVE",
"3592 884 OFFCURVE",
"3171 884 CURVE SMOOTH"
);
},
{
closed = 1;
nodes = (
"2454 1007 LINE",
"2454 1352 LINE",
"1394 1352 LINE",
"1394 1007 LINE"
);
},
{
closed = 1;
nodes = (
"1695 884 OFFCURVE",
"1495 836 OFFCURVE",
"1394 779 CURVE",
"1394 512 LINE",
"1421 500 LINE",
"1506 534 OFFCURVE",
"1648 574 OFFCURVE",
"1801 574 CURVE SMOOTH",
"1934 574 OFFCURVE",
"2043 534 OFFCURVE",
"2043 433 CURVE SMOOTH",
"2043 332 OFFCURVE",
"1934 292 OFFCURVE",
"1801 292 CURVE SMOOTH",
"1628 292 OFFCURVE",
"1506 342 OFFCURVE",
"1421 396 CURVE",
"1394 384 LINE",
"1394 97 LINE",
"1495 30 OFFCURVE",
"1695 -18 OFFCURVE",
"1871 -18 CURVE SMOOTH",
"2292 -18 OFFCURVE",
"2518 154 OFFCURVE",
"2518 433 CURVE SMOOTH",
"2518 712 OFFCURVE",
"2292 884 OFFCURVE",
"1871 884 CURVE SMOOTH"
);
},
{
closed = 1;
nodes = (
"1394 656 LINE",
"1676 656 LINE",
"1676 1210 LINE",
"1394 1210 LINE"
);
},
{
closed = 1;
nodes = (
"479 879 OFFCURVE",
"357 858 OFFCURVE",
"259 819 CURVE",
"407 645 LINE",
"438 1007 LINE",
"1154 1007 LINE",
"1154 1352 LINE",
"174 1352 LINE",
"114 518 LINE",
"141 506 LINE",
"252 550 OFFCURVE",
"378 574 OFFCURVE",
"491 574 CURVE SMOOTH",
"634 574 OFFCURVE",
"743 534 OFFCURVE",
"743 433 CURVE SMOOTH",
"743 332 OFFCURVE",
"634 292 OFFCURVE",
"501 292 CURVE SMOOTH",
"328 292 OFFCURVE",
"206 342 OFFCURVE",
"121 396 CURVE",
"94 384 LINE",
"94 97 LINE",
"195 30 OFFCURVE",
"395 -18 OFFCURVE",
"571 -18 CURVE SMOOTH",
"992 -18 OFFCURVE",
"1218 154 OFFCURVE",
"1218 433 CURVE SMOOTH",
"1218 712 OFFCURVE",
"992 879 OFFCURVE",
"591 879 CURVE SMOOTH"
);
}
);
};
layerId = "BC722C43-F174-4026-9892-4620CE50CA16";
paths = (
{
closed = 1;
nodes = (
"499 876 OFFCURVE",
"357 852 OFFCURVE",
"259 802 CURVE",
"417 645 LINE",
"448 1007 LINE",
"1144 1007 LINE",
"1144 1352 LINE",
"174 1352 LINE",
"114 518 LINE",
"141 506 LINE",
"252 550 OFFCURVE",
"378 574 OFFCURVE",
"491 574 CURVE SMOOTH",
"636 574 OFFCURVE",
"743 534 OFFCURVE",
"743 428 CURVE SMOOTH",
"743 322 OFFCURVE",
"636 284 OFFCURVE",
"501 284 CURVE SMOOTH",
"328 284 OFFCURVE",
"206 332 OFFCURVE",
"121 386 CURVE",
"94 374 LINE",
"94 84 LINE",
"195 17 OFFCURVE",
"395 -28 OFFCURVE",
"571 -28 CURVE SMOOTH",
"992 -28 OFFCURVE",
"1218 144 OFFCURVE",
"1218 427 CURVE SMOOTH",
"1218 709 OFFCURVE",
"992 876 OFFCURVE",
"621 876 CURVE SMOOTH"
);
}
);
width = 1264;
}
);
unicode = 0035;
},
{
color = 3;
glyphname = six;
layers = (
{
background = {
paths = (
{
closed = 1;
nodes = (
"1916 484 LINE",
"1959 521 OFFCURVE",
"2047 543 OFFCURVE",
"2109 543 CURVE SMOOTH",
"2220 543 OFFCURVE",
"2291 493 OFFCURVE",
"2291 403 CURVE SMOOTH",
"2291 313 OFFCURVE",
"2222 263 OFFCURVE",
"2121 263 CURVE SMOOTH",
"1988 263 OFFCURVE",
"1929 356 OFFCURVE",
"1929 674 CURVE SMOOTH",
"1929 958 OFFCURVE",
"2023 1081 OFFCURVE",
"2186 1081 CURVE SMOOTH",
"2311 1081 OFFCURVE",
"2378 1011 OFFCURVE",
"2370 887 CURVE",
"2672 887 LINE",
"2710 1178 OFFCURVE",
"2508 1372 OFFCURVE",
"2169 1372 CURVE SMOOTH",
"1743 1372 OFFCURVE",
"1475 1096 OFFCURVE",
"1475 659 CURVE SMOOTH",
"1475 223 OFFCURVE",
"1722 -26 OFFCURVE",
"2144 -26 CURVE SMOOTH",
"2474 -26 OFFCURVE",
"2699 141 OFFCURVE",
"2699 389 CURVE SMOOTH",
"2699 633 OFFCURVE",
"2514 804 OFFCURVE",
"2244 804 CURVE SMOOTH",
"2079 804 OFFCURVE",
"1930 728 OFFCURVE",
"1863 598 CURVE"
);
},
{
closed = 1;
nodes = (
"707 804 OFFCURVE",
"576 752 OFFCURVE",
"500 650 CURVE",
"541 648 LINE",
"527 685 OFFCURVE",
"523 718 OFFCURVE",
"523 764 CURVE SMOOTH",
"523 964 OFFCURVE",
"609 1082 OFFCURVE",
"782 1082 CURVE SMOOTH",
"909 1082 OFFCURVE",
"978 1013 OFFCURVE",
"972 887 CURVE",
"1281 887 LINE",
"1308 1188 OFFCURVE",
"1093 1372 OFFCURVE",
"766 1372 CURVE SMOOTH",
"384 1372 OFFCURVE",
"73 1132 OFFCURVE",
"73 658 CURVE SMOOTH",
"73 236 OFFCURVE",
"319 -26 OFFCURVE",
"734 -26 CURVE SMOOTH",
"1079 -26 OFFCURVE",
"1301 142 OFFCURVE",
"1301 398 CURVE SMOOTH",
"1301 644 OFFCURVE",
"1125 804 OFFCURVE",
"855 804 CURVE SMOOTH"
);
},
{
closed = 1;
nodes = (
"617 253 OFFCURVE",
"547 312 OFFCURVE",
"547 399 CURVE SMOOTH",
"547 485 OFFCURVE",
"620 543 OFFCURVE",
"719 543 CURVE SMOOTH",
"821 543 OFFCURVE",
"891 486 OFFCURVE",
"891 399 CURVE SMOOTH",
"891 312 OFFCURVE",
"821 253 OFFCURVE",
"719 253 CURVE SMOOTH"
);
}
);
};
layerId = "BC722C43-F174-4026-9892-4620CE50CA16";
paths = (
{
closed = 1;
nodes = (
"717 844 OFFCURVE",
"586 790 OFFCURVE",
"510 682 CURVE",
"540 628 LINE",
"533 665 OFFCURVE",
"530 698 OFFCURVE",
"530 746 CURVE SMOOTH",
"530 991 OFFCURVE",
"642 1100 OFFCURVE",
"793 1100 CURVE SMOOTH",
"894 1100 OFFCURVE",
"965 1050 OFFCURVE",
"965 944 CURVE SMOOTH",
"965 920 OFFCURVE",
"965 913 OFFCURVE",
"965 907 CURVE",
"1272 896 LINE",
"1278 925 OFFCURVE",
"1279 952 OFFCURVE",
"1279 986 CURVE SMOOTH",
"1279 1231 OFFCURVE",
"1065 1372 OFFCURVE",
"768 1372 CURVE SMOOTH",
"382 1372 OFFCURVE",
"73 1132 OFFCURVE",
"73 668 CURVE SMOOTH",
"73 236 OFFCURVE",
"319 -26 OFFCURVE",
"734 -26 CURVE SMOOTH",
"1059 -26 OFFCURVE",
"1301 150 OFFCURVE",
"1301 418 CURVE SMOOTH",
"1301 676 OFFCURVE",
"1125 844 OFFCURVE",
"860 844 CURVE SMOOTH"
);
},
{
closed = 1;
nodes = (
"625 248 OFFCURVE",
"557 317 OFFCURVE",
"557 419 CURVE SMOOTH",
"557 520 OFFCURVE",
"628 588 OFFCURVE",
"719 588 CURVE SMOOTH",
"813 588 OFFCURVE",
"881 521 OFFCURVE",
"881 419 CURVE SMOOTH",
"881 317 OFFCURVE",
"813 248 OFFCURVE",
"719 248 CURVE SMOOTH"
);
}
);
width = 1357;
}
);
leftMetricsKey = zero;
unicode = 0036;
},
{
color = 3;
glyphname = seven;
layers = (
{
background = {
paths = (
{
closed = 1;
nodes = (
"687 0 LINE",
"1193 1067 LINE",
"1193 1352 LINE",
"50 1352 LINE",
"50 798 LINE",
"320 797 LINE",
"345 1027 LINE",
"862 1027 LINE",
"755 1219 LINE",
"143 0 LINE"
);
}
);
};
layerId = "BC722C43-F174-4026-9892-4620CE50CA16";
paths = (
{
closed = 1;
nodes = (
"703 0 LINE",
"1223 1067 LINE",
"1223 1352 LINE",
"50 1352 LINE",
"50 798 LINE",
"320 797 LINE",
"345 1027 LINE",
"862 1027 LINE",
"765 1219 LINE",
"133 0 LINE"
);
}
);
width = 1249;
}
);
unicode = 0037;
},
{
color = 3;
glyphname = eight;
layers = (
{
background = {
paths = (
{
closed = 1;
nodes = (
"1000 -18 OFFCURVE",
"1285 87 OFFCURVE",
"1285 375 CURVE SMOOTH",
"1285 545 OFFCURVE",
"1198 663 OFFCURVE",
"1024 730 CURVE",
"1143 775 OFFCURVE",
"1207 881 OFFCURVE",
"1207 1010 CURVE SMOOTH",
"1207 1263 OFFCURVE",
"969 1375 OFFCURVE",
"688 1375 CURVE SMOOTH",
"382 1375 OFFCURVE",
"162 1252 OFFCURVE",
"162 1008 CURVE SMOOTH",
"162 879 OFFCURVE",
"226 773 OFFCURVE",
"345 728 CURVE",
"171 661 OFFCURVE",
"84 543 OFFCURVE",
"84 373 CURVE",
"87 375 LINE",
"87 94 OFFCURVE",
"359 -18 OFFCURVE",
"686 -18 CURVE SMOOTH"
);
},
{
closed = 1;
nodes = (
"627 238 OFFCURVE",
"604 285 OFFCURVE",
"604 404 CURVE SMOOTH",
"604 527 OFFCURVE",
"627 576 OFFCURVE",
"686 576 CURVE SMOOTH",
"742 576 OFFCURVE",
"764 527 OFFCURVE",
"764 404 CURVE SMOOTH",
"764 285 OFFCURVE",
"741 238 OFFCURVE",
"684 238 CURVE SMOOTH"
);
},
{
closed = 1;
nodes = (
"631 824 OFFCURVE",
"608 867 OFFCURVE",
"608 974 CURVE SMOOTH",
"608 1079 OFFCURVE",
"631 1121 OFFCURVE",
"688 1121 CURVE SMOOTH",
"745 1121 OFFCURVE",
"768 1079 OFFCURVE",
"768 974 CURVE SMOOTH",
"768 867 OFFCURVE",
"746 824 OFFCURVE",
"690 824 CURVE SMOOTH"
);
},
{
closed = 1;
nodes = (
"1661 884 OFFCURVE",
"1435 712 OFFCURVE",
"1435 433 CURVE SMOOTH",
"1435 154 OFFCURVE",
"1661 -18 OFFCURVE",
"2112 -18 CURVE SMOOTH",
"2563 -18 OFFCURVE",
"2789 154 OFFCURVE",
"2789 433 CURVE SMOOTH",
"2789 712 OFFCURVE",
"2563 884 OFFCURVE",
"2112 884 CURVE SMOOTH"
);
},
{
closed = 1;
nodes = (
"2014 292 OFFCURVE",
"1910 332 OFFCURVE",
"1910 433 CURVE SMOOTH",
"1910 534 OFFCURVE",
"2014 574 OFFCURVE",
"2112 574 CURVE SMOOTH",
"2210 574 OFFCURVE",
"2314 534 OFFCURVE",
"2314 433 CURVE SMOOTH",
"2314 332 OFFCURVE",
"2210 292 OFFCURVE",
"2112 292 CURVE SMOOTH"
);
}
);
};
layerId = "BC722C43-F174-4026-9892-4620CE50CA16";
paths = (
{
closed = 1;
nodes = (
"280 757 OFFCURVE",
"65 626 OFFCURVE",
"65 375 CURVE SMOOTH",
"65 127 OFFCURVE",
"306 -28 OFFCURVE",
"692 -28 CURVE SMOOTH",
"1078 -28 OFFCURVE",
"1319 127 OFFCURVE",
"1319 375 CURVE SMOOTH",
"1319 626 OFFCURVE",
"1104 757 OFFCURVE",
"692 757 CURVE SMOOTH"
);
},
{
closed = 1;
nodes = (
"570 246 OFFCURVE",
"490 309 OFFCURVE",
"490 406 CURVE SMOOTH",
"490 502 OFFCURVE",
"571 566 OFFCURVE",
"692 566 CURVE SMOOTH",
"813 566 OFFCURVE",
"894 502 OFFCURVE",
"894 406 CURVE SMOOTH",
"894 309 OFFCURVE",
"814 246 OFFCURVE",
"692 246 CURVE SMOOTH"
);
},
{
closed = 1;
nodes = (
"346 1372 OFFCURVE",
"125 1215 OFFCURVE",
"125 969 CURVE SMOOTH",
"125 720 OFFCURVE",
"312 597 OFFCURVE",
"692 597 CURVE SMOOTH",
"1072 597 OFFCURVE",
"1259 720 OFFCURVE",
"1259 969 CURVE SMOOTH",
"1259 1215 OFFCURVE",
"1038 1372 OFFCURVE",
"692 1372 CURVE SMOOTH"
);
},
{
closed = 1;
nodes = (
"601 778 OFFCURVE",
"540 842 OFFCURVE",
"540 938 CURVE SMOOTH",
"540 1034 OFFCURVE",
"601 1098 OFFCURVE",
"692 1098 CURVE SMOOTH",
"783 1098 OFFCURVE",
"844 1034 OFFCURVE",
"844 938 CURVE SMOOTH",
"844 842 OFFCURVE",
"783 778 OFFCURVE",
"692 778 CURVE SMOOTH"
);
}
);
width = 1384;
}
);
unicode = 0038;
},
{
color = 3;
glyphname = nine;
layers = (
{
background = {
paths = (
{
closed = 1;
nodes = (
"1078 317 OFFCURVE",
"1292 552 OFFCURVE",
"1292 811 CURVE SMOOTH",
"1292 1167 OFFCURVE",
"993 1367 OFFCURVE",
"682 1367 CURVE SMOOTH",
"316 1367 OFFCURVE",
"40 1132 OFFCURVE",
"40 781 CURVE SMOOTH",
"40 516 OFFCURVE",
"250 321 OFFCURVE",
"525 321 CURVE",
"479 260 OFFCURVE",
"393 171 OFFCURVE",
"221 0 CURVE",
"759 -2 LINE"
);
},
{
closed = 1;
nodes = (
"592 571 OFFCURVE",
"562 634 OFFCURVE",
"562 791 CURVE SMOOTH",
"562 947 OFFCURVE",
"592 1010 OFFCURVE",
"666 1010 CURVE SMOOTH",
"740 1010 OFFCURVE",
"769 947 OFFCURVE",
"769 791 CURVE SMOOTH",
"769 634 OFFCURVE",
"740 571 OFFCURVE",
"666 571 CURVE SMOOTH"
);
}
);
};
components = (
{
name = six;
transform = "{-1, 0, 0, -1, 1357, 1346}";
}
);
layerId = "BC722C43-F174-4026-9892-4620CE50CA16";
width = 1357;
}
);
leftMetricsKey = "=|six";
rightMetricsKey = "=|six";
unicode = 0039;
},
{
color = 3;
glyphname = onesuperior;
layers = (
{
background = {
paths = (
{
closed = 1;
nodes = (
"683 787 LINE",
"683 977 LINE",
"627 977 LINE",
"623 1592 LINE",
"236 1494 LINE",
"236 1343 LINE",
"332 1344 LINE",
"332 977 LINE",
"279 977 LINE",
"280 787 LINE"
);
},
{
closed = 1;
nodes = (
"551 788 LINE",
"551 983 LINE",
"457 983 LINE",
"457 1623 LINE",
"40 1520 LINE",
"40 1342 LINE",
"168 1342 LINE",
"168 983 LINE",
"52 983 LINE",
"52 788 LINE"
);
}
);
};
layerId = "BC722C43-F174-4026-9892-4620CE50CA16";
paths = (
{
closed = 1;
nodes = (
"566 788 LINE",
"566 998 LINE",
"472 998 LINE",
"472 1623 LINE",
"40 1520 LINE",
"40 1327 LINE",
"168 1327 LINE",
"168 998 LINE",
"52 998 LINE",
"52 788 LINE"
);
}
);
width = 593;
}
);
leftMetricsKey = "=one*0.5";
rightMetricsKey = "=one*0.5";
unicode = 00B9;
},
{
color = 3;
glyphname = twosuperior;
layers = (
{
background = {
paths = (
{
closed = 1;
nodes = (
"1760 788 LINE",
"1760 1072 LINE",
"1656 1072 LINE",
"1656 1004 OFFCURVE",
"1605 983 OFFCURVE",
"1525 983 CURVE SMOOTH",
"1428 983 LINE",
"1592 1107 OFFCURVE",
"1708 1199 OFFCURVE",
"1708 1347 CURVE SMOOTH",
"1708 1539 OFFCURVE",
"1566 1623 OFFCURVE",
"1376 1623 CURVE SMOOTH",
"1188 1623 OFFCURVE",
"1047 1522 OFFCURVE",
"1047 1350 CURVE SMOOTH",
"1047 1262 OFFCURVE",
"1077 1195 OFFCURVE",
"1136 1139 CURVE",
"1273 1244 LINE",
"1248 1267 OFFCURVE",
"1235 1293 OFFCURVE",
"1235 1321 CURVE SMOOTH",
"1235 1368 OFFCURVE",
"1261 1406 OFFCURVE",
"1316 1406 CURVE SMOOTH",
"1361 1406 OFFCURVE",
"1398 1360 OFFCURVE",
"1398 1302 CURVE SMOOTH",
"1398 1195 OFFCURVE",
"1333 1136 OFFCURVE",
"1262 1078 CURVE SMOOTH",
"1210 1035 OFFCURVE",
"1145 998 OFFCURVE",
"1068 967 CURVE",
"1072 788 LINE"
);
},
{
closed = 1;
nodes = (
"750 788 LINE",
"747 998 LINE",
"290 998 LINE",
"298 959 LINE",
"585 1034 OFFCURVE",
"727 1180 OFFCURVE",
"727 1348 CURVE SMOOTH",
"727 1524 OFFCURVE",
"593 1623 OFFCURVE",
"393 1623 CURVE SMOOTH",
"199 1623 OFFCURVE",
"47 1524 OFFCURVE",
"47 1339 CURVE SMOOTH",
"47 1266 OFFCURVE",
"73 1195 OFFCURVE",
"113 1155 CURVE",
"269 1217 LINE",
"247 1257 OFFCURVE",
"237 1287 OFFCURVE",
"237 1327 CURVE SMOOTH",
"237 1398 OFFCURVE",
"273 1448 OFFCURVE",
"341 1448 CURVE SMOOTH",
"406 1448 OFFCURVE",
"438 1398 OFFCURVE",
"438 1321 CURVE SMOOTH",
"438 1184 OFFCURVE",
"304 1054 OFFCURVE",
"66 961 CURVE",
"66 788 LINE"
);
}
);
};
layerId = "BC722C43-F174-4026-9892-4620CE50CA16";
paths = (
{
closed = 1;
nodes = (
"764 788 LINE",
"764 1013 LINE",
"290 1013 LINE",
"298 959 LINE",
"600 1034 OFFCURVE",
"742 1180 OFFCURVE",
"742 1348 CURVE SMOOTH",
"742 1524 OFFCURVE",
"608 1623 OFFCURVE",
"393 1623 CURVE SMOOTH",
"184 1623 OFFCURVE",
"32 1524 OFFCURVE",
"32 1339 CURVE SMOOTH",
"32 1266 OFFCURVE",
"58 1195 OFFCURVE",
"98 1155 CURVE",
"269 1217 LINE",
"247 1257 OFFCURVE",
"237 1287 OFFCURVE",
"237 1327 CURVE SMOOTH",
"237 1388 OFFCURVE",
"273 1436 OFFCURVE",
"341 1436 CURVE SMOOTH",
"406 1436 OFFCURVE",
"438 1388 OFFCURVE",
"438 1321 CURVE SMOOTH",
"438 1184 OFFCURVE",
"289 1054 OFFCURVE",
"51 971 CURVE",
"51 788 LINE"
);
}
);
width = 786;
}
);
leftMetricsKey = "=two*0.5";
rightMetricsKey = "=two*0.5";
unicode = 00B2;
},
{
color = 3;
glyphname = threesuperior;
layers = (
{
background = {
paths = (
{
closed = 1;
nodes = (
"559 792 OFFCURVE",
"729 878 OFFCURVE",
"729 1080 CURVE SMOOTH",
"729 1189 OFFCURVE",
"641 1291 OFFCURVE",
"523 1301 CURVE",
"690 1439 LINE",
"690 1593 LINE",
"64 1593 LINE",
"64 1328 LINE",
"177 1327 LINE",
"193 1385 OFFCURVE",
"207 1410 OFFCURVE",
"257 1410 CURVE SMOOTH",
"385 1410 LINE",
"385 1404 LINE",
"185 1234 LINE",
"185 1136 LINE",
"197 1136 LINE",
"218 1142 OFFCURVE",
"248 1148 OFFCURVE",
"282 1148 CURVE SMOOTH",
"347 1148 OFFCURVE",
"418 1124 OFFCURVE",
"418 1050 CURVE SMOOTH",
"418 986 OFFCURVE",
"350 963 OFFCURVE",
"287 963 CURVE SMOOTH",
"213 963 OFFCURVE",
"141 992 OFFCURVE",
"70 1049 CURVE",
"71 1051 LINE",
"71 848 LINE",
"145 800 OFFCURVE",
"239 792 OFFCURVE",
"349 792 CURVE SMOOTH"
);
}
);
};
layerId = "BC722C43-F174-4026-9892-4620CE50CA16";
paths = (
{
closed = 1;
nodes = (
"712 1426 LINE",
"712 1592 LINE",
"49 1592 LINE",
"49 1367 LINE",
"549 1367 LINE",
"465 1420 LINE",
"187 1206 LINE",
"187 1111 LINE",
"203 1104 LINE",
"237 1113 OFFCURVE",
"276 1116 OFFCURVE",
"310 1116 CURVE SMOOTH",
"391 1116 OFFCURVE",
"457 1092 OFFCURVE",
"457 1033 CURVE SMOOTH",
"457 974 OFFCURVE",
"391 951 OFFCURVE",
"306 951 CURVE SMOOTH",
"191 951 OFFCURVE",
"118 980 OFFCURVE",
"66 1019 CURVE",
"50 1011 LINE",
"50 825 LINE",
"111 784 OFFCURVE",
"232 757 OFFCURVE",
"353 757 CURVE SMOOTH",
"623 757 OFFCURVE",
"761 862 OFFCURVE",
"761 1027 CURVE SMOOTH",
"761 1185 OFFCURVE",
"626 1266 OFFCURVE",
"401 1266 CURVE",
"434 1212 LINE"
);
}
);
width = 786;
}
);
unicode = 00B3;
},
{
color = 3;
glyphname = foursuperior;
layers = (
{
background = {
paths = (
{
closed = 1;
nodes = (
"683 804 LINE",
"683 973 LINE",
"611 973 LINE",
"611 1050 LINE",
"745 1050 LINE",
"745 1201 LINE",
"612 1200 LINE",
"612 1592 LINE",
"354 1592 LINE",
"30 1208 LINE",
"30 1050 LINE",
"343 1050 LINE",
"343 973 LINE",
"269 973 LINE",
"269 804 LINE"
);
},
{
closed = 1;
nodes = (
"232 1202 LINE",
"343 1339 LINE",
"343 1201 LINE"
);
}
);
};
layerId = "BC722C43-F174-4026-9892-4620CE50CA16";
paths = (
{
closed = 1;
nodes = (
"809 1163 LINE",
"100 1164 LINE",
"125 1062 LINE",
"490 1498 LINE",
"383 1462 LINE",
"383 788 LINE",
"668 788 LINE",
"668 1592 LINE",
"395 1592 LINE",
"22 1150 LINE",
"22 958 LINE",
"809 958 LINE"
);
}
);
width = 821;
}
);
leftMetricsKey = "=four*0.5";
rightMetricsKey = "=four*0.5";
unicode = 2074;
},
{
color = 3;
glyphname = fraction;
layers = (
{
layerId = "BC722C43-F174-4026-9892-4620CE50CA16";
paths = (
{
closed = 1;
nodes = (
"-80 -2 LINE",
"775 1621 LINE",
"455 1621 LINE",
"-400 -2 LINE"
);
}
);
width = 375;
}
);
unicode = 2044;
},
{
color = 6;
glyphname = threequarters;
layers = (
{
background = {
paths = (
{
closed = 1;
nodes = (
"1105 -2 LINE",
"1607 1621 LINE",
"1243 1621 LINE",
"752 -2 LINE"
);
},
{
closed = 1;
nodes = (
"729 822 OFFCURVE",
"822 847 OFFCURVE",
"890 897 CURVE SMOOTH",
"958 947 OFFCURVE",
"992 1018 OFFCURVE",
"992 1110 CURVE SMOOTH",
"992 1165 OFFCURVE",
"972 1214 OFFCURVE",
"932 1258 CURVE SMOOTH",
"892 1302 OFFCURVE",
"843 1326 OFFCURVE",
"786 1331 CURVE",
"897 1422 OFFCURVE",
"953 1468 OFFCURVE",
"953 1469 CURVE SMOOTH",
"953 1623 LINE",
"327 1623 LINE",
"327 1358 LINE",
"440 1357 LINE",
"445 1375 OFFCURVE",
"448 1387 OFFCURVE",
"450 1393 CURVE SMOOTH",
"452 1399 OFFCURVE",
"456 1407 OFFCURVE",
"462 1417 CURVE SMOOTH",
"468 1427 OFFCURVE",
"475 1433 OFFCURVE",
"484 1436 CURVE SMOOTH",
"493 1439 OFFCURVE",
"505 1440 OFFCURVE",
"520 1440 CURVE SMOOTH",
"648 1440 LINE",
"648 1434 LINE",
"448 1264 LINE",
"448 1171 LINE",
"449 1168 LINE",
"451 1167 OFFCURVE",
"455 1166 OFFCURVE",
"460 1166 CURVE SMOOTH",
"463 1166 OFFCURVE",
"472 1168 OFFCURVE",
"488 1172 CURVE SMOOTH",
"504 1176 OFFCURVE",
"520 1178 OFFCURVE",
"535 1178 CURVE SMOOTH",
"574 1178 OFFCURVE",
"608 1170 OFFCURVE",
"637 1155 CURVE SMOOTH",
"666 1140 OFFCURVE",
"681 1115 OFFCURVE",
"681 1080 CURVE SMOOTH",
"681 1050 OFFCURVE",
"668 1028 OFFCURVE",
"641 1014 CURVE SMOOTH",
"614 1000 OFFCURVE",
"584 993 OFFCURVE",
"550 993 CURVE SMOOTH",
"476 993 OFFCURVE",
"404 1022 OFFCURVE",
"333 1079 CURVE",
"334 1081 LINE",
"334 878 LINE",
"369 855 OFFCURVE",
"409 840 OFFCURVE",
"453 833 CURVE SMOOTH",
"497 826 OFFCURVE",
"550 822 OFFCURVE",
"612 822 CURVE SMOOTH"
);
},
{
closed = 1;
nodes = (
"1513 395 LINE",
"1624 532 LINE",
"1624 394 LINE"
);
},
{
closed = 1;
nodes = (
"1964 -3 LINE",
"1964 166 LINE",
"1892 166 LINE",
"1892 243 LINE",
"2026 243 LINE",
"2026 394 LINE",
"1893 393 LINE",
"1893 784 LINE",
"1635 785 LINE",
"1311 401 LINE",
"1311 243 LINE",
"1624 243 LINE",
"1624 166 LINE",
"1550 166 LINE",
"1550 -3 LINE"
);
}
);
};
components = (
{
alignment = -1;
name = fraction;
transform = "{1, 0, 0, 1, 788, 0}";
},
{
name = threesuperior;
},
{
name = foursuperior;
transform = "{1, 0, 0, 1, 1053, -803}";
}
);
layerId = "BC722C43-F174-4026-9892-4620CE50CA16";
width = 1874;
}
);
unicode = 00BE;
},
{
color = 3;
glyphname = asterisk;
layers = (
{
background = {
paths = (
{
closed = 1;
nodes = (
"552 1147 LINE",
"494 1150 LINE",
"314 1097 LINE SMOOTH",
"197 1063 OFFCURVE",
"80 1017 OFFCURVE",
"80 919 CURVE SMOOTH",
"80 858 OFFCURVE",
"132 804 OFFCURVE",
"194 804 CURVE SMOOTH",
"257 804 OFFCURVE",
"327 860 OFFCURVE",
"377 918 CURVE SMOOTH",
"474 1031 LINE",
"433 891 LINE SMOOTH",
"418 839 OFFCURVE",
"410 795 OFFCURVE",
"410 755 CURVE SMOOTH",
"410 680 OFFCURVE",
"458 624 OFFCURVE",
"519 624 CURVE SMOOTH",
"580 624 OFFCURVE",
"628 680 OFFCURVE",
"628 755 CURVE SMOOTH",
"628 795 OFFCURVE",
"620 839 OFFCURVE",
"605 891 CURVE SMOOTH",
"564 1031 LINE",
"661 918 LINE SMOOTH",
"711 860 OFFCURVE",
"781 804 OFFCURVE",
"844 804 CURVE SMOOTH",
"906 804 OFFCURVE",
"958 858 OFFCURVE",
"958 919 CURVE SMOOTH",
"958 1017 OFFCURVE",
"842 1063 OFFCURVE",
"724 1097 CURVE SMOOTH"
);
},
{
closed = 1;
nodes = (
"842 1184 OFFCURVE",
"958 1230 OFFCURVE",
"958 1328 CURVE SMOOTH",
"958 1389 OFFCURVE",
"906 1443 OFFCURVE",
"844 1443 CURVE SMOOTH",
"781 1443 OFFCURVE",
"711 1387 OFFCURVE",
"661 1329 CURVE SMOOTH",
"564 1216 LINE",
"605 1356 LINE SMOOTH",
"620 1408 OFFCURVE",
"628 1452 OFFCURVE",
"628 1492 CURVE SMOOTH",
"628 1567 OFFCURVE",
"580 1623 OFFCURVE",
"519 1623 CURVE SMOOTH",
"458 1623 OFFCURVE",
"410 1567 OFFCURVE",
"410 1492 CURVE SMOOTH",
"410 1452 OFFCURVE",
"418 1408 OFFCURVE",
"433 1356 CURVE SMOOTH",
"474 1216 LINE",
"377 1329 LINE SMOOTH",
"327 1387 OFFCURVE",
"257 1443 OFFCURVE",
"194 1443 CURVE SMOOTH",
"132 1443 OFFCURVE",
"80 1389 OFFCURVE",
"80 1328 CURVE SMOOTH",
"80 1230 OFFCURVE",
"197 1184 OFFCURVE",
"314 1150 CURVE SMOOTH",
"494 1097 LINE",
"552 1100 LINE",
"724 1150 LINE SMOOTH"
);
}
);
};
layerId = "BC722C43-F174-4026-9892-4620CE50CA16";
paths = (
{
closed = 1;
nodes = (
"563 1147 LINE",
"503 1150 LINE",
"317 1107 LINE SMOOTH",
"195 1079 OFFCURVE",
"70 1024 OFFCURVE",
"70 919 CURVE SMOOTH",
"70 852 OFFCURVE",
"129 794 OFFCURVE",
"197 794 CURVE SMOOTH",
"255 794 OFFCURVE",
"333 833 OFFCURVE",
"392 911 CURVE SMOOTH",
"483 1031 LINE",
"431 894 LINE SMOOTH",
"410 839 OFFCURVE",
"407 794 OFFCURVE",
"407 755 CURVE SMOOTH",
"407 675 OFFCURVE",
"460 614 OFFCURVE",
"529 614 CURVE SMOOTH",
"598 614 OFFCURVE",
"651 675 OFFCURVE",
"651 755 CURVE SMOOTH",
"651 794 OFFCURVE",
"648 839 OFFCURVE",
"627 894 CURVE SMOOTH",
"575 1031 LINE",
"666 911 LINE SMOOTH",
"725 833 OFFCURVE",
"803 794 OFFCURVE",
"861 794 CURVE SMOOTH",
"929 794 OFFCURVE",
"988 852 OFFCURVE",
"988 919 CURVE SMOOTH",
"988 1024 OFFCURVE",
"864 1080 OFFCURVE",
"741 1107 CURVE SMOOTH"
);
},
{
closed = 1;
nodes = (
"864 1167 OFFCURVE",
"988 1223 OFFCURVE",
"988 1328 CURVE SMOOTH",
"988 1395 OFFCURVE",
"929 1453 OFFCURVE",
"861 1453 CURVE SMOOTH",
"803 1453 OFFCURVE",
"725 1414 OFFCURVE",
"666 1336 CURVE SMOOTH",
"575 1216 LINE",
"627 1353 LINE SMOOTH",
"648 1408 OFFCURVE",
"651 1453 OFFCURVE",
"651 1492 CURVE SMOOTH",
"651 1572 OFFCURVE",
"598 1633 OFFCURVE",
"529 1633 CURVE SMOOTH",
"460 1633 OFFCURVE",
"407 1572 OFFCURVE",
"407 1492 CURVE SMOOTH",
"407 1453 OFFCURVE",
"410 1408 OFFCURVE",
"431 1353 CURVE SMOOTH",
"483 1216 LINE",
"392 1336 LINE SMOOTH",
"333 1414 OFFCURVE",
"255 1453 OFFCURVE",
"197 1453 CURVE SMOOTH",
"129 1453 OFFCURVE",
"70 1395 OFFCURVE",
"70 1328 CURVE SMOOTH",
"70 1223 OFFCURVE",
"195 1168 OFFCURVE",
"317 1140 CURVE SMOOTH",
"503 1097 LINE",
"563 1100 LINE",
"741 1140 LINE SMOOTH"
);
}
);
width = 1058;
}
);
rightMetricsKey = "=|";
unicode = 002A;
},
{
color = 3;
glyphname = backslash;
layers = (
{
layerId = "BC722C43-F174-4026-9892-4620CE50CA16";
paths = (
{
closed = 1;
nodes = (
"851 0 LINE",
"510 1592 LINE",
"20 1592 LINE",
"361 0 LINE"
);
}
);
width = 871;
}
);
unicode = 005C;
},
{
color = 3;
glyphname = periodcentered;
layers = (
{
layerId = "BC722C43-F174-4026-9892-4620CE50CA16";
paths = (
{
closed = 1;
nodes = (
"502 293 OFFCURVE",
"620 396 OFFCURVE",
"620 544 CURVE SMOOTH",
"620 690 OFFCURVE",
"504 789 OFFCURVE",
"333 789 CURVE SMOOTH",
"165 789 OFFCURVE",
"55 692 OFFCURVE",
"55 544 CURVE SMOOTH",
"55 394 OFFCURVE",
"167 293 OFFCURVE",
"333 293 CURVE SMOOTH"
);
}
);
width = 675;
}
);
rightMetricsKey = "=|";
unicode = 00B7;
},
{
color = 3;
glyphname = bullet;
layers = (
{
background = {
paths = (
{
closed = 1;
nodes = (
"507 140 OFFCURVE",
"556 148 OFFCURVE",
"603 165 CURVE SMOOTH",
"650 182 OFFCURVE",
"692 206 OFFCURVE",
"730 238 CURVE SMOOTH",
"768 270 OFFCURVE",
"798 312 OFFCURVE",
"821 364 CURVE SMOOTH",
"844 416 OFFCURVE",
"855 473 OFFCURVE",
"855 536 CURVE SMOOTH",
"855 597 OFFCURVE",
"843 652 OFFCURVE",
"820 702 CURVE SMOOTH",
"797 752 OFFCURVE",
"766 792 OFFCURVE",
"728 823 CURVE SMOOTH",
"690 854 OFFCURVE",
"647 877 OFFCURVE",
"600 893 CURVE SMOOTH",
"553 909 OFFCURVE",
"504 917 OFFCURVE",
"453 917 CURVE SMOOTH",
"403 917 OFFCURVE",
"355 909 OFFCURVE",
"309 893 CURVE SMOOTH",
"263 877 OFFCURVE",
"222 854 OFFCURVE",
"185 824 CURVE SMOOTH",
"148 794 OFFCURVE",
"118 755 OFFCURVE",
"96 707 CURVE SMOOTH",
"74 659 OFFCURVE",
"63 605 OFFCURVE",
"63 546 CURVE",
"67 537 LINE",
"67 473 OFFCURVE",
"78 415 OFFCURVE",
"99 364 CURVE SMOOTH",
"120 313 OFFCURVE",
"149 271 OFFCURVE",
"186 239 CURVE SMOOTH",
"223 207 OFFCURVE",
"264 183 OFFCURVE",
"310 166 CURVE SMOOTH",
"356 149 OFFCURVE",
"405 140 OFFCURVE",
"456 140 CURVE SMOOTH"
);
}
);
};
layerId = "BC722C43-F174-4026-9892-4620CE50CA16";
paths = (
{
closed = 1;
nodes = (
"226 930 OFFCURVE",
"55 774 OFFCURVE",
"55 543 CURVE SMOOTH",
"55 312 OFFCURVE",
"226 152 OFFCURVE",
"455 152 CURVE SMOOTH",
"684 152 OFFCURVE",
"855 312 OFFCURVE",
"855 543 CURVE SMOOTH",
"855 774 OFFCURVE",
"684 930 OFFCURVE",
"455 930 CURVE SMOOTH"
);
}
);
width = 910;
}
);
rightMetricsKey = "=|";
unicode = 2022;
},
{
color = 6;
glyphname = colon;
layers = (
{
background = {
paths = (
{
closed = 1;
nodes = (
"312 596 LINE",
"393 596 OFFCURVE",
"461 618 OFFCURVE",
"516 663 CURVE SMOOTH",
"571 708 OFFCURVE",
"598 769 OFFCURVE",
"598 846 CURVE SMOOTH",
"598 921 OFFCURVE",
"571 981 OFFCURVE",
"518 1025 CURVE SMOOTH",
"465 1069 OFFCURVE",
"396 1091 OFFCURVE",
"311 1091 CURVE SMOOTH",
"230 1091 OFFCURVE",
"163 1069 OFFCURVE",
"111 1025 CURVE SMOOTH",
"59 981 OFFCURVE",
"33 921 OFFCURVE",
"33 846 CURVE SMOOTH",
"33 769 OFFCURVE",
"59 708 OFFCURVE",
"112 663 CURVE SMOOTH",
"165 618 OFFCURVE",
"231 595 OFFCURVE",
"310 595 CURVE"
);
},
{
closed = 1;
nodes = (
"310 -19 LINE",
"391 -19 OFFCURVE",
"459 3 OFFCURVE",
"514 48 CURVE SMOOTH",
"569 93 OFFCURVE",
"596 154 OFFCURVE",
"596 231 CURVE SMOOTH",
"596 306 OFFCURVE",
"569 366 OFFCURVE",
"516 410 CURVE SMOOTH",
"463 454 OFFCURVE",
"394 476 OFFCURVE",
"309 476 CURVE SMOOTH",
"228 476 OFFCURVE",
"161 454 OFFCURVE",
"109 410 CURVE SMOOTH",
"57 366 OFFCURVE",
"31 306 OFFCURVE",
"31 231 CURVE SMOOTH",
"31 154 OFFCURVE",
"57 93 OFFCURVE",
"110 48 CURVE SMOOTH",
"163 3 OFFCURVE",
"229 -20 OFFCURVE",
"308 -20 CURVE"
);
}
);
};
components = (
{
name = period;
},
{
name = period;
transform = "{1, 0, 0, 1, 0, 623}";
}
);
layerId = "BC722C43-F174-4026-9892-4620CE50CA16";
width = 622;
}
);
leftMetricsKey = period;
rightMetricsKey = period;
unicode = 003A;
},
{
color = 3;
glyphname = comma;
layers = (
{
background = {
paths = (
{
closed = 1;
nodes = (
"427 -448 OFFCURVE",
"592 -279 OFFCURVE",
"592 223 CURVE",
"478 365 LINE",
"247 -1 LINE",
"247 -183 OFFCURVE",
"209 -224 OFFCURVE",
"57 -223 CURVE",
"57 -448 LINE"
);
},
{
closed = 1;
nodes = (
"592 223 LINE",
"592 372 OFFCURVE",
"481 468 OFFCURVE",
"311 468 CURVE SMOOTH",
"141 468 OFFCURVE",
"30 372 OFFCURVE",
"30 223 CURVE SMOOTH",
"30 72 OFFCURVE",
"142 -27 OFFCURVE",
"311 -27 CURVE"
);
}
);
};
layerId = "BC722C43-F174-4026-9892-4620CE50CA16";
paths = (
{
closed = 1;
nodes = (
"136 478 OFFCURVE",
"30 377 OFFCURVE",
"30 228 CURVE SMOOTH",
"30 73 OFFCURVE",
"142 -27 OFFCURVE",
"322 -27 CURVE",
"267 4 LINE",
"267 -141 OFFCURVE",
"203 -205 OFFCURVE",
"57 -208 CURVE",
"57 -438 LINE",
"399 -438 OFFCURVE",
"592 -233 OFFCURVE",
"592 103 CURVE SMOOTH",
"592 348 OFFCURVE",
"487 478 OFFCURVE",
"291 478 CURVE SMOOTH"
);
}
);
width = 622;
}
);
leftMetricsKey = period;
widthMetricsKey = period;
unicode = 002C;
},
{
color = 3;
glyphname = exclam;
layers = (
{
background = {
paths = (
{
closed = 1;
nodes = (
"620 558 LINE",
"703 1330 LINE",
"703 1630 LINE",
"115 1630 LINE",
"115 1330 LINE",
"198 556 LINE"
);
},
{
closed = 1;
nodes = (
"491 -33 OFFCURVE",
"560 -11 OFFCURVE",
"613 33 CURVE SMOOTH",
"666 77 OFFCURVE",
"693 137 OFFCURVE",
"693 212 CURVE SMOOTH",
"693 289 OFFCURVE",
"666 350 OFFCURVE",
"611 395 CURVE SMOOTH",
"556 440 OFFCURVE",
"488 463 OFFCURVE",
"407 463 CURVE",
"405 462 LINE",
"326 462 OFFCURVE",
"260 440 OFFCURVE",
"207 395 CURVE SMOOTH",
"154 350 OFFCURVE",
"128 289 OFFCURVE",
"128 212 CURVE SMOOTH",
"128 137 OFFCURVE",
"154 77 OFFCURVE",
"206 33 CURVE SMOOTH",
"258 -11 OFFCURVE",
"325 -33 OFFCURVE",
"406 -33 CURVE SMOOTH"
);
}
);
};
layerId = "BC722C43-F174-4026-9892-4620CE50CA16";
paths = (
{
closed = 1;
nodes = (
"600 549 LINE",
"713 1192 LINE",
"713 1592 LINE",
"105 1592 LINE",
"105 1192 LINE",
"218 547 LINE"
);
},
{
closed = 1;
nodes = (
"578 -27 OFFCURVE",
"690 72 OFFCURVE",
"690 228 CURVE SMOOTH",
"690 382 OFFCURVE",
"579 478 OFFCURVE",
"409 478 CURVE SMOOTH",
"239 478 OFFCURVE",
"128 382 OFFCURVE",
"128 228 CURVE SMOOTH",
"128 72 OFFCURVE",
"240 -27 OFFCURVE",
"409 -27 CURVE SMOOTH"
);
}
);
width = 818;
}
);
rightMetricsKey = "=|";
unicode = 0021;
},
{
color = 3;
glyphname = exclamdown;
layers = (
{
background = {
paths = (
{
closed = 1;
nodes = (
"640 0 LINE",
"640 299 LINE",
"556 1072 LINE",
"135 1074 LINE",
"53 299 LINE",
"53 0 LINE"
);
},
{
closed = 1;
nodes = (
"345 1158 LINE",
"426 1158 OFFCURVE",
"494 1180 OFFCURVE",
"549 1225 CURVE SMOOTH",
"604 1270 OFFCURVE",
"631 1331 OFFCURVE",
"631 1408 CURVE SMOOTH",
"631 1483 OFFCURVE",
"604 1543 OFFCURVE",
"551 1587 CURVE SMOOTH",
"498 1631 OFFCURVE",
"429 1653 OFFCURVE",
"344 1653 CURVE SMOOTH",
"263 1653 OFFCURVE",
"196 1631 OFFCURVE",
"144 1587 CURVE SMOOTH",
"92 1543 OFFCURVE",
"66 1483 OFFCURVE",
"66 1408 CURVE SMOOTH",
"66 1331 OFFCURVE",
"92 1270 OFFCURVE",
"145 1225 CURVE SMOOTH",
"198 1180 OFFCURVE",
"264 1157 OFFCURVE",
"343 1157 CURVE"
);
}
);
};
layerId = "BC722C43-F174-4026-9892-4620CE50CA16";
paths = (
{
closed = 1;
nodes = (
"105 2 LINE",
"105 -398 LINE",
"713 -398 LINE",
"713 2 LINE",
"600 645 LINE",
"218 647 LINE"
);
},
{
closed = 1;
nodes = (
"240 1221 OFFCURVE",
"128 1122 OFFCURVE",
"128 966 CURVE SMOOTH",
"128 812 OFFCURVE",
"239 716 OFFCURVE",
"409 716 CURVE SMOOTH",
"579 716 OFFCURVE",
"690 812 OFFCURVE",
"690 966 CURVE SMOOTH",
"690 1122 OFFCURVE",
"578 1221 OFFCURVE",
"409 1221 CURVE SMOOTH"
);
}
);
width = 818;
}
);
rightMetricsKey = "=|";
unicode = 00A1;
},
{
glyphname = numbersign;
layers = (
{
background = {
paths = (
{
closed = 1;
nodes = (
"418 0 LINE",
"483 286 LINE",
"647 286 LINE",
"584 0 LINE",
"897 0 LINE",
"962 286 LINE",
"1112 286 LINE",
"1175 585 LINE",
"1031 585 LINE",
"1114 947 LINE",
"1259 947 LINE",
"1322 1246 LINE",
"1182 1246 LINE",
"1269 1623 LINE",
"945 1623 LINE",
"861 1246 LINE",
"703 1246 LINE",
"790 1623 LINE",
"466 1623 LINE",
"382 1246 LINE",
"242 1246 LINE",
"179 947 LINE",
"315 947 LINE",
"235 585 LINE",
"95 585 LINE",
"32 286 LINE",
"168 286 LINE",
"105 0 LINE"
);
},
{
closed = 1;
nodes = (
"635 947 LINE",
"794 947 LINE",
"714 585 LINE",
"552 585 LINE"
);
}
);
};
layerId = "BC722C43-F174-4026-9892-4620CE50CA16";
paths = (
{
closed = 1;
nodes = (
"418 0 LINE",
"483 286 LINE",
"647 286 LINE",
"584 0 LINE",
"897 0 LINE",
"962 286 LINE",
"1112 286 LINE",
"1175 585 LINE",
"1031 585 LINE",
"1114 947 LINE",
"1259 947 LINE",
"1322 1246 LINE",
"1182 1246 LINE",
"1269 1623 LINE",
"945 1623 LINE",
"861 1246 LINE",
"703 1246 LINE",
"790 1623 LINE",
"466 1623 LINE",
"382 1246 LINE",
"242 1246 LINE",
"179 947 LINE",
"315 947 LINE",
"235 585 LINE",
"95 585 LINE",
"32 286 LINE",
"168 286 LINE",
"105 0 LINE"
);
},
{
closed = 1;
nodes = (
"635 947 LINE",
"794 947 LINE",
"714 585 LINE",
"552 585 LINE"
);
}
);
width = 1354;
}
);
unicode = 0023;
},
{
color = 3;
glyphname = period;
layers = (
{
background = {
paths = (
{
closed = 1;
nodes = (
"309 -27 LINE",
"390 -27 OFFCURVE",
"458 -5 OFFCURVE",
"513 40 CURVE SMOOTH",
"568 85 OFFCURVE",
"595 146 OFFCURVE",
"595 223 CURVE SMOOTH",
"595 298 OFFCURVE",
"568 358 OFFCURVE",
"515 402 CURVE SMOOTH",
"462 446 OFFCURVE",
"393 468 OFFCURVE",
"308 468 CURVE SMOOTH",
"227 468 OFFCURVE",
"160 446 OFFCURVE",
"108 402 CURVE SMOOTH",
"56 358 OFFCURVE",
"30 298 OFFCURVE",
"30 223 CURVE SMOOTH",
"30 146 OFFCURVE",
"56 85 OFFCURVE",
"109 40 CURVE SMOOTH",
"162 -5 OFFCURVE",
"228 -28 OFFCURVE",
"307 -28 CURVE"
);
}
);
};
layerId = "BC722C43-F174-4026-9892-4620CE50CA16";
paths = (
{
closed = 1;
nodes = (
"480 -27 OFFCURVE",
"592 72 OFFCURVE",
"592 228 CURVE SMOOTH",
"592 382 OFFCURVE",
"481 478 OFFCURVE",
"311 478 CURVE SMOOTH",
"141 478 OFFCURVE",
"30 382 OFFCURVE",
"30 228 CURVE SMOOTH",
"30 72 OFFCURVE",
"142 -27 OFFCURVE",
"311 -27 CURVE SMOOTH"
);
}
);
width = 622;
}
);
unicode = 002E;
},
